<?xml version="1.0" standalone="no"?>
<!DOCTYPE svg PUBLIC "-//W3C//DTD SVG 20010904//EN"
 "http://www.w3.org/TR/2001/REC-SVG-20010904/DTD/svg10.dtd">
<svg version="1.0" xmlns="http://www.w3.org/2000/svg"
 width="105.000000pt" height="105.000000pt" viewBox="0 0 105.000000 105.000000"
 preserveAspectRatio="xMidYMid meet">
<metadata>
Created by potrace 1.11, written by Peter Selinger 2001-2013
</metadata>
<g transform="translate(0.000000,105.000000) scale(0.100000,-0.100000)"
fill="#000000" stroke="none">
<path d="M52 588 l3 -432 60 -18 c63 -19 209 -61 333 -96 48 -14 80 -18 95
-13 12 5 26 9 30 8 4 0 100 27 212 59 l205 59 0 432 c0 480 5 446 -67 419 -21
-8 -63 -21 -93 -29 -30 -9 -112 -32 -181 -51 l-126 -36 -226 65 c-124 36 -231
65 -237 65 -7 0 -9 -137 -8 -432z"/>
</g>
</svg>
