<?xml version="1.0" encoding="utf-8"?>
<!-- Generator: Adobe Illustrator 15.1.0, SVG Export Plug-In . SVG Version: 6.00 Build 0)  -->
<!DOCTYPE svg PUBLIC "-//W3C//DTD SVG 1.0//EN" "http://www.w3.org/TR/2001/REC-SVG-20010904/DTD/svg10.dtd">
<svg version="1.0" id="Capa_1" xmlns="http://www.w3.org/2000/svg" xmlns:xlink="http://www.w3.org/1999/xlink" x="0px" y="0px"
	 width="330px" height="100px" viewBox="0 0 330 100" enable-background="new 0 0 330 100" xml:space="preserve">
<g>
	<g>
		<path fill-rule="evenodd" clip-rule="evenodd" fill="#C1626A" d="M96.28,1c0.02,0,0.042,0,0.063,0c0,2.078,0,4.156,0,6.234
			c-0.022,0-0.043,0-0.063,0C96.28,5.156,96.28,3.078,96.28,1z"/>
		<path fill-rule="evenodd" clip-rule="evenodd" fill="#E3E3E5" d="M4.864,7.234c0.106,1.252,0.106,2.949,0,4.199
			C4.864,10.035,4.864,8.634,4.864,7.234z"/>
		<path fill-rule="evenodd" clip-rule="evenodd" fill="#E3E3E5" d="M96.28,7.234c0.02,0,0.042,0,0.063,0c0,1.422,0,2.842,0,4.263
			c-0.022,0-0.043,0-0.063,0C96.28,10.077,96.28,8.656,96.28,7.234z"/>
		<path fill-rule="evenodd" clip-rule="evenodd" fill="#C1626A" d="M96.28,11.497c0.02,0,0.042,0,0.063,0
			c0,20.994,0,41.985,0,62.979c-0.022,0-0.043,0-0.063,0C96.28,53.482,96.28,32.491,96.28,11.497z"/>
		<path fill-rule="evenodd" clip-rule="evenodd" fill="#E3E3E5" d="M6.772,19.003c-0.227,0.645-0.126,1.94-0.126,2.99
			c0,15.375,0,30.989,0,46.056c-0.15-16.2-0.021-32.676-0.065-48.983C6.483,18.911,6.797,18.879,6.772,19.003z"/>
		<path fill-rule="evenodd" clip-rule="evenodd" fill="#C1626A" d="M89.028,21.421c0.191-0.147,0.655-0.022,0.953-0.064
			C89.788,21.505,89.324,21.379,89.028,21.421z"/>
		<path fill-rule="evenodd" clip-rule="evenodd" fill="#DDDDDD" d="M89.981,21.356c0.403,0,0.806,0,1.21,0
			c0.213,0.148,0.697,0.023,1.018,0.064c0.915,0.06,1.859,0.091,2.671,0.253c0,2.376,0,4.752,0,7.125
			c-1.559-0.306-3.167-0.564-5.025-0.572c-0.616-0.106-1.675-0.106-2.291,0c-7.448,0.333-12.378,3.186-16.54,6.807
			c-0.663,0.609-1.298,1.246-1.909,1.908c-3.293,3.831-6.258,7.989-6.744,14.631c-0.145,0.088-0.022,0.443-0.062,0.636
			c-0.073,8.704,4.161,13.101,12.022,13.868c0.489,0.106,1.419,0.106,1.909,0c8.518-0.559,13.635-4.855,18.639-8.715
			c0,1.221,0,2.304,0,3.498c0,1.047,0.269,2.405,0,3.437c-0.145,0.556-1.339,1.249-1.973,1.718
			c-4.865,3.599-10.963,6.637-18.64,7.123c-0.53,0-1.06,0-1.59,0c-5.3-0.232-8.863-2.203-11.831-4.771
			c-0.25-0.302-0.525-0.576-0.828-0.826c-2.491-2.789-4.165-6.396-4.389-11.451c0-0.806,0-1.61,0-2.416
			c0.637-9.626,4.966-15.562,9.733-21.057c0.663-0.611,1.299-1.246,1.908-1.909c5.469-4.879,12.002-8.695,21.758-9.288
			C89.324,21.379,89.788,21.505,89.981,21.356z"/>
		<path fill-rule="evenodd" clip-rule="evenodd" fill="#C1626A" d="M91.191,21.356c0.318,0.042,0.803-0.083,1.018,0.064
			C91.888,21.379,91.404,21.505,91.191,21.356z"/>
		<path fill-rule="evenodd" clip-rule="evenodd" fill="#E3E3E5" d="M31.265,26.065c-0.15,16.221-0.022,32.719-0.065,49.047
			c-0.148-8.058-0.02-16.392-0.063-24.557C31.22,42.391,30.968,33.92,31.265,26C31.265,26.023,31.265,26.043,31.265,26.065z"/>
		<path fill-rule="evenodd" clip-rule="evenodd" fill="#C1626A" d="M87.563,28.228c0.616-0.106,1.675-0.106,2.291,0
			C89.09,28.228,88.327,28.228,87.563,28.228z"/>
		<path fill-rule="evenodd" clip-rule="evenodd" fill="#DDDDDD" d="M50.604,31.599c2.477-0.639,4.834-1.4,7.251-2.098
			c0.148,1.76,0.022,3.795,0.063,5.661c-2.377,0.761-4.836,1.441-7.251,2.163c-0.022,0-0.043,0-0.063,0
			c-0.043-1.888,0.083-3.943-0.065-5.726C50.561,31.599,50.582,31.599,50.604,31.599z"/>
		<path fill-rule="evenodd" clip-rule="evenodd" fill="#C1626A" d="M62.371,51.574c-0.038,0.193,0.083,0.548-0.062,0.636
			C62.349,52.018,62.227,51.662,62.371,51.574z"/>
		<path fill-rule="evenodd" clip-rule="evenodd" fill="#C1626A" d="M55.629,53.675c0,0.806,0,1.61,0,2.416
			C55.522,55.434,55.522,54.332,55.629,53.675z"/>
		<path fill-rule="evenodd" clip-rule="evenodd" fill="#C1626A" d="M74.332,66.078c0.636,0,1.272,0,1.909,0
			C75.751,66.185,74.821,66.185,74.332,66.078z"/>
		<path fill-rule="evenodd" clip-rule="evenodd" fill="#E3E3E5" d="M28.02,68.56c0.024,1.201,0.178,3.527,0.064,5.153
			c-0.018,0.233,0.092,0.62-0.191,0.445C28.186,72.728,27.938,70.322,28.02,68.56z"/>
		<path fill-rule="evenodd" clip-rule="evenodd" fill="#C1626A" d="M72.677,73.139c0.531,0,1.061,0,1.59,0
			C73.886,73.245,73.06,73.245,72.677,73.139z"/>
		<path fill-rule="evenodd" clip-rule="evenodd" fill="#E3E3E5" d="M96.28,74.539c0-0.021,0-0.042,0-0.063c0.02,0,0.042,0,0.063,0
			c0,1.507,0,3.013,0,4.518c-0.022,0-0.043,0-0.063,0C96.28,77.508,96.28,76.024,96.28,74.539z"/>
		<path fill-rule="evenodd" clip-rule="evenodd" fill="#E3E3E5" d="M4.864,74.539c0.106,1.337,0.106,3.117,0,4.454
			C4.864,77.508,4.864,76.024,4.864,74.539z"/>
		<path fill-rule="evenodd" clip-rule="evenodd" fill="#C1626A" d="M96.215,79.057c0.004-0.039,0.009-0.075,0.065-0.063
			c0.02,0,0.042,0,0.063,0c-0.043,2.057,0.083,4.283-0.063,6.234C96.237,83.191,96.363,80.986,96.215,79.057z"/>
		<path fill-rule="evenodd" clip-rule="evenodd" fill="#C06169" d="M4.864,79.057c15.32,4.296,30.425,8.804,45.74,13.104
			c0,2.078,0,4.156,0,6.234c-15.255-4.382-30.476-8.797-45.74-13.168C4.864,83.17,4.864,81.113,4.864,79.057z"/>
		<path fill-rule="evenodd" clip-rule="evenodd" fill="#C06169" d="M4.864,1c0.042,0,0.085,0,0.127,0
			c15.165,4.429,30.411,8.779,45.613,13.168c0.042,2.036-0.085,4.241,0.063,6.172C35.522,16.082,20.081,11.568,4.864,7.171
			C4.864,5.113,4.864,3.058,4.864,1z"/>
		<path fill-rule="evenodd" clip-rule="evenodd" fill="#FBC817" d="M4.864,7.234c0-0.021,0-0.042,0-0.063
			c15.217,4.397,30.658,8.911,45.803,13.169c15.249-4.324,30.378-8.766,45.613-13.106c0,1.422,0,2.842,0,4.263
			c-15.24,4.332-30.37,8.775-45.613,13.104C35.47,20.416,20.146,15.808,4.864,11.497c0-0.021,0-0.043,0-0.063
			C4.97,10.183,4.97,8.486,4.864,7.234z"/>
		<path fill-rule="evenodd" clip-rule="evenodd" fill="#C06169" d="M4.864,11.497c15.283,4.311,30.606,8.919,45.803,13.104
			c-0.148,2.206-0.022,4.686-0.063,6.997c-0.021,0-0.043,0-0.065,0c-6.433-1.835-12.8-3.738-19.274-5.534c0-0.021,0-0.042,0-0.064
			c-0.297,7.919-0.044,16.39-0.128,24.555c0.043,8.165-0.084,16.499,0.063,24.557c1.856,0.583,3.769,1.109,5.663,1.653
			c0-9.542,0-19.084,0-28.626c4.562,1.332,9.112,2.678,13.741,3.944c0.02,0,0.042,0,0.063,0
			c-0.148,11.727-0.022,23.729-0.063,35.562c-15.286-4.353-30.507-8.767-45.74-13.17C4.864,53.482,4.864,32.491,4.864,11.497z
			 M6.646,68.05c7.084,2.035,14.116,4.122,21.247,6.108c0.284,0.175,0.174-0.212,0.191-0.445c0.114-1.626-0.041-3.952-0.064-5.153
			c-5.246-1.539-10.586-2.985-15.777-4.579c0-14.483,0-28.968,0-43.45c-1.844-0.488-3.603-1.063-5.47-1.527
			c0.025-0.124-0.289-0.092-0.191,0.063C6.624,35.374,6.496,51.85,6.646,68.05z"/>
		<path fill-rule="evenodd" clip-rule="evenodd" fill="#FBC817" d="M4.864,74.539c0-0.021,0-0.042,0-0.063
			c15.232,4.403,30.454,8.817,45.74,13.17c15.291-4.303,30.41-8.779,45.676-13.106c0,1.485,0,2.969,0,4.454
			c-0.056-0.012-0.061,0.024-0.065,0.063c-15.245,4.327-30.374,8.769-45.611,13.104c-15.314-4.301-30.42-8.809-45.74-13.104
			c0-0.021,0-0.043,0-0.063C4.97,77.656,4.97,75.876,4.864,74.539z"/>
		<path fill-rule="evenodd" clip-rule="evenodd" fill="#C1626A" d="M50.539,46.358c-4.577-1.318-9.128-2.661-13.741-3.945
			c0-3.011,0-6.021,0-9.033c4.622,1.295,9.156,2.676,13.806,3.944c0.02,0,0.042,0,0.063,0c-0.106,2.864-0.106,6.17,0,9.034
			C50.639,46.451,50.611,46.352,50.539,46.358z"/>
		<path fill-rule="evenodd" clip-rule="evenodd" fill="#C1626A" d="M57.855,29.5c0.218,0.188,0.128,1.872,0.128,2.862
			c0,1.021,0.05,2.011-0.065,2.799C57.877,33.295,58.003,31.26,57.855,29.5z"/>
		<path fill-rule="evenodd" clip-rule="evenodd" fill="#C1626A" d="M65.362,32.618c0.611-0.663,1.247-1.299,1.908-1.909
			C66.661,31.372,66.024,32.007,65.362,32.618z"/>
		<path fill-rule="evenodd" clip-rule="evenodd" fill="#C1626A" d="M60.018,67.542c0.303,0.25,0.578,0.524,0.828,0.826
			C60.543,68.12,60.267,67.844,60.018,67.542z"/>
		<path fill-rule="evenodd" clip-rule="evenodd" fill="#C1626A" d="M69.115,36.943c0.611-0.663,1.246-1.299,1.909-1.908
			C70.414,35.698,69.779,36.334,69.115,36.943z"/>
		<path fill-rule="evenodd" clip-rule="evenodd" fill="#DDDDDD" d="M50.539,46.358c0.072-0.006,0.1,0.092,0.128,0
			c1.259-0.268,2.348-0.706,3.625-0.954c0,1.887,0,3.774,0,5.662c-1.195,0.352-2.41,0.684-3.625,1.018c-0.022,0-0.043,0-0.063,0
			C50.561,50.195,50.687,48.14,50.539,46.358z"/>
		<path fill-rule="evenodd" clip-rule="evenodd" fill="#FFFFFF" d="M6.772,19.003c1.868,0.464,3.626,1.039,5.47,1.527
			c0,14.482,0,28.967,0,43.45c5.191,1.594,10.531,3.04,15.777,4.579c-0.082,1.763,0.166,4.168-0.127,5.599
			c-7.131-1.986-14.163-4.073-21.247-6.108c0-15.067,0-30.681,0-46.056C6.646,20.943,6.545,19.648,6.772,19.003z"/>
		<path fill-rule="evenodd" clip-rule="evenodd" fill="#FFFFFF" d="M31.265,26.065c6.474,1.796,12.841,3.699,19.274,5.534
			c0.148,1.783,0.022,3.838,0.065,5.726c-4.649-1.268-9.184-2.649-13.806-3.944c0,3.012,0,6.022,0,9.033
			c4.612,1.284,9.164,2.627,13.741,3.945c0.148,1.781,0.022,3.837,0.065,5.726c-4.629-1.267-9.179-2.612-13.741-3.944
			c0,9.542,0,19.084,0,28.626c-1.895-0.544-3.807-1.07-5.663-1.653C31.243,58.784,31.115,42.286,31.265,26.065z"/>
		<path fill-rule="evenodd" clip-rule="evenodd" fill="#8D2339" d="M96.152,1c0.043,0,0.085,0,0.128,0c0,2.078,0,4.156,0,6.234
			c-15.235,4.34-30.364,8.782-45.613,13.106c-0.148-1.931-0.022-4.136-0.063-6.172C65.761,9.752,81.017,5.439,96.152,1z"/>
		<path fill-rule="evenodd" clip-rule="evenodd" fill="#8D2339" d="M50.667,24.602c15.243-4.33,30.373-8.772,45.613-13.104
			c0,20.994,0,41.985,0,62.979c0,0.021,0,0.042,0,0.063c-15.267,4.327-30.386,8.804-45.676,13.106
			c0.042-11.833-0.085-23.835,0.063-35.562c1.215-0.334,2.43-0.666,3.625-1.018c0-1.888,0-3.775,0-5.662
			c-1.277,0.248-2.366,0.687-3.625,0.954c-0.106-2.864-0.106-6.17,0-9.034c2.415-0.722,4.875-1.402,7.251-2.163
			c0.115-0.788,0.065-1.777,0.065-2.799c0-0.991,0.09-2.674-0.128-2.862c-2.417,0.698-4.774,1.459-7.251,2.098
			C50.645,29.288,50.519,26.808,50.667,24.602z M89.028,21.421c-9.755,0.593-16.289,4.409-21.758,9.288
			c-0.662,0.61-1.297,1.246-1.908,1.909c-4.767,5.495-9.096,11.431-9.733,21.057c-0.106,0.657-0.106,1.759,0,2.416
			c0.224,5.056,1.898,8.662,4.389,11.451c0.249,0.302,0.525,0.578,0.828,0.826c2.968,2.567,6.531,4.538,11.831,4.771
			c0.383,0.106,1.209,0.106,1.59,0c7.676-0.486,13.775-3.524,18.64-7.123c0.633-0.469,1.828-1.162,1.973-1.718
			c0.269-1.031,0-2.39,0-3.437c0-1.194,0-2.277,0-3.498c-5.004,3.859-10.122,8.156-18.639,8.715c-0.636,0-1.272,0-1.909,0
			c-7.861-0.768-12.096-5.164-12.022-13.868c0.145-0.088,0.024-0.442,0.062-0.636c0.485-6.642,3.451-10.8,6.744-14.631
			c0.664-0.609,1.299-1.246,1.909-1.908c4.161-3.622,9.091-6.474,16.54-6.807c0.764,0,1.527,0,2.291,0
			c1.858,0.008,3.467,0.266,5.025,0.572c0-2.374,0-4.75,0-7.125c-0.812-0.162-1.756-0.194-2.671-0.253
			c-0.214-0.147-0.7-0.022-1.018-0.064c-0.404,0-0.807,0-1.21,0C89.683,21.398,89.219,21.274,89.028,21.421z"/>
		<path fill-rule="evenodd" clip-rule="evenodd" fill="#8D2339" d="M50.604,92.161c15.237-4.336,30.367-8.777,45.611-13.104
			c0.148,1.93,0.022,4.135,0.065,6.171c-15.207,4.409-30.438,8.791-45.676,13.168C50.604,96.317,50.604,94.239,50.604,92.161z"/>
	</g>
	<g>
		<g>
			<path fill="#8D2339" d="M126.426,22.919c-0.315-0.048-0.609-0.131-0.873-0.247c-0.22-0.098-0.361-0.232-0.433-0.415L118.853,6.81
				l-0.17-0.028c-0.109-0.016-0.209-0.03-0.303-0.041c-0.095-0.01-0.193-0.014-0.288-0.014c-0.276,0-0.655,0.106-0.9,0.626
				l-6.197,14.812c-0.109,0.23-0.246,0.388-0.418,0.475c-0.203,0.107-0.56,0.21-1.025,0.303c-0.187,0.013-0.619,0.121-0.619,0.819
				v0.207c0,0.134,0.028,0.258,0.084,0.369l0.096,0.191l0.211-0.024c0.455-0.051,0.868-0.083,1.242-0.1
				c0.914-0.044,1.713-0.03,2.57,0.012c0.512,0.026,0.999,0.056,1.458,0.09l0.27,0.02l0.054-0.263
				c0.038-0.197,0.057-0.364,0.057-0.5c0-0.634-0.436-0.766-0.62-0.792c-0.658-0.102-0.891-0.207-0.972-0.261
				c-0.117-0.077-0.132-0.146-0.132-0.208c0-0.041,0.008-0.1,0.02-0.182c0.01-0.062,0.032-0.122,0.088-0.225l1.264-3.378h4.979
				l1.286,3.471c0.05,0.151,0.062,0.239,0.062,0.289c0,0.09-0.027,0.164-0.156,0.231c-0.13,0.067-0.395,0.168-0.926,0.27
				c-0.138,0.035-0.258,0.122-0.36,0.25c-0.103,0.132-0.153,0.313-0.153,0.536v0.207c0,0.134,0.028,0.258,0.084,0.369l0.091,0.184
				l0.205-0.015c0.237-0.017,0.526-0.03,0.872-0.038c0.355-0.009,0.712-0.021,1.076-0.038c0.358-0.017,0.707-0.03,1.049-0.039
				c0.34-0.009,0.629-0.013,0.867-0.013c0.459,0,0.952,0.013,1.477,0.038c0.532,0.026,1.071,0.057,1.618,0.09l0.267,0.018
				l0.053-0.261c0.038-0.191,0.057-0.366,0.057-0.526C127.072,23.298,126.843,23.001,126.426,22.919z M118.885,16.816h-3.538
				l1.79-4.627L118.885,16.816z"/>
			<path fill="#8D2339" d="M151.07,16.174c-0.467-0.369-1.03-0.671-1.67-0.897c-0.317-0.113-0.649-0.204-0.995-0.279
				c0.599-0.264,1.127-0.601,1.575-1.009c0.716-0.647,1.079-1.525,1.079-2.605c0-0.569-0.098-1.12-0.29-1.639
				c-0.197-0.533-0.531-1.012-0.998-1.424c-0.461-0.404-1.08-0.723-1.84-0.95c-0.745-0.222-1.691-0.334-2.815-0.334h-3.552
				c-0.408,0-0.933-0.014-1.57-0.039c-0.642-0.025-1.218-0.056-1.73-0.089l-0.238-0.018l-0.072,0.228
				c-0.023,0.064-0.036,0.135-0.04,0.21c-0.019,0.059-0.028,0.118-0.028,0.18v0.117c0,0.177,0.021,0.326,0.07,0.452
				c0.049,0.134,0.169,0.311,0.497,0.392c0.754,0.118,1.065,0.242,1.194,0.326c0.083,0.056,0.195,0.165,0.195,0.477v12.896
				c0,0.303-0.122,0.418-0.228,0.484c-0.146,0.091-0.465,0.221-1.175,0.321c-0.146,0.032-0.271,0.099-0.376,0.203
				c-0.121,0.123-0.176,0.309-0.176,0.587v0.116c0,0.079,0.014,0.16,0.028,0.183l0.062,0.446h0.268c0.192,0,0.394-0.005,0.607-0.013
				c0.209-0.01,0.418-0.022,0.633-0.041c0.335-0.034,0.692-0.054,1.071-0.063c0.383-0.009,0.729-0.013,1.035-0.013h4.452
				c0.967,0,1.857-0.108,2.652-0.319c0.809-0.215,1.505-0.54,2.073-0.963c0.577-0.431,1.031-0.973,1.352-1.615
				c0.321-0.639,0.483-1.386,0.483-2.221c0-0.629-0.136-1.213-0.407-1.737C151.928,17.005,151.549,16.553,151.07,16.174z
				 M146.815,12.583c-0.098,0.332-0.265,0.636-0.5,0.899c-0.232,0.261-0.55,0.472-0.948,0.626c-0.408,0.157-0.934,0.236-1.564,0.236
				h-0.105v-5.41h0.105c0.579,0,1.085,0.07,1.5,0.206c0.402,0.13,0.728,0.312,0.967,0.536c0.242,0.225,0.415,0.486,0.526,0.795
				c0.117,0.317,0.175,0.658,0.175,1.015C146.971,11.866,146.918,12.234,146.815,12.583z M148.438,19.619
				c0,1.034-0.258,1.783-0.769,2.225c-0.524,0.455-1.348,0.686-2.449,0.686c-0.449,0-0.847-0.052-1.186-0.155
				c-0.238-0.072-0.336-0.207-0.336-0.466v-5.664h1.083c0.499,0,0.978,0.072,1.425,0.218c0.44,0.141,0.83,0.351,1.158,0.625
				c0.323,0.269,0.587,0.62,0.781,1.038C148.34,18.547,148.438,19.049,148.438,19.619z"/>
			<path fill="#8D2339" d="M179.342,9.26c-0.805-0.794-1.768-1.423-2.865-1.869c-2.168-0.87-4.861-0.907-7.07,0.043
				c-1.086,0.467-2.049,1.118-2.861,1.93c-0.814,0.813-1.464,1.771-1.931,2.849c-0.469,1.08-0.708,2.254-0.708,3.494
				c0,1.305,0.233,2.519,0.693,3.606c0.459,1.087,1.095,2.042,1.893,2.838c0.799,0.8,1.761,1.428,2.855,1.869
				c1.094,0.442,2.295,0.667,3.564,0.667c1.236,0,2.42-0.238,3.518-0.707c1.092-0.466,2.059-1.11,2.873-1.917
				c0.814-0.806,1.465-1.764,1.934-2.85c0.469-1.09,0.707-2.268,0.707-3.506c0-1.285-0.234-2.494-0.693-3.593
				C180.791,11.019,180.148,10.06,179.342,9.26z M172.422,8.704c0.881,0,1.664,0.206,2.324,0.612c0.668,0.409,1.23,0.98,1.674,1.698
				c0.451,0.734,0.795,1.616,1.018,2.623c0.225,1.016,0.34,2.136,0.34,3.331c0,0.807-0.113,1.574-0.332,2.274
				c-0.221,0.701-0.533,1.319-0.93,1.836c-0.393,0.513-0.867,0.922-1.408,1.216c-0.537,0.292-1.145,0.439-1.809,0.439
				c-0.814,0-1.547-0.204-2.178-0.609c-0.643-0.408-1.195-0.99-1.641-1.725c-0.453-0.749-0.803-1.659-1.045-2.705
				c-0.242-1.05-0.365-2.214-0.365-3.457c0-0.868,0.124-1.655,0.369-2.34c0.244-0.686,0.57-1.272,0.975-1.746
				c0.396-0.47,0.865-0.833,1.389-1.08C171.324,8.828,171.871,8.704,172.422,8.704z"/>
			<path fill="#8D2339" d="M210.66,16.41l-0.227,0.02c-0.201,0.019-0.451,0.037-0.748,0.052c-0.299,0.018-0.605,0.029-0.92,0.038
				l-0.934,0.025c-0.598,0.018-0.963,0.018-1.576,0l-0.971-0.025c-0.334-0.009-0.658-0.021-0.971-0.038
				c-0.316-0.017-0.602-0.033-0.857-0.052l-0.234-0.015l-0.076,0.222c-0.029,0.079-0.045,0.176-0.057,0.307
				c-0.008,0.113-0.012,0.198-0.012,0.257c0,0.147,0.035,0.299,0.104,0.449c0.064,0.137,0.199,0.314,0.521,0.395
				c0.748,0.098,1.08,0.242,1.229,0.346c0.17,0.118,0.256,0.358,0.256,0.713v3.469c-0.213,0.051-0.42,0.09-0.619,0.113
				c-0.266,0.033-0.578,0.049-0.928,0.049c-0.959,0-1.82-0.184-2.551-0.546c-0.738-0.365-1.363-0.881-1.865-1.535
				c-0.506-0.661-0.895-1.461-1.158-2.381c-0.264-0.926-0.398-1.964-0.398-3.082c0-1.011,0.121-1.931,0.359-2.729
				c0.236-0.792,0.58-1.475,1.027-2.034c0.439-0.551,0.998-0.981,1.66-1.275c0.67-0.3,1.455-0.45,2.334-0.45
				c1.162,0,2.143,0.209,2.918,0.621c0.748,0.395,1.293,1.152,1.623,2.235c0.072,0.289,0.236,0.418,0.363,0.477
				c0.199,0.09,0.371,0.136,0.82,0.046l0.629-0.132l-0.088-0.314c-0.184-0.67-0.328-1.367-0.43-2.072s-0.168-1.295-0.205-1.756
				l-0.014-0.219l-0.213-0.054c-0.939-0.243-1.943-0.44-2.98-0.587c-1.043-0.146-2.082-0.22-3.092-0.22
				c-1.484,0-2.799,0.273-3.904,0.814c-1.105,0.54-2.041,1.25-2.777,2.111c-0.734,0.86-1.287,1.833-1.641,2.894
				c-0.35,1.056-0.529,2.117-0.529,3.159c0,1.33,0.184,2.56,0.543,3.648c0.365,1.103,0.932,2.062,1.682,2.855
				c0.75,0.795,1.723,1.415,2.887,1.84c1.154,0.423,2.539,0.637,4.115,0.637c0.605,0,1.137-0.009,1.598-0.025
				c0.463-0.018,0.893-0.049,1.283-0.094c0.391-0.043,0.768-0.09,1.131-0.142c0.365-0.052,0.754-0.111,1.17-0.182
				c0.494-0.085,0.764-0.193,0.904-0.363c0.135-0.158,0.201-0.354,0.201-0.582v-4.478c0-0.382,0.146-0.489,0.195-0.523
				c0.117-0.085,0.387-0.203,1.004-0.279l0.076-0.021c0.135-0.055,0.252-0.143,0.346-0.265c0.104-0.132,0.154-0.311,0.154-0.534
				v-0.207c0-0.125-0.023-0.251-0.074-0.373L210.66,16.41z"/>
			<path fill="#8D2339" d="M237.812,22.919c-0.314-0.048-0.609-0.131-0.873-0.247c-0.219-0.098-0.361-0.232-0.434-0.415L230.24,6.81
				l-0.17-0.028c-0.109-0.016-0.209-0.03-0.303-0.041c-0.096-0.01-0.191-0.014-0.289-0.014c-0.275,0-0.652,0.106-0.898,0.626
				l-6.197,14.812c-0.109,0.23-0.246,0.388-0.418,0.475c-0.203,0.107-0.561,0.21-1.025,0.303c-0.188,0.013-0.619,0.121-0.619,0.819
				v0.207c0,0.134,0.029,0.258,0.084,0.369l0.096,0.191l0.211-0.024c0.457-0.051,0.869-0.083,1.242-0.1
				c0.916-0.044,1.713-0.03,2.57,0.012c0.512,0.026,0.998,0.056,1.459,0.09l0.27,0.02l0.053-0.263
				c0.039-0.197,0.059-0.364,0.059-0.5c0-0.634-0.436-0.766-0.621-0.792c-0.656-0.102-0.889-0.207-0.971-0.261
				c-0.115-0.077-0.133-0.146-0.133-0.208c0-0.041,0.01-0.1,0.023-0.182c0.008-0.062,0.029-0.122,0.086-0.225l1.264-3.378h4.979
				l1.287,3.471c0.051,0.151,0.061,0.239,0.061,0.289c0,0.09-0.025,0.164-0.154,0.231c-0.131,0.067-0.396,0.168-0.926,0.27
				c-0.139,0.035-0.26,0.122-0.361,0.25c-0.102,0.132-0.152,0.313-0.152,0.536v0.207c0,0.134,0.027,0.258,0.084,0.369l0.09,0.184
				l0.205-0.015c0.238-0.017,0.527-0.03,0.873-0.038c0.354-0.009,0.713-0.021,1.076-0.038c0.357-0.017,0.707-0.03,1.049-0.039
				c0.34-0.009,0.629-0.013,0.867-0.013c0.457,0,0.951,0.013,1.477,0.038c0.531,0.026,1.07,0.057,1.617,0.09l0.268,0.018
				l0.053-0.261c0.037-0.191,0.057-0.366,0.057-0.526C238.459,23.298,238.229,23.001,237.812,22.919z M230.273,16.816h-3.539
				l1.791-4.627L230.273,16.816z"/>
			<path fill="#8D2339" d="M264.918,9.598c-0.77-0.781-1.74-1.409-2.883-1.871c-1.137-0.458-2.471-0.69-3.961-0.69h-5.971
				c-0.234,0-0.467-0.01-0.701-0.025c-0.242-0.018-0.51-0.03-0.793-0.039c-0.279-0.009-0.596-0.029-0.949-0.063l-0.227-0.021
				l-0.086,0.211c-0.049,0.122-0.074,0.247-0.074,0.373v0.206c0,0.184,0.025,0.329,0.08,0.448c0.076,0.167,0.229,0.28,0.484,0.343
				c0.699,0.119,1.023,0.249,1.17,0.336c0.104,0.06,0.223,0.168,0.223,0.468v12.896c0,0.243-0.084,0.388-0.279,0.483
				c-0.273,0.133-0.648,0.241-1.125,0.322c-0.145,0.032-0.271,0.099-0.375,0.203c-0.121,0.123-0.178,0.309-0.178,0.587v0.207
				c0,0.134,0.029,0.258,0.084,0.369l0.09,0.182l0.205-0.014c0.527-0.033,1.088-0.063,1.678-0.09
				c0.588-0.025,1.102-0.038,1.545-0.038h5.275c1.562,0,2.939-0.255,4.086-0.76c1.148-0.502,2.111-1.177,2.859-2.005
				c0.744-0.822,1.303-1.764,1.658-2.795c0.354-1.025,0.529-2.07,0.529-3.11c0-1.183-0.201-2.312-0.598-3.353
				C266.285,11.307,265.691,10.38,264.918,9.598z M263.121,16.195c0,1.939-0.508,3.487-1.506,4.609
				c-0.99,1.111-2.57,1.674-4.699,1.674c-0.453,0-0.812-0.017-1.068-0.05c-0.244-0.03-0.432-0.073-0.559-0.129
				c-0.08-0.037-0.131-0.079-0.152-0.125c-0.033-0.08-0.051-0.187-0.051-0.315V8.935h1.289c1.092,0,2.08,0.138,2.932,0.412
				c0.83,0.265,1.531,0.689,2.086,1.261c0.555,0.569,0.984,1.32,1.279,2.232C262.969,13.766,263.121,14.896,263.121,16.195z"/>
			<path fill="#8D2339" d="M294.307,9.26c-0.805-0.794-1.77-1.423-2.865-1.869c-2.168-0.87-4.863-0.907-7.072,0.043
				c-1.086,0.467-2.049,1.118-2.859,1.93c-0.814,0.813-1.465,1.771-1.934,2.849c-0.467,1.08-0.705,2.254-0.705,3.494
				c0,1.305,0.234,2.519,0.693,3.606c0.459,1.087,1.096,2.042,1.893,2.838c0.799,0.8,1.76,1.428,2.855,1.869
				c1.094,0.442,2.295,0.667,3.564,0.667c1.234,0,2.418-0.238,3.518-0.707c1.09-0.466,2.059-1.11,2.875-1.917
				c0.812-0.806,1.463-1.764,1.93-2.85c0.469-1.09,0.707-2.268,0.707-3.506c0-1.285-0.232-2.494-0.691-3.593
				C295.756,11.019,295.113,10.06,294.307,9.26z M287.387,8.704c0.881,0,1.664,0.206,2.324,0.612c0.666,0.409,1.23,0.98,1.674,1.698
				c0.451,0.734,0.793,1.616,1.018,2.623c0.227,1.016,0.34,2.136,0.34,3.331c0,0.807-0.111,1.574-0.332,2.274
				c-0.221,0.701-0.533,1.319-0.93,1.836c-0.393,0.513-0.867,0.922-1.408,1.216c-0.537,0.292-1.146,0.439-1.809,0.439
				c-0.812,0-1.545-0.204-2.18-0.609c-0.643-0.408-1.195-0.99-1.639-1.725c-0.453-0.749-0.805-1.659-1.045-2.705
				c-0.242-1.05-0.365-2.214-0.365-3.457c0-0.868,0.125-1.655,0.367-2.34c0.246-0.686,0.574-1.272,0.975-1.746
				c0.4-0.47,0.867-0.833,1.391-1.08C286.289,8.828,286.834,8.704,287.387,8.704z"/>
			<path fill="#8D2339" d="M319.9,16.666c-0.459-0.668-1.045-1.227-1.738-1.657c-0.672-0.418-1.41-0.776-2.195-1.057
				c-0.744-0.266-1.455-0.548-2.115-0.841c-0.627-0.277-1.156-0.603-1.568-0.965c-0.371-0.328-0.553-0.755-0.553-1.303
				c0-0.722,0.24-1.243,0.732-1.589c0.52-0.365,1.168-0.549,1.922-0.549c0.977,0,1.764,0.198,2.336,0.588
				c0.572,0.393,1.049,1.057,1.414,1.958c0.051,0.15,0.148,0.292,0.291,0.426c0.268,0.243,0.824,0.288,1.307,0.126l0.256-0.086
				l-0.053-0.265c-0.1-0.499-0.189-1.076-0.268-1.712c-0.074-0.639-0.131-1.212-0.166-1.722l-0.012-0.195l-0.184-0.071
				c-0.936-0.364-1.787-0.629-2.529-0.786c-1.658-0.351-3.391-0.319-4.676,0.168c-0.713,0.27-1.33,0.643-1.836,1.104
				c-0.512,0.468-0.904,1.024-1.168,1.654c-0.264,0.627-0.398,1.314-0.398,2.04c0,1.091,0.232,1.977,0.686,2.636
				c0.443,0.642,1,1.176,1.66,1.581c0.635,0.393,1.34,0.724,2.096,0.983c0.717,0.246,1.393,0.512,2.006,0.787
				c0.59,0.269,1.086,0.604,1.48,0.996c0.363,0.365,0.541,0.862,0.541,1.523c0,0.307-0.055,0.602-0.162,0.899
				c-0.105,0.283-0.262,0.531-0.471,0.74c-0.209,0.209-0.486,0.381-0.82,0.51c-0.34,0.132-0.762,0.199-1.252,0.199
				c-0.59,0-1.109-0.064-1.549-0.194c-0.43-0.124-0.812-0.327-1.139-0.6c-0.33-0.272-0.627-0.635-0.885-1.076
				c-0.264-0.452-0.506-1.001-0.723-1.637c-0.092-0.247-0.209-0.423-0.359-0.537c-0.307-0.232-0.924-0.223-1.354-0.053l-0.238,0.095
				l0.051,0.25c0.137,0.666,0.26,1.352,0.371,2.058c0.109,0.701,0.191,1.422,0.242,2.146l0.012,0.176l0.158,0.077
				c0.6,0.294,1.363,0.569,2.268,0.815c0.914,0.25,1.963,0.377,3.117,0.377c1.062,0,1.992-0.149,2.762-0.446
				c0.773-0.296,1.424-0.699,1.932-1.198c0.512-0.503,0.891-1.091,1.129-1.749c0.234-0.648,0.354-1.324,0.354-2.01
				C320.611,18.232,320.371,17.35,319.9,16.666z"/>
		</g>
		<g>
			<g>
				<path fill="#8D2339" d="M114.677,63.778v6.202h3.63c0.326,0,0.548-0.132,0.669-0.398c0.119-0.266,0.223-0.698,0.309-1.299
					c0.017-0.14,0.068-0.228,0.155-0.271c0.085-0.044,0.196-0.065,0.333-0.065c0.052,0,0.133,0.006,0.246,0.013
					c0.111,0.009,0.192,0.021,0.243,0.04c-0.034,0.393-0.063,0.853-0.089,1.376c-0.026,0.523-0.041,0.965-0.041,1.325
					c0,0.308,0.009,0.674,0.027,1.094c0.016,0.42,0.052,0.896,0.103,1.429c-0.051,0.034-0.132,0.056-0.243,0.063
					c-0.113,0.009-0.194,0.013-0.246,0.013c-0.308,0-0.471-0.119-0.488-0.358c-0.103-0.652-0.219-1.095-0.349-1.327
					c-0.128-0.231-0.338-0.347-0.629-0.347h-3.63v5.764c0,0.361,0.224,0.601,0.67,0.722c0.446,0.121,1.201,0.181,2.266,0.181h1.08
					c0.514,0,0.948-0.068,1.3-0.205c0.353-0.14,0.664-0.331,0.939-0.579c0.275-0.25,0.516-0.541,0.721-0.877
					c0.205-0.334,0.412-0.708,0.618-1.12c0.051-0.119,0.171-0.179,0.36-0.179c0.086,0,0.189,0.025,0.308,0.076
					c0.12,0.054,0.241,0.103,0.361,0.156c-0.035,0.136-0.073,0.265-0.115,0.385c-0.043,0.119-0.082,0.242-0.117,0.361
					c-0.086,0.188-0.153,0.396-0.205,0.617c-0.052,0.223-0.103,0.402-0.155,0.541c-0.034,0.17-0.072,0.365-0.116,0.579
					c-0.042,0.213-0.086,0.419-0.129,0.618c-0.043,0.196-0.085,0.371-0.128,0.527c-0.043,0.152-0.072,0.256-0.089,0.308
					c-0.069,0.137-0.207,0.205-0.413,0.205c-0.137,0-0.334-0.009-0.592-0.025c-0.257-0.018-0.536-0.028-0.836-0.038
					s-0.604-0.022-0.914-0.039c-0.308-0.017-0.576-0.026-0.798-0.026h-5.842c-0.498,0-1.068,0.016-1.712,0.039
					c-0.644,0.026-1.223,0.058-1.737,0.09c-0.034-0.068-0.05-0.157-0.05-0.27c0-0.11,0-0.194,0-0.243
					c0-0.26,0.086-0.396,0.256-0.413c0.652-0.119,1.122-0.248,1.403-0.386c0.284-0.138,0.426-0.377,0.426-0.72V64.421
					c0-0.172-0.027-0.312-0.079-0.424c-0.051-0.112-0.15-0.206-0.295-0.284c-0.146-0.076-0.333-0.146-0.566-0.205
					c-0.23-0.06-0.527-0.124-0.888-0.192c-0.17-0.053-0.256-0.206-0.256-0.463c0-0.088,0-0.169,0-0.244
					c0-0.079,0.016-0.159,0.05-0.245c0.738,0.051,1.39,0.086,1.956,0.103c0.567,0.017,1.055,0.025,1.467,0.025h5.277
					c0.772,0,1.436-0.025,1.993-0.077c0.558-0.051,0.94-0.077,1.146-0.077c0.19,0,0.326,0.077,0.412,0.231
					c0.052,0.137,0.095,0.391,0.129,0.76c0.033,0.368,0.094,0.751,0.18,1.144c0.051,0.293,0.111,0.577,0.18,0.851
					c0.069,0.274,0.172,0.609,0.31,1.003c-0.086,0.036-0.18,0.069-0.284,0.104c-0.103,0.035-0.205,0.052-0.309,0.052
					c-0.188,0-0.324-0.076-0.411-0.232c-0.207-0.444-0.408-0.827-0.604-1.144c-0.198-0.318-0.422-0.574-0.669-0.773
					c-0.25-0.196-0.541-0.338-0.876-0.423c-0.333-0.086-0.732-0.13-1.195-0.13H114.677z"/>
				<path fill="#8D2339" d="M109.311,79.508l-0.046-0.092c-0.047-0.09-0.067-0.2-0.067-0.338v-0.243c0-0.458,0.247-0.55,0.395-0.564
					c0.62-0.115,1.08-0.24,1.35-0.371c0.232-0.114,0.34-0.298,0.34-0.583V64.421c0-0.146-0.022-0.269-0.063-0.359
					c-0.038-0.08-0.114-0.152-0.228-0.213c-0.138-0.072-0.318-0.137-0.534-0.192c-0.229-0.06-0.526-0.123-0.878-0.19
					c-0.184-0.055-0.381-0.201-0.381-0.613v-0.244c0-0.1,0.019-0.197,0.062-0.302l0.042-0.104l0.11,0.008
					c0.783,0.055,1.422,0.088,1.95,0.103c0.565,0.017,1.052,0.025,1.462,0.025h5.277c0.782,0,1.43-0.025,1.979-0.076
					c0.585-0.053,0.954-0.078,1.159-0.078c0.245,0,0.434,0.108,0.546,0.312c0.066,0.17,0.111,0.432,0.147,0.818
					c0.033,0.361,0.094,0.74,0.177,1.127c0.052,0.299,0.112,0.581,0.179,0.845c0.067,0.271,0.171,0.604,0.306,0.991l0.048,0.137
					l-0.136,0.056c-0.088,0.035-0.186,0.068-0.291,0.105c-0.117,0.039-0.237,0.06-0.359,0.06c-0.243,0-0.433-0.107-0.545-0.312
					c-0.205-0.444-0.407-0.823-0.602-1.139c-0.184-0.296-0.397-0.545-0.634-0.733c-0.229-0.183-0.507-0.314-0.818-0.396
					c-0.319-0.082-0.71-0.124-1.157-0.124h-3.271v5.896h3.477c0.266,0,0.435-0.098,0.529-0.309c0.113-0.252,0.214-0.675,0.297-1.257
					c0.022-0.188,0.103-0.319,0.238-0.385c0.106-0.056,0.238-0.083,0.401-0.083c0.055,0,0.138,0.006,0.255,0.013
					c0.139,0.012,0.223,0.027,0.285,0.047l0.113,0.041l-0.009,0.118c-0.036,0.389-0.066,0.851-0.09,1.37
					c-0.026,0.519-0.041,0.961-0.041,1.318c0,0.306,0.009,0.67,0.027,1.087c0.015,0.409,0.051,0.887,0.101,1.421l0.01,0.091
					l-0.075,0.051c-0.076,0.05-0.18,0.08-0.319,0.09c-0.118,0.009-0.203,0.013-0.257,0.013c-0.527,0-0.628-0.314-0.641-0.502
					c-0.098-0.617-0.209-1.046-0.33-1.263c-0.1-0.183-0.258-0.268-0.495-0.268h-3.477v5.61c0,0.182,0.058,0.44,0.558,0.572
					c0.428,0.117,1.176,0.177,2.225,0.177h1.08c0.492,0,0.91-0.065,1.244-0.195c0.34-0.134,0.631-0.312,0.892-0.55
					c0.264-0.238,0.496-0.521,0.693-0.843c0.203-0.329,0.408-0.703,0.612-1.107c0.048-0.116,0.18-0.265,0.497-0.265
					c0.105,0,0.227,0.028,0.369,0.088l0.48,0.209l-0.032,0.127c-0.037,0.139-0.076,0.273-0.119,0.396
					c-0.043,0.117-0.081,0.236-0.113,0.354c-0.089,0.198-0.154,0.397-0.204,0.61c-0.052,0.226-0.106,0.413-0.161,0.559l-0.109,0.557
					c-0.043,0.214-0.086,0.421-0.129,0.621c-0.044,0.199-0.086,0.376-0.13,0.534c-0.043,0.156-0.075,0.26-0.091,0.314
					c-0.078,0.154-0.227,0.312-0.559,0.312c-0.139,0-0.341-0.009-0.601-0.026c-0.257-0.017-0.533-0.027-0.833-0.037
					c-0.301-0.01-0.607-0.022-0.916-0.039c-0.305-0.017-0.57-0.026-0.791-0.026h-5.842c-0.463,0-1.006,0.013-1.706,0.039
					c-0.642,0.026-1.22,0.058-1.733,0.09L109.311,79.508z M112.851,79.066h5.842c0.226,0,0.494,0.009,0.807,0.025
					c0.308,0.017,0.611,0.029,0.91,0.039c0.302,0.01,0.582,0.021,0.841,0.038c0.253,0.017,0.447,0.025,0.582,0.025
					c0.193,0,0.25-0.068,0.276-0.121c0.006-0.028,0.036-0.131,0.079-0.281c0.042-0.152,0.085-0.323,0.126-0.518
					c0.043-0.197,0.086-0.402,0.129-0.614l0.115-0.58c0.055-0.156,0.105-0.332,0.155-0.545c0.053-0.233,0.126-0.451,0.217-0.646
					c0.025-0.1,0.067-0.226,0.11-0.35c0.027-0.077,0.053-0.161,0.078-0.246l-0.241-0.104c-0.099-0.042-0.183-0.063-0.246-0.063
					c-0.183,0-0.211,0.065-0.219,0.087c-0.21,0.423-0.42,0.803-0.628,1.14c-0.211,0.345-0.462,0.651-0.748,0.91
					c-0.285,0.257-0.617,0.462-0.987,0.607c-0.37,0.144-0.826,0.217-1.355,0.217h-1.08c-1.092,0-1.846-0.061-2.306-0.188
					c-0.646-0.172-0.782-0.567-0.782-0.868v-5.917h3.783c0.346,0,0.611,0.146,0.764,0.427c0.139,0.25,0.258,0.699,0.365,1.376
					c0.006,0.088,0.017,0.229,0.337,0.229c0.049,0,0.127-0.004,0.234-0.013c0.038-0.001,0.068-0.006,0.091-0.011
					c-0.045-0.493-0.076-0.937-0.092-1.323c-0.018-0.421-0.027-0.788-0.027-1.099c0-0.362,0.014-0.81,0.041-1.333
					c0.023-0.465,0.049-0.883,0.079-1.246c-0.028-0.003-0.058-0.007-0.094-0.009c-0.104-0.007-0.183-0.013-0.232-0.013
					c-0.111,0-0.203,0.017-0.264,0.049c-0.015,0.007-0.057,0.027-0.072,0.151c-0.089,0.622-0.194,1.062-0.321,1.345
					c-0.147,0.318-0.426,0.488-0.81,0.488h-3.783v-6.509h3.577c0.474,0,0.89,0.045,1.233,0.134c0.355,0.091,0.669,0.243,0.933,0.451
					c0.265,0.214,0.502,0.486,0.706,0.814c0.2,0.324,0.407,0.713,0.612,1.159c0.089,0.16,0.319,0.174,0.534,0.101
					c0.047-0.017,0.094-0.032,0.138-0.049c-0.114-0.337-0.203-0.631-0.264-0.877c-0.068-0.27-0.13-0.559-0.183-0.86
					c-0.086-0.392-0.148-0.782-0.181-1.156c-0.042-0.441-0.089-0.634-0.12-0.719c-0.05-0.086-0.136-0.133-0.269-0.133
					c-0.194,0-0.565,0.025-1.131,0.076c-0.558,0.053-1.215,0.078-2.007,0.078h-5.277c-0.412,0-0.902-0.009-1.471-0.025
					c-0.506-0.015-1.109-0.047-1.841-0.095c-0.006,0.027-0.009,0.056-0.009,0.084v0.244c0,0.271,0.108,0.303,0.148,0.315
					c0.345,0.064,0.645,0.131,0.883,0.191c0.237,0.061,0.438,0.134,0.598,0.219c0.176,0.093,0.298,0.213,0.364,0.354
					c0.061,0.134,0.093,0.298,0.093,0.489v12.896c0,0.397-0.178,0.694-0.512,0.858c-0.296,0.143-0.78,0.277-1.442,0.397
					c-0.047,0.005-0.132,0.015-0.132,0.263v0.243c0,0.04,0.002,0.078,0.009,0.11c0.485-0.03,1.025-0.06,1.622-0.084
					C111.837,79.078,112.384,79.066,112.851,79.066z"/>
			</g>
			<g>
				<path fill="#8D2339" d="M136.631,79.528c-1.442,0-2.701-0.224-3.784-0.668c-1.081-0.447-1.973-1.061-2.676-1.842
					c-0.704-0.779-1.232-1.699-1.583-2.754c-0.352-1.054-0.527-2.19-0.527-3.409c0-1.013,0.171-2.032,0.514-3.063
					c0.342-1.029,0.883-1.959,1.621-2.79c0.739-0.834,1.682-1.511,2.831-2.035c1.149-0.522,2.523-0.784,4.119-0.784
					c0.875,0,1.693,0.061,2.457,0.181c0.764,0.119,1.592,0.299,2.484,0.54c0.034,0.462,0.103,1.054,0.205,1.775
					c0.103,0.721,0.249,1.424,0.438,2.11c-0.086,0.017-0.198,0.038-0.336,0.065c-0.137,0.026-0.239,0.037-0.308,0.037
					c-0.138,0-0.253-0.021-0.347-0.064c-0.095-0.043-0.16-0.132-0.193-0.27c-0.19-0.565-0.404-1.042-0.644-1.428
					c-0.241-0.387-0.528-0.696-0.863-0.927c-0.334-0.231-0.725-0.399-1.171-0.502c-0.446-0.103-0.969-0.155-1.569-0.155
					c-0.928,0-1.748,0.16-2.458,0.477c-0.712,0.319-1.309,0.772-1.791,1.364c-0.479,0.591-0.844,1.304-1.092,2.137
					c-0.25,0.831-0.373,1.772-0.373,2.817c0,1.115,0.148,2.153,0.45,3.115c0.3,0.959,0.711,1.793,1.234,2.496
					c0.523,0.704,1.146,1.252,1.866,1.647c0.72,0.394,1.501,0.59,2.342,0.59c0.687,0,1.275-0.064,1.764-0.191
					c0.489-0.129,0.909-0.328,1.261-0.593c0.351-0.266,0.651-0.603,0.901-1.015c0.248-0.414,0.475-0.894,0.682-1.443
					c0.05-0.137,0.133-0.234,0.245-0.295c0.111-0.06,0.227-0.092,0.347-0.092c0.084,0,0.192,0.016,0.322,0.039
					c0.128,0.027,0.235,0.058,0.322,0.091c-0.103,0.292-0.21,0.623-0.322,0.992c-0.113,0.367-0.227,0.746-0.349,1.131
					c-0.119,0.386-0.227,0.771-0.32,1.158c-0.094,0.387-0.176,0.759-0.245,1.119c-0.84,0.154-1.699,0.268-2.574,0.334
					C138.639,79.495,137.678,79.528,136.631,79.528z"/>
				<path fill="#8D2339" d="M136.631,79.682c-1.453,0-2.746-0.229-3.842-0.68c-1.097-0.455-2.017-1.087-2.73-1.879
					c-0.715-0.793-1.258-1.738-1.616-2.811c-0.355-1.061-0.535-2.224-0.535-3.457c0-1.023,0.176-2.071,0.523-3.112
					c0.346-1.041,0.901-1.999,1.65-2.843c0.75-0.847,1.72-1.542,2.884-2.072c1.166-0.53,2.571-0.798,4.181-0.798
					c0.873,0,1.708,0.061,2.481,0.183c0.769,0.119,1.61,0.303,2.499,0.542l0.105,0.029l0.009,0.106
					c0.034,0.464,0.103,1.058,0.204,1.767c0.102,0.712,0.248,1.415,0.434,2.092l0.044,0.158l-0.498,0.098
					c-0.142,0.025-0.256,0.041-0.337,0.041c-0.161,0-0.295-0.025-0.411-0.079c-0.141-0.064-0.234-0.19-0.277-0.374
					c-0.183-0.541-0.395-1.01-0.627-1.382c-0.227-0.368-0.503-0.664-0.817-0.882c-0.318-0.22-0.696-0.381-1.12-0.479
					c-0.436-0.1-0.953-0.151-1.533-0.151c-0.898,0-1.703,0.155-2.396,0.464c-0.687,0.307-1.269,0.751-1.733,1.32
					c-0.465,0.573-0.824,1.274-1.064,2.084c-0.243,0.813-0.366,1.747-0.366,2.773c0,1.095,0.148,2.128,0.442,3.069
					c0.294,0.939,0.702,1.764,1.212,2.45c0.505,0.683,1.116,1.221,1.816,1.604c0.693,0.379,1.456,0.571,2.268,0.571
					c0.669,0,1.248-0.062,1.725-0.186c0.465-0.122,0.872-0.314,1.208-0.568c0.336-0.253,0.625-0.58,0.86-0.972
					c0.246-0.408,0.473-0.885,0.67-1.418c0.064-0.172,0.171-0.298,0.317-0.375c0.134-0.072,0.276-0.11,0.419-0.11
					c0.088,0,0.2,0.014,0.35,0.042c0.136,0.026,0.252,0.061,0.35,0.099l0.138,0.055l-0.049,0.14
					c-0.103,0.29-0.208,0.617-0.318,0.983l-0.042,0.138c-0.1,0.326-0.202,0.659-0.308,0.996c-0.125,0.399-0.229,0.775-0.319,1.149
					c-0.095,0.393-0.177,0.766-0.242,1.109l-0.021,0.104l-0.104,0.02c-0.848,0.156-1.719,0.271-2.587,0.337
					C138.663,79.647,137.687,79.682,136.631,79.682z M137.147,62.336c-1.566,0-2.929,0.26-4.055,0.771
					c-1.125,0.512-2.062,1.184-2.78,1.995c-0.723,0.813-1.257,1.736-1.59,2.737c-0.337,1.009-0.507,2.023-0.507,3.016
					c0,1.2,0.175,2.33,0.518,3.36c0.345,1.033,0.867,1.941,1.552,2.7c0.684,0.76,1.565,1.366,2.621,1.804
					c1.058,0.436,2.311,0.655,3.725,0.655c1.048,0,2.014-0.034,2.872-0.104c0.822-0.062,1.648-0.168,2.454-0.312
					c0.062-0.32,0.138-0.665,0.227-1.023c0.091-0.378,0.196-0.761,0.323-1.167c0.106-0.338,0.208-0.671,0.307-0.995l0.042-0.136
					c0.094-0.311,0.184-0.594,0.271-0.851c-0.047-0.014-0.1-0.026-0.156-0.037c-0.3-0.057-0.407-0.049-0.565,0.037
					c-0.08,0.042-0.137,0.112-0.175,0.213c-0.205,0.552-0.44,1.046-0.694,1.469c-0.257,0.425-0.573,0.781-0.939,1.059
					c-0.368,0.277-0.811,0.485-1.314,0.619c-0.503,0.131-1.109,0.196-1.803,0.196c-0.864,0-1.676-0.205-2.417-0.61
					c-0.737-0.404-1.382-0.972-1.915-1.689c-0.53-0.713-0.954-1.568-1.257-2.542c-0.304-0.969-0.458-2.033-0.458-3.16
					c0-1.057,0.128-2.02,0.379-2.862c0.252-0.848,0.63-1.584,1.121-2.189c0.494-0.606,1.115-1.081,1.845-1.406
					c0.733-0.324,1.58-0.49,2.521-0.49c0.604,0,1.143,0.054,1.603,0.159c0.462,0.106,0.874,0.284,1.224,0.526
					c0.351,0.24,0.654,0.567,0.906,0.971c0.243,0.393,0.465,0.883,0.658,1.459c0.036,0.146,0.094,0.172,0.111,0.181
					c0.074,0.034,0.17,0.05,0.284,0.05c0.043,0,0.126-0.006,0.28-0.035l0.172-0.033c-0.17-0.64-0.303-1.301-0.399-1.97
					c-0.095-0.662-0.161-1.226-0.198-1.677c-0.84-0.223-1.635-0.394-2.363-0.51C138.822,62.396,138.004,62.336,137.147,62.336z"/>
			</g>
			<g>
				<path fill="#8D2339" d="M148.11,70.855c0-1.201,0.226-2.323,0.681-3.372c0.455-1.046,1.077-1.962,1.866-2.753
					c0.79-0.789,1.712-1.412,2.766-1.866c1.056-0.454,2.184-0.682,3.385-0.682c1.235,0,2.385,0.214,3.449,0.644
					c1.063,0.43,1.985,1.028,2.766,1.802c0.78,0.771,1.395,1.69,1.841,2.752c0.444,1.065,0.669,2.224,0.669,3.476
					c0,1.203-0.229,2.329-0.682,3.385c-0.456,1.057-1.078,1.973-1.866,2.753c-0.79,0.781-1.716,1.4-2.779,1.854
					c-1.066,0.454-2.197,0.682-3.398,0.682c-1.234,0-2.385-0.213-3.449-0.645c-1.063-0.428-1.98-1.028-2.752-1.799
					c-0.774-0.774-1.382-1.686-1.828-2.741C148.332,73.287,148.11,72.127,148.11,70.855z M157.194,78.189
					c0.721,0,1.373-0.157,1.956-0.476c0.584-0.316,1.084-0.749,1.506-1.301c0.421-0.547,0.745-1.19,0.978-1.929
					c0.232-0.737,0.346-1.526,0.346-2.366c0-1.22-0.114-2.351-0.346-3.398c-0.233-1.047-0.584-1.952-1.057-2.716
					c-0.471-0.763-1.063-1.365-1.774-1.801c-0.713-0.438-1.541-0.657-2.485-0.657c-0.601,0-1.184,0.134-1.75,0.4
					c-0.565,0.265-1.064,0.651-1.491,1.158c-0.431,0.505-0.773,1.118-1.03,1.84c-0.257,0.72-0.386,1.535-0.386,2.445
					c0,1.269,0.124,2.444,0.373,3.525c0.25,1.079,0.609,2.012,1.081,2.793c0.473,0.78,1.052,1.389,1.739,1.827
					C155.539,77.972,156.319,78.189,157.194,78.189z"/>
				<path fill="#8D2339" d="M156.808,79.682c-1.253,0-2.433-0.221-3.506-0.655c-1.074-0.433-2.019-1.051-2.803-1.832
					c-0.786-0.786-1.412-1.725-1.861-2.791c-0.453-1.069-0.682-2.262-0.682-3.548c0-1.216,0.234-2.372,0.694-3.434
					c0.46-1.057,1.099-2,1.898-2.801c0.798-0.798,1.746-1.437,2.814-1.899c1.071-0.458,2.231-0.691,3.445-0.691
					c1.248,0,2.428,0.219,3.507,0.652c1.078,0.438,2.027,1.055,2.815,1.836c0.791,0.783,1.422,1.726,1.874,2.802
					c0.452,1.082,0.681,2.271,0.681,3.535c0,1.217-0.232,2.376-0.693,3.447c-0.46,1.065-1.098,2.008-1.899,2.8
					c-0.804,0.795-1.756,1.428-2.827,1.885C159.187,79.448,158.023,79.682,156.808,79.682z M156.808,62.336
					c-1.172,0-2.292,0.226-3.324,0.669c-1.033,0.445-1.948,1.062-2.718,1.833c-0.774,0.774-1.39,1.685-1.836,2.707
					c-0.442,1.021-0.667,2.136-0.667,3.311c0,1.244,0.222,2.397,0.657,3.428c0.435,1.031,1.038,1.935,1.796,2.691
					c0.755,0.757,1.664,1.35,2.701,1.768c1.037,0.42,2.177,0.633,3.391,0.633c1.174,0,2.297-0.225,3.339-0.67
					c1.034-0.44,1.954-1.054,2.73-1.82c0.772-0.765,1.389-1.675,1.833-2.705c0.444-1.03,0.671-2.149,0.671-3.324
					c0-1.223-0.223-2.373-0.658-3.417c-0.438-1.038-1.044-1.948-1.807-2.702c-0.76-0.752-1.672-1.347-2.715-1.769
					C159.159,62.549,158.017,62.336,156.808,62.336z M157.194,78.343c-0.902,0-1.718-0.228-2.424-0.679
					c-0.706-0.45-1.307-1.081-1.787-1.877c-0.477-0.789-0.847-1.744-1.1-2.838c-0.25-1.086-0.376-2.285-0.376-3.56
					c0-0.923,0.133-1.763,0.395-2.498c0.265-0.737,0.62-1.372,1.058-1.887c0.44-0.521,0.959-0.925,1.543-1.198
					c0.585-0.275,1.195-0.414,1.814-0.414c0.966,0,1.829,0.229,2.565,0.68c0.729,0.448,1.343,1.071,1.826,1.852
					c0.478,0.774,0.84,1.704,1.075,2.763c0.232,1.049,0.35,2.205,0.35,3.432c0,0.854-0.119,1.667-0.354,2.412
					c-0.237,0.754-0.575,1.418-1.002,1.977c-0.433,0.565-0.957,1.017-1.555,1.342C158.621,78.177,157.938,78.343,157.194,78.343z
					 M156.319,63.699c-0.573,0-1.14,0.129-1.685,0.385c-0.544,0.256-1.028,0.633-1.439,1.119c-0.415,0.486-0.751,1.09-1.002,1.792
					c-0.251,0.701-0.377,1.506-0.377,2.395c0,1.251,0.124,2.427,0.37,3.489c0.244,1.063,0.602,1.988,1.063,2.75
					c0.455,0.755,1.023,1.353,1.688,1.776c0.657,0.418,1.417,0.631,2.259,0.631c0.692,0,1.326-0.153,1.883-0.457
					c0.56-0.303,1.05-0.727,1.456-1.258c0.408-0.53,0.729-1.164,0.954-1.882c0.226-0.718,0.34-1.498,0.34-2.321
					c0-1.205-0.115-2.337-0.342-3.364c-0.228-1.026-0.576-1.924-1.037-2.669c-0.457-0.739-1.036-1.329-1.726-1.751
					C158.036,63.912,157.228,63.699,156.319,63.699z"/>
			</g>
			<g>
				<path fill="#8D2339" d="M184.295,73.609v-9.138c0-0.375-0.129-0.643-0.385-0.797c-0.258-0.154-0.713-0.273-1.365-0.359
					c-0.223-0.053-0.334-0.215-0.334-0.489c0-0.051,0-0.121,0-0.207c0-0.085,0.018-0.17,0.051-0.256
					c0.43,0.051,0.85,0.086,1.262,0.103s0.891,0.025,1.439,0.025c0.551,0,1.021-0.009,1.416-0.025s0.789-0.052,1.186-0.103
					c0.016,0.086,0.029,0.171,0.037,0.256c0.01,0.086,0.014,0.156,0.014,0.207c0,0.291-0.104,0.453-0.311,0.489
					c-0.564,0.086-0.949,0.205-1.156,0.359s-0.311,0.404-0.311,0.746v15.058c-0.066,0.017-0.184,0.028-0.348,0.038
					c-0.162,0.008-0.27,0.012-0.322,0.012c-0.117,0-0.248-0.029-0.385-0.089c-0.137-0.062-0.281-0.184-0.438-0.373l-10.139-12.869
					v11.119c0,0.17,0.012,0.311,0.037,0.424c0.025,0.112,0.094,0.205,0.207,0.282c0.111,0.08,0.273,0.146,0.49,0.207
					c0.213,0.06,0.502,0.124,0.861,0.192c0.086,0.018,0.156,0.056,0.219,0.115c0.061,0.062,0.088,0.185,0.088,0.374
					c0,0.119-0.016,0.265-0.051,0.437c-0.428-0.032-0.832-0.063-1.209-0.09c-0.377-0.023-0.816-0.039-1.312-0.039
					c-0.498,0-0.973,0.016-1.428,0.039c-0.455,0.026-0.873,0.058-1.248,0.09c-0.035-0.068-0.053-0.146-0.053-0.231s0-0.153,0-0.205
					c0-0.17,0.031-0.293,0.09-0.359c0.061-0.069,0.133-0.112,0.219-0.13c0.617-0.103,1.029-0.232,1.236-0.386
					c0.205-0.154,0.309-0.394,0.309-0.72V64.292c0-0.273-0.092-0.482-0.27-0.629c-0.182-0.146-0.59-0.262-1.225-0.348
					c-0.205-0.053-0.307-0.215-0.307-0.489c0-0.034,0-0.072,0-0.115c0-0.044,0.008-0.092,0.025-0.143l0.025-0.205
					c0.24,0.017,0.471,0.029,0.695,0.038c0.223,0.009,0.443,0.021,0.668,0.038c0.379,0.018,0.76,0.03,1.146,0.039
					c0.385,0.009,0.699,0.013,0.939,0.013c0.496,0,0.822,0.021,0.977,0.063c0.154,0.043,0.293,0.125,0.412,0.246L184.295,73.609z"/>
				<path fill="#8D2339" d="M185.168,79.682c-0.143,0-0.291-0.034-0.445-0.102c-0.166-0.075-0.328-0.211-0.496-0.417l-9.867-12.523
					v10.677c0,0.16,0.012,0.292,0.035,0.39c0.016,0.073,0.062,0.134,0.143,0.191c0.096,0.066,0.244,0.128,0.443,0.184
					c0.209,0.058,0.496,0.123,0.852,0.191c0.113,0.021,0.213,0.074,0.297,0.155c0.094,0.098,0.135,0.25,0.135,0.483
					c0,0.132-0.018,0.289-0.055,0.467l-0.027,0.134l-0.135-0.011c-0.43-0.032-0.832-0.063-1.207-0.09
					c-0.789-0.049-1.758-0.049-2.723,0c-0.453,0.026-0.867,0.058-1.244,0.09l-0.104,0.009l-0.045-0.094
					c-0.047-0.088-0.07-0.189-0.07-0.3v-0.205c0-0.213,0.045-0.364,0.131-0.462c0.08-0.094,0.184-0.154,0.303-0.177
					c0.738-0.123,1.045-0.263,1.174-0.358c0.164-0.125,0.246-0.321,0.246-0.598V64.292c0-0.227-0.068-0.393-0.211-0.511
					c-0.109-0.087-0.396-0.213-1.148-0.314c-0.211-0.052-0.441-0.202-0.441-0.641v-0.115c0-0.062,0.012-0.127,0.035-0.193
					l0.035-0.316l0.145,0.009c0.24,0.017,0.469,0.029,0.691,0.038c0.225,0.009,0.449,0.021,0.676,0.038
					c0.369,0.018,0.75,0.03,1.137,0.039c0.383,0.011,0.697,0.013,0.936,0.013c0.514,0,0.848,0.022,1.018,0.068
					c0.178,0.051,0.34,0.146,0.479,0.285l8.283,10.477v-8.696c0-0.321-0.102-0.54-0.311-0.665c-0.236-0.144-0.676-0.257-1.305-0.34
					c-0.184-0.042-0.469-0.177-0.469-0.641v-0.207c0-0.102,0.02-0.205,0.062-0.311l0.043-0.111l0.117,0.014
					c0.451,0.054,0.859,0.087,1.248,0.102c0.408,0.017,0.891,0.025,1.436,0.025s1.02-0.009,1.41-0.025
					c0.375-0.015,0.758-0.048,1.17-0.102l0.143-0.018l0.027,0.143c0.018,0.088,0.031,0.177,0.041,0.267
					c0.01,0.094,0.014,0.169,0.014,0.224c0,0.492-0.273,0.611-0.438,0.64c-0.541,0.082-0.906,0.193-1.09,0.332
					c-0.166,0.125-0.248,0.329-0.248,0.623v15.177l-0.115,0.029c-0.078,0.019-0.191,0.031-0.377,0.043
					C185.328,79.676,185.221,79.682,185.168,79.682z M174.053,65.757l10.414,13.215c0.133,0.163,0.262,0.275,0.381,0.328
					c0.111,0.051,0.221,0.075,0.32,0.075c0.051,0,0.152-0.004,0.309-0.012c0.084-0.005,0.154-0.01,0.209-0.017V64.421
					c0-0.392,0.125-0.684,0.371-0.868c0.227-0.171,0.629-0.299,1.227-0.39c0.051-0.009,0.178-0.029,0.178-0.337
					c0-0.047-0.004-0.111-0.01-0.193c-0.006-0.031-0.01-0.066-0.014-0.1c-0.367,0.043-0.713,0.072-1.053,0.086
					c-0.393,0.017-0.873,0.025-1.422,0.025s-1.035-0.009-1.445-0.025c-0.361-0.014-0.736-0.044-1.146-0.09
					c-0.006,0.032-0.008,0.061-0.008,0.09v0.207c0,0.256,0.109,0.315,0.215,0.339c0.668,0.088,1.133,0.212,1.41,0.378
					c0.305,0.184,0.459,0.495,0.459,0.929v9.577l-8.816-11.153c-0.092-0.09-0.207-0.158-0.332-0.193
					c-0.098-0.025-0.34-0.058-0.938-0.058c-0.242,0-0.557-0.004-0.943-0.013c-0.389-0.009-0.771-0.022-1.148-0.039
					c-0.227-0.017-0.447-0.029-0.67-0.038c-0.18-0.008-0.363-0.017-0.555-0.029l-0.006,0.063c-0.02,0.063-0.025,0.095-0.025,0.122
					v0.115c0,0.292,0.135,0.325,0.193,0.341c0.65,0.087,1.076,0.211,1.281,0.376c0.217,0.178,0.326,0.429,0.326,0.749v13.024
					c0,0.373-0.125,0.657-0.369,0.843c-0.23,0.171-0.656,0.306-1.303,0.413c-0.049,0.011-0.09,0.036-0.127,0.08
					c-0.027,0.029-0.055,0.111-0.055,0.259v0.205c0,0.024,0.002,0.048,0.006,0.069c0.348-0.029,0.725-0.057,1.135-0.081
					c0.977-0.052,1.955-0.049,2.756,0c0.34,0.024,0.697,0.052,1.076,0.08c0.016-0.103,0.023-0.195,0.023-0.273
					c0-0.212-0.041-0.263-0.045-0.268c-0.039-0.037-0.084-0.06-0.139-0.071c-0.363-0.069-0.658-0.136-0.873-0.196
					c-0.238-0.065-0.414-0.141-0.537-0.229c-0.145-0.098-0.234-0.223-0.268-0.372c-0.027-0.12-0.043-0.271-0.043-0.458V65.757z"/>
			</g>
			<g>
				<path fill="#8D2339" d="M192.582,70.855c0-1.201,0.227-2.323,0.682-3.372c0.455-1.046,1.076-1.962,1.867-2.753
					c0.789-0.789,1.711-1.412,2.766-1.866c1.057-0.454,2.184-0.682,3.385-0.682c1.234,0,2.385,0.214,3.449,0.644
					c1.062,0.43,1.986,1.028,2.766,1.802c0.779,0.771,1.395,1.69,1.842,2.752c0.445,1.065,0.668,2.224,0.668,3.476
					c0,1.203-0.229,2.329-0.682,3.385c-0.455,1.057-1.076,1.973-1.867,2.753c-0.789,0.781-1.715,1.4-2.777,1.854
					c-1.066,0.454-2.197,0.682-3.398,0.682c-1.234,0-2.385-0.213-3.449-0.645c-1.064-0.428-1.98-1.028-2.752-1.799
					c-0.773-0.774-1.383-1.686-1.828-2.741C192.805,73.287,192.582,72.127,192.582,70.855z M201.666,78.189
					c0.723,0,1.373-0.157,1.957-0.476c0.584-0.316,1.086-0.749,1.506-1.301c0.42-0.547,0.746-1.19,0.979-1.929
					c0.232-0.737,0.348-1.526,0.348-2.366c0-1.22-0.115-2.351-0.348-3.398c-0.232-1.047-0.584-1.952-1.057-2.716
					c-0.471-0.763-1.064-1.365-1.775-1.801c-0.713-0.438-1.539-0.657-2.484-0.657c-0.6,0-1.184,0.134-1.75,0.4
					c-0.564,0.265-1.062,0.651-1.49,1.158c-0.432,0.505-0.773,1.118-1.031,1.84c-0.258,0.72-0.387,1.535-0.387,2.445
					c0,1.269,0.127,2.444,0.375,3.525c0.248,1.079,0.609,2.012,1.08,2.793c0.471,0.78,1.051,1.389,1.738,1.827
					C200.012,77.972,200.791,78.189,201.666,78.189z"/>
				<path fill="#8D2339" d="M201.281,79.682c-1.254,0-2.434-0.221-3.508-0.655c-1.074-0.433-2.018-1.051-2.803-1.832
					c-0.785-0.786-1.41-1.725-1.861-2.791c-0.451-1.069-0.68-2.262-0.68-3.548c0-1.216,0.232-2.372,0.693-3.434
					c0.459-1.057,1.1-2,1.898-2.801c0.799-0.798,1.746-1.437,2.814-1.899c1.07-0.458,2.23-0.691,3.445-0.691
					c1.248,0,2.428,0.219,3.506,0.652c1.08,0.438,2.027,1.055,2.816,1.836c0.791,0.783,1.424,1.726,1.875,2.802
					c0.451,1.082,0.682,2.271,0.682,3.535c0,1.217-0.234,2.376-0.695,3.447c-0.459,1.065-1.098,2.008-1.898,2.8
					c-0.805,0.795-1.758,1.428-2.828,1.885C203.658,79.448,202.496,79.682,201.281,79.682z M201.281,62.336
					c-1.172,0-2.291,0.226-3.324,0.669c-1.033,0.445-1.947,1.062-2.717,1.833c-0.773,0.774-1.391,1.685-1.836,2.707
					c-0.443,1.021-0.67,2.136-0.67,3.311c0,1.244,0.223,2.397,0.658,3.428c0.436,1.031,1.037,1.935,1.795,2.691
					c0.756,0.757,1.664,1.35,2.703,1.768c1.035,0.42,2.178,0.633,3.391,0.633c1.174,0,2.297-0.225,3.338-0.67
					c1.035-0.44,1.955-1.054,2.73-1.82c0.771-0.765,1.389-1.675,1.832-2.705c0.445-1.03,0.672-2.149,0.672-3.324
					c0-1.223-0.223-2.373-0.658-3.417c-0.436-1.038-1.045-1.948-1.807-2.702c-0.76-0.752-1.674-1.347-2.717-1.769
					C203.631,62.549,202.49,62.336,201.281,62.336z M201.666,78.343c-0.9,0-1.717-0.228-2.424-0.679
					c-0.703-0.45-1.305-1.081-1.785-1.877c-0.477-0.789-0.848-1.744-1.1-2.838c-0.25-1.086-0.377-2.285-0.377-3.56
					c0-0.923,0.133-1.763,0.395-2.498c0.266-0.737,0.619-1.372,1.059-1.887c0.441-0.521,0.959-0.925,1.543-1.198
					c0.586-0.275,1.197-0.414,1.814-0.414c0.967,0,1.828,0.229,2.566,0.68c0.729,0.448,1.342,1.071,1.824,1.852
					c0.479,0.774,0.84,1.704,1.074,2.763c0.232,1.049,0.35,2.205,0.35,3.432c0,0.854-0.119,1.667-0.354,2.412
					c-0.236,0.754-0.572,1.418-1.002,1.977c-0.432,0.565-0.955,1.017-1.553,1.342C203.094,78.177,202.41,78.343,201.666,78.343z
					 M200.791,63.699c-0.572,0-1.141,0.129-1.686,0.385c-0.541,0.256-1.027,0.633-1.439,1.119c-0.414,0.486-0.75,1.09-1.002,1.792
					c-0.25,0.701-0.377,1.506-0.377,2.395c0,1.251,0.123,2.427,0.369,3.489c0.244,1.063,0.602,1.988,1.064,2.75
					c0.453,0.755,1.023,1.353,1.688,1.776c0.656,0.418,1.418,0.631,2.258,0.631c0.693,0,1.326-0.153,1.885-0.457
					c0.559-0.303,1.049-0.727,1.457-1.258c0.406-0.53,0.727-1.164,0.953-1.882c0.225-0.718,0.34-1.498,0.34-2.321
					c0-1.205-0.117-2.337-0.344-3.364c-0.229-1.026-0.576-1.924-1.035-2.669c-0.457-0.739-1.037-1.329-1.725-1.751
					C202.508,63.912,201.699,63.699,200.791,63.699z"/>
			</g>
			<g>
				<path fill="#8D2339" d="M231.471,62.981c0.068-0.155,0.18-0.276,0.334-0.362c0.154-0.085,0.531-0.128,1.133-0.128
					c0.137,0,0.338-0.004,0.604-0.013c0.268-0.009,0.555-0.017,0.863-0.026c0.309-0.008,0.617-0.021,0.926-0.038
					s0.574-0.034,0.797-0.051c0.035,0.086,0.053,0.171,0.053,0.256c0,0.086,0,0.156,0,0.207c0,0.274-0.096,0.437-0.283,0.489
					c-0.344,0.05-0.613,0.103-0.811,0.154c-0.199,0.051-0.348,0.115-0.451,0.193c-0.102,0.076-0.17,0.166-0.205,0.269
					c-0.035,0.104-0.051,0.225-0.051,0.36c0,0.035,0.014,0.361,0.039,0.979s0.062,1.381,0.115,2.29
					c0.051,0.909,0.102,1.896,0.154,2.96c0.051,1.062,0.102,2.071,0.154,3.023s0.094,1.78,0.129,2.484
					c0.033,0.703,0.061,1.132,0.076,1.287c0,0.17,0.021,0.311,0.064,0.424c0.043,0.112,0.121,0.21,0.232,0.296
					c0.111,0.087,0.27,0.159,0.477,0.219c0.205,0.061,0.471,0.115,0.797,0.167c0.189,0.034,0.283,0.196,0.283,0.489
					c0,0.119-0.018,0.265-0.051,0.437c-0.604-0.032-1.145-0.063-1.635-0.09c-0.49-0.023-1.043-0.039-1.66-0.039
					c-0.566,0-1.172,0.016-1.814,0.039c-0.645,0.026-1.18,0.058-1.609,0.09c-0.033-0.172-0.051-0.317-0.051-0.437
					c0-0.189,0.029-0.315,0.09-0.386c0.059-0.069,0.117-0.104,0.168-0.104c0.703-0.119,1.158-0.26,1.363-0.424
					s0.311-0.415,0.311-0.761c0-0.05-0.016-0.325-0.039-0.824c-0.025-0.496-0.053-1.115-0.078-1.853
					c-0.027-0.736-0.061-1.533-0.104-2.393c-0.043-0.857-0.086-1.663-0.129-2.419s-0.076-1.406-0.102-1.957
					c-0.025-0.548-0.047-0.884-0.064-1.003l-5.277,12.277c-0.086,0.152-0.156,0.271-0.217,0.348
					c-0.062,0.076-0.143,0.114-0.246,0.114c-0.033,0-0.086,0-0.154,0s-0.119-0.007-0.154-0.024l-5.971-14.31
					c-0.016,0.223-0.037,0.673-0.062,1.351c-0.027,0.678-0.062,1.455-0.105,2.329c-0.041,0.875-0.086,1.798-0.127,2.768
					c-0.045,0.969-0.082,1.863-0.117,2.688c-0.033,0.823-0.064,1.516-0.09,2.073c-0.027,0.557-0.037,0.861-0.037,0.914
					c0,0.153,0.016,0.287,0.051,0.397c0.033,0.112,0.104,0.211,0.205,0.297c0.104,0.087,0.258,0.157,0.465,0.219
					c0.205,0.06,0.488,0.124,0.848,0.192c0.188,0.034,0.283,0.196,0.283,0.489c0,0.052-0.004,0.117-0.012,0.193
					c-0.01,0.077-0.021,0.157-0.039,0.243c-0.463-0.032-0.893-0.063-1.287-0.09c-0.395-0.023-0.789-0.039-1.184-0.039
					c-0.344,0-0.773,0.016-1.289,0.039c-0.514,0.026-0.977,0.058-1.389,0.09c-0.033-0.068-0.051-0.146-0.051-0.231s0-0.153,0-0.205
					c0-0.189,0.025-0.312,0.078-0.374c0.051-0.06,0.119-0.098,0.205-0.115c0.531-0.119,0.918-0.258,1.156-0.411
					c0.242-0.155,0.379-0.385,0.414-0.694c0-0.139,0.018-0.555,0.051-1.249c0.035-0.694,0.078-1.518,0.129-2.471
					c0.051-0.952,0.102-1.966,0.154-3.037c0.053-1.072,0.1-2.067,0.143-2.985s0.076-1.685,0.102-2.303s0.039-0.944,0.039-0.979
					c0-0.291-0.094-0.501-0.283-0.629c-0.189-0.129-0.6-0.245-1.236-0.348c-0.188-0.017-0.281-0.182-0.281-0.489
					c0-0.051,0-0.121,0-0.207c0-0.085,0.016-0.17,0.051-0.256c0.223,0.017,0.531,0.033,0.926,0.051s0.799,0.03,1.211,0.038
					c0.41,0.01,0.797,0.018,1.158,0.026c0.359,0.009,0.617,0.013,0.771,0.013c0.309,0,0.549,0.014,0.721,0.038
					c0.17,0.025,0.309,0.057,0.412,0.09c0.102,0.037,0.176,0.086,0.219,0.156c0.041,0.068,0.08,0.137,0.117,0.206l4.785,11.554
					L231.471,62.981z"/>
				<path fill="#8D2339" d="M225.756,79.682h-0.154c-0.096,0-0.166-0.012-0.221-0.04l-0.051-0.025l-0.023-0.053l-5.713-13.691
					c-0.008,0.193-0.018,0.419-0.027,0.679c-0.027,0.679-0.062,1.455-0.104,2.331c-0.043,0.874-0.086,1.797-0.129,2.767
					s-0.082,1.863-0.115,2.687c-0.035,0.825-0.064,1.517-0.09,2.074c-0.027,0.553-0.039,0.854-0.039,0.907
					c0,0.14,0.014,0.258,0.045,0.353c0.025,0.084,0.076,0.156,0.156,0.225c0.086,0.07,0.223,0.134,0.408,0.188
					c0.201,0.058,0.482,0.124,0.836,0.191c0.184,0.032,0.408,0.171,0.408,0.639c0,0.057-0.006,0.126-0.016,0.21
					c-0.008,0.08-0.023,0.166-0.039,0.256l-0.025,0.135l-0.137-0.011c-0.473-0.034-0.895-0.064-1.285-0.09
					c-0.422-0.026-0.805-0.039-1.174-0.039c-0.314,0-0.723,0.013-1.281,0.039c-0.512,0.026-0.973,0.058-1.385,0.09l-0.104,0.009
					l-0.045-0.094c-0.045-0.088-0.066-0.189-0.066-0.3v-0.205c0-0.229,0.035-0.379,0.111-0.472c0.076-0.089,0.176-0.145,0.297-0.167
					c0.502-0.113,0.873-0.245,1.104-0.391c0.199-0.131,0.312-0.321,0.342-0.583c-0.002-0.115,0.014-0.48,0.049-1.239
					c0.035-0.695,0.078-1.518,0.129-2.471c0.053-0.953,0.104-1.964,0.156-3.037l0.141-2.976c0.043-0.928,0.078-1.692,0.104-2.31
					c0.025-0.615,0.039-0.938,0.039-0.975c0-0.238-0.07-0.404-0.217-0.502c-0.117-0.08-0.416-0.201-1.174-0.324
					c-0.146-0.013-0.412-0.114-0.412-0.64v-0.207c0-0.105,0.021-0.21,0.062-0.312l0.041-0.105l0.113,0.009
					c0.221,0.017,0.527,0.033,0.92,0.051c0.396,0.018,0.797,0.031,1.207,0.038l1.16,0.026c0.359,0.011,0.615,0.013,0.768,0.013
					c0.312,0,0.562,0.014,0.742,0.039c0.174,0.027,0.32,0.059,0.438,0.097c0.143,0.051,0.24,0.122,0.303,0.221
					c0.043,0.072,0.086,0.145,0.121,0.219l4.652,11.226l4.746-11.218c0.082-0.187,0.219-0.331,0.402-0.436
					c0.115-0.063,0.365-0.147,1.207-0.147c0.135,0,0.334-0.002,0.598-0.013l0.865-0.026c0.309-0.007,0.615-0.021,0.922-0.038
					c0.309-0.018,0.572-0.034,0.793-0.051l0.113-0.009l0.043,0.105c0.039,0.103,0.061,0.207,0.061,0.312v0.207
					c0,0.436-0.215,0.588-0.395,0.636c-0.354,0.056-0.621,0.105-0.812,0.156c-0.178,0.045-0.311,0.101-0.396,0.167
					c-0.08,0.059-0.129,0.123-0.154,0.196c-0.029,0.085-0.043,0.19-0.043,0.311c0,0.037,0.014,0.359,0.037,0.975
					c0.027,0.615,0.066,1.378,0.117,2.287c0.051,0.908,0.104,1.896,0.154,2.96c0.051,1.064,0.104,2.07,0.154,3.022
					s0.094,1.781,0.131,2.485c0.029,0.663,0.057,1.118,0.074,1.277c0.002,0.169,0.02,0.292,0.055,0.387
					c0.033,0.086,0.094,0.161,0.182,0.23c0.098,0.072,0.238,0.139,0.426,0.191c0.195,0.057,0.451,0.11,0.779,0.165
					c0.191,0.032,0.412,0.171,0.412,0.639c0,0.132-0.018,0.289-0.055,0.467l-0.025,0.131l-1.766-0.098
					c-0.516-0.025-1.074-0.039-1.652-0.039c-0.525,0-1.117,0.013-1.809,0.039c-0.617,0.025-1.158,0.055-1.604,0.09l-0.133,0.011
					l-0.027-0.134c-0.037-0.178-0.055-0.335-0.055-0.467c0-0.23,0.039-0.386,0.125-0.485c0.09-0.104,0.186-0.157,0.285-0.157
					c0.814-0.141,1.143-0.29,1.27-0.39c0.168-0.135,0.25-0.346,0.25-0.642c0-0.05-0.012-0.322-0.039-0.815
					c-0.025-0.499-0.053-1.117-0.078-1.856c-0.025-0.735-0.059-1.531-0.102-2.391c-0.043-0.855-0.086-1.662-0.129-2.418
					c-0.043-0.755-0.076-1.407-0.104-1.957c-0.006-0.143-0.012-0.267-0.018-0.372l-5.027,11.7c-0.107,0.188-0.178,0.303-0.238,0.38
					C226.031,79.622,225.904,79.682,225.756,79.682z M225.559,79.373c0.012,0.002,0.027,0.002,0.043,0.002h0.154
					c0.057,0,0.094-0.017,0.127-0.058c0.047-0.063,0.113-0.167,0.203-0.327l5.484-12.765l0.078,0.542
					c0.018,0.128,0.039,0.471,0.064,1.018c0.025,0.55,0.061,1.2,0.104,1.955c0.043,0.756,0.086,1.562,0.129,2.421
					s0.076,1.657,0.102,2.395c0.025,0.736,0.053,1.354,0.078,1.852c0.025,0.502,0.039,0.78,0.039,0.83
					c0,0.39-0.123,0.687-0.365,0.882c-0.23,0.18-0.699,0.329-1.436,0.453c-0.02,0.002-0.041,0.009-0.076,0.054
					c-0.014,0.014-0.055,0.076-0.055,0.285c0,0.078,0.01,0.171,0.025,0.274c0.422-0.03,0.916-0.058,1.477-0.081
					c0.695-0.026,1.291-0.038,1.82-0.038c0.584,0,1.145,0.013,1.668,0.038l1.5,0.084c0.016-0.105,0.023-0.199,0.023-0.277
					c0-0.311-0.113-0.331-0.156-0.339c-0.34-0.055-0.605-0.11-0.814-0.171c-0.225-0.065-0.398-0.146-0.525-0.242
					c-0.135-0.104-0.229-0.227-0.281-0.363c-0.049-0.129-0.074-0.292-0.074-0.479c-0.018-0.153-0.045-0.601-0.076-1.28
					c-0.035-0.704-0.08-1.531-0.131-2.484c-0.051-0.951-0.102-1.96-0.154-3.023c-0.051-1.062-0.104-2.049-0.154-2.958
					s-0.09-1.674-0.117-2.293c-0.023-0.622-0.037-0.95-0.037-0.985c0-0.153,0.02-0.291,0.061-0.408
					c0.043-0.133,0.133-0.248,0.26-0.343c0.119-0.091,0.283-0.163,0.502-0.22c0.201-0.053,0.48-0.106,0.828-0.158
					c0.029-0.009,0.152-0.042,0.152-0.337v-0.207c0-0.03-0.004-0.063-0.012-0.095c-0.195,0.015-0.422,0.027-0.678,0.042
					c-0.309,0.019-0.621,0.031-0.93,0.039l-0.861,0.026c-0.268,0.009-0.471,0.013-0.609,0.013c-0.748,0-0.984,0.068-1.059,0.109
					c-0.127,0.07-0.213,0.164-0.27,0.289l-5.031,11.889l-4.926-11.892c-0.027-0.056-0.066-0.12-0.105-0.185
					c-0.023-0.036-0.068-0.067-0.139-0.092c-0.098-0.03-0.23-0.061-0.385-0.082c-0.164-0.024-0.398-0.037-0.697-0.037
					c-0.154,0-0.414-0.004-0.775-0.013l-1.158-0.026c-0.412-0.008-0.818-0.021-1.213-0.039c-0.33-0.015-0.6-0.027-0.809-0.042
					c-0.006,0.031-0.01,0.063-0.01,0.095v0.207c0,0.324,0.107,0.333,0.145,0.337c0.674,0.108,1.098,0.229,1.307,0.372
					c0.232,0.159,0.352,0.413,0.352,0.757c0,0.035-0.014,0.363-0.039,0.985c-0.025,0.617-0.061,1.387-0.104,2.304l-0.141,2.985
					c-0.053,1.072-0.104,2.086-0.156,3.039c-0.051,0.953-0.094,1.776-0.129,2.468c-0.035,0.745-0.051,1.118-0.051,1.243
					c-0.041,0.37-0.201,0.642-0.48,0.822c-0.26,0.165-0.666,0.311-1.209,0.434c-0.057,0.011-0.094,0.03-0.121,0.064
					c-0.004,0.003-0.043,0.057-0.043,0.274v0.205c0,0.025,0.002,0.048,0.006,0.069c0.383-0.029,0.809-0.057,1.273-0.081
					c0.566-0.026,0.979-0.038,1.297-0.038c0.375,0,0.766,0.013,1.193,0.038c0.355,0.024,0.738,0.052,1.15,0.081
					c0.004-0.034,0.01-0.065,0.014-0.098c0.006-0.069,0.012-0.129,0.012-0.177c0-0.311-0.115-0.331-0.158-0.339
					c-0.365-0.069-0.654-0.136-0.865-0.196c-0.229-0.067-0.398-0.148-0.518-0.248c-0.127-0.106-0.213-0.23-0.256-0.37
					c-0.037-0.12-0.057-0.27-0.057-0.441c0-0.053,0.014-0.359,0.039-0.921c0.025-0.559,0.055-1.249,0.09-2.073
					c0.035-0.823,0.072-1.719,0.115-2.688s0.086-1.892,0.129-2.768c0.043-0.874,0.076-1.649,0.104-2.328
					c0.023-0.653,0.047-1.123,0.062-1.355l0.295-0.048L225.559,79.373z"/>
			</g>
			<g>
				<path fill="#8D2339" d="M247.607,77.316c0,0.17,0.012,0.311,0.037,0.424c0.027,0.112,0.096,0.21,0.205,0.296
					c0.111,0.087,0.275,0.159,0.49,0.219c0.215,0.061,0.502,0.115,0.863,0.167c0.17,0.034,0.256,0.18,0.256,0.438
					c0,0.051-0.004,0.127-0.012,0.23c-0.01,0.103-0.023,0.188-0.039,0.257c-0.549-0.032-1.137-0.063-1.764-0.09
					c-0.625-0.023-1.18-0.039-1.66-0.039c-0.498,0-1.055,0.016-1.672,0.039c-0.619,0.026-1.201,0.058-1.75,0.09
					c-0.035-0.068-0.053-0.154-0.053-0.257c0-0.104,0-0.18,0-0.23c0-0.275,0.086-0.421,0.258-0.438
					c0.359-0.052,0.648-0.106,0.863-0.167c0.213-0.06,0.373-0.132,0.475-0.219c0.104-0.086,0.172-0.184,0.207-0.296
					c0.033-0.113,0.051-0.254,0.051-0.424V64.421c0-0.172-0.018-0.312-0.051-0.424c-0.035-0.112-0.104-0.209-0.207-0.296
					c-0.102-0.086-0.262-0.159-0.475-0.219c-0.215-0.061-0.504-0.117-0.863-0.167c-0.172-0.053-0.258-0.198-0.258-0.438
					c0-0.052,0-0.129,0-0.232c0-0.103,0.018-0.196,0.053-0.282c0.549,0.033,1.131,0.063,1.75,0.089
					c0.617,0.026,1.174,0.039,1.672,0.039c0.48,0,1.035-0.013,1.66-0.039c0.627-0.025,1.215-0.056,1.764-0.089
					c0.016,0.086,0.029,0.18,0.039,0.282c0.008,0.104,0.012,0.181,0.012,0.232c0,0.239-0.086,0.385-0.256,0.438
					c-0.361,0.05-0.648,0.106-0.863,0.167c-0.215,0.06-0.379,0.133-0.49,0.219c-0.109,0.087-0.178,0.184-0.205,0.296
					c-0.025,0.111-0.037,0.252-0.037,0.424V77.316z"/>
				<path fill="#8D2339" d="M249.527,79.509l-0.129-0.008c-0.549-0.032-1.135-0.063-1.76-0.09c-0.68-0.026-1.207-0.039-1.654-0.039
					c-0.463,0-0.992,0.013-1.668,0.039c-0.615,0.026-1.197,0.058-1.746,0.09l-0.1,0.007l-0.045-0.092
					c-0.047-0.09-0.068-0.197-0.068-0.325v-0.23c0-0.48,0.248-0.575,0.396-0.59c0.354-0.053,0.631-0.106,0.836-0.163
					c0.193-0.053,0.334-0.116,0.418-0.188c0.082-0.068,0.133-0.141,0.156-0.225c0.031-0.096,0.045-0.223,0.045-0.379V64.421
					c0-0.155-0.014-0.283-0.043-0.379c-0.025-0.082-0.076-0.155-0.158-0.224c-0.086-0.071-0.227-0.135-0.418-0.189
					c-0.207-0.057-0.482-0.111-0.844-0.162c-0.158-0.047-0.389-0.177-0.389-0.589v-0.232c0-0.124,0.02-0.234,0.062-0.339
					l0.041-0.103l0.109,0.006c0.549,0.033,1.131,0.063,1.746,0.089c0.615,0.026,1.178,0.039,1.668,0.039
					c0.477,0,1.033-0.013,1.654-0.039c0.625-0.025,1.211-0.056,1.76-0.089l0.135-0.009l0.025,0.135
					c0.018,0.09,0.031,0.188,0.041,0.297s0.014,0.189,0.014,0.245c0,0.412-0.23,0.542-0.367,0.584
					c-0.385,0.056-0.66,0.11-0.863,0.167c-0.195,0.055-0.344,0.121-0.439,0.194c-0.082,0.063-0.131,0.132-0.148,0.209
					c-0.023,0.1-0.035,0.231-0.035,0.389v12.896c0,0.156,0.012,0.287,0.035,0.391c0.018,0.075,0.066,0.145,0.148,0.209
					c0.096,0.071,0.242,0.137,0.438,0.191c0.205,0.057,0.48,0.11,0.844,0.163c0.15,0.029,0.389,0.143,0.389,0.59
					c0,0.053-0.004,0.136-0.014,0.244c-0.01,0.11-0.023,0.205-0.043,0.28L249.527,79.509z M242.674,62.524
					c-0.006,0.038-0.01,0.078-0.01,0.121v0.232c0,0.246,0.104,0.276,0.148,0.29c0.354,0.05,0.643,0.105,0.859,0.167
					c0.236,0.066,0.41,0.147,0.533,0.25c0.127,0.105,0.213,0.229,0.254,0.367c0.039,0.126,0.057,0.279,0.057,0.469v12.896
					c0,0.188-0.018,0.343-0.057,0.469c-0.041,0.139-0.127,0.263-0.254,0.369c-0.121,0.101-0.295,0.182-0.533,0.247
					c-0.217,0.061-0.506,0.118-0.881,0.173c-0.037,0.003-0.127,0.013-0.127,0.286v0.23c0,0.035,0.002,0.068,0.008,0.098
					c0.514-0.03,1.061-0.059,1.635-0.084c0.678-0.026,1.211-0.038,1.678-0.038c0.451,0,0.98,0.012,1.666,0.038
					c0.576,0.024,1.121,0.054,1.631,0.083c0.004-0.033,0.01-0.071,0.012-0.109c0.01-0.099,0.014-0.171,0.014-0.218
					c0-0.263-0.098-0.28-0.135-0.288c-0.369-0.053-0.656-0.11-0.871-0.171c-0.238-0.065-0.416-0.146-0.543-0.243
					c-0.141-0.107-0.229-0.235-0.262-0.384c-0.029-0.126-0.043-0.28-0.043-0.458V64.421c0-0.18,0.014-0.334,0.043-0.457
					c0.033-0.147,0.123-0.275,0.262-0.384c0.127-0.099,0.305-0.179,0.543-0.245c0.215-0.062,0.504-0.117,0.879-0.172
					c0.023-0.009,0.127-0.039,0.127-0.285c0-0.05-0.004-0.12-0.012-0.218c-0.006-0.049-0.01-0.093-0.018-0.136
					c-0.508,0.03-1.051,0.059-1.627,0.081c-0.623,0.026-1.184,0.039-1.666,0.039c-0.496,0-1.061-0.013-1.678-0.039
					C243.732,62.581,243.189,62.554,242.674,62.524z"/>
			</g>
			<g>
				<path fill="#8D2339" d="M266.086,66.66c-0.154,0.052-0.318,0.077-0.49,0.077c-0.24,0-0.412-0.047-0.514-0.141
					c-0.104-0.095-0.172-0.192-0.207-0.296c-0.395-0.979-0.904-1.684-1.531-2.111c-0.627-0.429-1.463-0.644-2.51-0.644
					c-0.822,0-1.521,0.202-2.096,0.605c-0.576,0.403-0.863,1.018-0.863,1.841c0,0.635,0.221,1.145,0.656,1.531
					c0.438,0.386,0.988,0.724,1.648,1.016c0.658,0.292,1.371,0.575,2.137,0.851c0.762,0.275,1.473,0.617,2.135,1.029
					c0.66,0.41,1.209,0.935,1.648,1.569c0.436,0.634,0.654,1.45,0.654,2.444c0,0.652-0.111,1.287-0.336,1.904
					c-0.221,0.619-0.574,1.164-1.053,1.635c-0.48,0.473-1.09,0.851-1.828,1.133c-0.738,0.283-1.621,0.424-2.65,0.424
					c-1.133,0-2.146-0.122-3.037-0.366c-0.893-0.242-1.631-0.507-2.213-0.795c-0.053-0.735-0.135-1.46-0.244-2.171
					c-0.111-0.711-0.236-1.402-0.375-2.072c0.172-0.067,0.369-0.104,0.594-0.104c0.205,0,0.359,0.038,0.463,0.117
					c0.102,0.076,0.188,0.21,0.256,0.397c0.225,0.653,0.473,1.216,0.748,1.688c0.273,0.471,0.592,0.856,0.951,1.155
					c0.361,0.302,0.777,0.52,1.25,0.657c0.471,0.138,1.016,0.207,1.633,0.207c0.531,0,0.986-0.075,1.365-0.221
					c0.375-0.146,0.686-0.34,0.926-0.579c0.238-0.242,0.42-0.524,0.541-0.853c0.119-0.324,0.18-0.66,0.18-1.005
					c0-0.737-0.211-1.319-0.631-1.74c-0.422-0.419-0.945-0.772-1.57-1.055c-0.627-0.283-1.305-0.551-2.033-0.8
					c-0.729-0.25-1.406-0.566-2.033-0.953c-0.625-0.388-1.148-0.886-1.568-1.496c-0.422-0.609-0.631-1.431-0.631-2.461
					c0-0.688,0.123-1.328,0.373-1.923c0.248-0.59,0.613-1.107,1.092-1.546c0.482-0.437,1.061-0.784,1.74-1.044
					c0.676-0.258,1.453-0.386,2.328-0.386c0.721,0,1.445,0.078,2.174,0.231c0.729,0.154,1.559,0.412,2.484,0.772
					c0.033,0.515,0.09,1.094,0.168,1.736C265.893,65.566,265.982,66.146,266.086,66.66z"/>
				<path fill="#8D2339" d="M260.887,79.682c-1.141,0-2.176-0.125-3.076-0.372c-0.896-0.243-1.65-0.513-2.242-0.805l-0.078-0.04
					l-0.008-0.088c-0.049-0.729-0.133-1.455-0.24-2.157c-0.113-0.709-0.238-1.403-0.373-2.065l-0.025-0.127l0.119-0.047
					c0.191-0.075,0.41-0.113,0.648-0.113c0.244,0,0.426,0.049,0.557,0.148c0.123,0.094,0.225,0.246,0.307,0.465
					c0.221,0.645,0.467,1.202,0.736,1.665c0.264,0.454,0.572,0.829,0.916,1.115c0.34,0.284,0.74,0.496,1.195,0.629
					s0.992,0.2,1.59,0.2c0.51,0,0.949-0.071,1.309-0.209c0.355-0.139,0.646-0.32,0.875-0.546c0.227-0.229,0.393-0.489,0.504-0.796
					c0.113-0.311,0.172-0.63,0.172-0.953c0-0.693-0.197-1.242-0.586-1.632c-0.408-0.406-0.924-0.752-1.525-1.024
					c-0.625-0.281-1.305-0.549-2.021-0.794c-0.738-0.252-1.434-0.578-2.062-0.967c-0.643-0.399-1.186-0.916-1.615-1.54
					c-0.436-0.632-0.658-1.49-0.658-2.548c0-0.705,0.131-1.371,0.387-1.982c0.256-0.61,0.637-1.147,1.131-1.6
					c0.492-0.447,1.092-0.809,1.785-1.073c0.691-0.263,1.492-0.396,2.385-0.396c0.723,0,1.465,0.078,2.205,0.234
					c0.744,0.157,1.588,0.421,2.508,0.779l0.092,0.035l0.006,0.098c0.033,0.503,0.09,1.085,0.166,1.729
					c0.078,0.643,0.17,1.222,0.27,1.725l0.027,0.132l-0.129,0.043c-0.168,0.057-0.348,0.086-0.539,0.086
					c-0.281,0-0.484-0.06-0.617-0.183c-0.123-0.11-0.205-0.231-0.248-0.358c-0.379-0.938-0.875-1.624-1.473-2.033
					c-0.6-0.408-1.414-0.617-2.424-0.617c-0.785,0-1.461,0.193-2.01,0.577c-0.535,0.377-0.797,0.938-0.797,1.716
					c0,0.593,0.197,1.057,0.605,1.416c0.422,0.372,0.963,0.705,1.609,0.99c0.656,0.292,1.371,0.577,2.125,0.847
					c0.773,0.278,1.502,0.63,2.164,1.043c0.674,0.421,1.244,0.963,1.693,1.613c0.453,0.657,0.684,1.51,0.684,2.531
					c0,0.669-0.117,1.327-0.346,1.958c-0.229,0.636-0.596,1.205-1.09,1.69c-0.494,0.486-1.129,0.879-1.879,1.167
					C262.84,79.535,261.93,79.682,260.887,79.682z M255.783,78.268c0.561,0.27,1.27,0.52,2.105,0.746
					c0.875,0.24,1.885,0.361,2.998,0.361c1.006,0,1.879-0.139,2.596-0.413c0.713-0.274,1.311-0.645,1.775-1.098
					c0.461-0.455,0.803-0.986,1.018-1.579c0.215-0.597,0.326-1.22,0.326-1.853c0-0.959-0.213-1.751-0.629-2.356
					c-0.424-0.616-0.965-1.131-1.604-1.528c-0.646-0.401-1.354-0.744-2.105-1.015c-0.76-0.272-1.482-0.56-2.146-0.854
					c-0.674-0.298-1.242-0.648-1.688-1.04c-0.469-0.416-0.707-0.97-0.707-1.646c0-0.873,0.311-1.534,0.926-1.967
					c0.602-0.42,1.336-0.633,2.186-0.633c1.072,0,1.945,0.227,2.598,0.67c0.648,0.445,1.182,1.179,1.586,2.181
					c0.029,0.086,0.084,0.165,0.168,0.241c0.072,0.065,0.213,0.101,0.41,0.101c0.109,0,0.213-0.011,0.312-0.034
					c-0.09-0.478-0.174-1.017-0.244-1.61c-0.074-0.606-0.127-1.16-0.162-1.646c-0.871-0.336-1.666-0.58-2.371-0.731
					c-0.717-0.15-1.438-0.228-2.141-0.228c-0.855,0-1.621,0.126-2.275,0.377c-0.656,0.25-1.225,0.592-1.689,1.014
					c-0.461,0.42-0.816,0.923-1.055,1.491c-0.238,0.572-0.361,1.199-0.361,1.863c0,0.994,0.203,1.793,0.604,2.373
					c0.406,0.589,0.918,1.078,1.523,1.453c0.611,0.378,1.285,0.693,2.002,0.939c0.727,0.248,1.414,0.519,2.047,0.804
					c0.639,0.29,1.18,0.654,1.617,1.087c0.447,0.449,0.674,1.072,0.674,1.849c0,0.358-0.062,0.715-0.189,1.058
					c-0.125,0.345-0.318,0.65-0.574,0.907c-0.258,0.255-0.588,0.462-0.982,0.613c-0.395,0.153-0.871,0.232-1.418,0.232
					c-0.627,0-1.191-0.072-1.678-0.213c-0.494-0.146-0.932-0.376-1.303-0.688c-0.371-0.307-0.703-0.709-0.988-1.194
					c-0.277-0.481-0.533-1.059-0.756-1.716c-0.059-0.157-0.129-0.268-0.203-0.323c-0.145-0.11-0.518-0.11-0.789-0.035
					c0.127,0.626,0.244,1.28,0.348,1.946C255.65,76.854,255.73,77.561,255.783,78.268z"/>
			</g>
			<g>
				<path fill="#8D2339" d="M281.297,63.778v13.538c0,0.17,0.01,0.311,0.037,0.424c0.025,0.112,0.09,0.21,0.193,0.296
					c0.104,0.087,0.248,0.159,0.438,0.219c0.188,0.061,0.453,0.115,0.797,0.167c0.258,0.051,0.387,0.196,0.387,0.438
					c0,0.051-0.006,0.127-0.012,0.23c-0.01,0.103-0.023,0.188-0.039,0.257c-0.549-0.032-1.137-0.063-1.764-0.09
					c-0.627-0.023-1.18-0.039-1.66-0.039c-0.498,0-1.051,0.016-1.66,0.039c-0.609,0.026-1.188,0.058-1.736,0.09
					c-0.035-0.068-0.057-0.154-0.064-0.257c-0.01-0.104-0.014-0.18-0.014-0.23c0-0.119,0.021-0.221,0.064-0.297
					s0.158-0.132,0.348-0.167c0.635-0.086,1.033-0.201,1.197-0.348c0.162-0.146,0.244-0.39,0.244-0.732V63.778h-2.266
					c-0.48,0-0.887,0.047-1.223,0.141c-0.332,0.096-0.625,0.242-0.873,0.438c-0.25,0.197-0.473,0.454-0.67,0.772
					c-0.197,0.316-0.398,0.699-0.604,1.146c-0.07,0.153-0.199,0.231-0.389,0.231c-0.102,0-0.221-0.021-0.359-0.064
					c-0.137-0.043-0.24-0.081-0.309-0.117c0.119-0.411,0.223-0.776,0.309-1.093c0.086-0.317,0.154-0.631,0.207-0.94
					c0.066-0.395,0.119-0.746,0.152-1.055c0.035-0.309,0.078-0.532,0.131-0.669c0.068-0.154,0.205-0.231,0.41-0.231
					c0.188,0,0.562,0.026,1.121,0.077c0.557,0.052,1.23,0.077,2.02,0.077h7.926c0.773,0,1.438-0.025,1.996-0.077
					c0.557-0.051,0.938-0.077,1.145-0.077c0.189,0,0.326,0.077,0.412,0.231c0.051,0.137,0.09,0.36,0.115,0.669
					s0.082,0.66,0.168,1.055c0.051,0.31,0.115,0.623,0.193,0.94c0.076,0.316,0.184,0.682,0.322,1.093
					c-0.086,0.036-0.195,0.074-0.322,0.117c-0.129,0.043-0.244,0.064-0.348,0.064c-0.188,0-0.326-0.078-0.412-0.231
					c-0.207-0.446-0.408-0.829-0.605-1.146c-0.197-0.318-0.42-0.575-0.668-0.772c-0.25-0.196-0.541-0.343-0.875-0.438
					c-0.336-0.094-0.734-0.141-1.197-0.141H281.297z"/>
				<path fill="#8D2339" d="M283.215,79.509l-0.127-0.008c-0.549-0.032-1.135-0.063-1.76-0.09c-0.682-0.026-1.207-0.039-1.654-0.039
					c-0.459,0-1,0.013-1.652,0.039c-0.609,0.026-1.188,0.058-1.736,0.09l-0.102,0.007l-0.043-0.092
					c-0.043-0.086-0.07-0.188-0.08-0.313c-0.01-0.106-0.014-0.189-0.014-0.242c0-0.147,0.029-0.272,0.084-0.373
					c0.066-0.117,0.209-0.195,0.451-0.242c0.756-0.104,1.029-0.225,1.125-0.312c0.127-0.114,0.191-0.321,0.191-0.617V63.931h-2.111
					c-0.459,0-0.859,0.046-1.182,0.136c-0.312,0.09-0.59,0.229-0.82,0.412c-0.232,0.185-0.447,0.431-0.635,0.732
					c-0.189,0.304-0.389,0.683-0.596,1.129c-0.064,0.145-0.209,0.32-0.525,0.32c-0.119,0-0.252-0.024-0.404-0.072
					c-0.15-0.047-0.26-0.087-0.332-0.125l-0.113-0.058l0.033-0.123c0.121-0.41,0.223-0.773,0.309-1.091
					c0.084-0.307,0.152-0.617,0.203-0.924c0.068-0.392,0.119-0.743,0.154-1.048c0.035-0.324,0.08-0.555,0.137-0.704
					c0.068-0.156,0.217-0.332,0.555-0.332c0.188,0,0.549,0.025,1.133,0.078c0.543,0.05,1.219,0.076,2.008,0.076h7.926
					c0.783,0,1.432-0.025,1.982-0.076c0.584-0.053,0.951-0.078,1.158-0.078c0.244,0,0.434,0.108,0.547,0.312
					c0.064,0.17,0.105,0.401,0.135,0.729c0.023,0.298,0.078,0.646,0.164,1.037c0.053,0.321,0.117,0.635,0.191,0.936
					c0.074,0.31,0.182,0.673,0.318,1.081l0.047,0.137l-0.135,0.055c-0.088,0.034-0.199,0.073-0.33,0.118
					c-0.447,0.149-0.773,0.064-0.943-0.238c-0.211-0.455-0.41-0.834-0.602-1.138c-0.186-0.302-0.4-0.548-0.635-0.734
					c-0.23-0.182-0.506-0.32-0.818-0.41c-0.324-0.09-0.713-0.136-1.156-0.136h-2.111v13.386c0,0.16,0.012,0.292,0.035,0.39
					c0.018,0.078,0.062,0.148,0.141,0.214c0.086,0.072,0.217,0.135,0.387,0.188c0.178,0.056,0.43,0.109,0.773,0.162
					c0.336,0.065,0.518,0.275,0.518,0.59c0,0.053-0.006,0.134-0.014,0.242c-0.01,0.112-0.023,0.207-0.043,0.282L283.215,79.509z
					 M275.787,63.625h2.418v13.691c0,0.387-0.098,0.671-0.295,0.847c-0.189,0.17-0.598,0.292-1.279,0.386
					c-0.197,0.038-0.23,0.088-0.232,0.088c-0.029,0.054-0.045,0.131-0.045,0.224c0,0.047,0.004,0.119,0.012,0.215
					c0.004,0.042,0.01,0.081,0.018,0.113c0.516-0.03,1.057-0.059,1.623-0.084c0.66-0.026,1.205-0.038,1.668-0.038
					c0.451,0,0.98,0.012,1.666,0.038c0.576,0.024,1.121,0.054,1.631,0.083c0.004-0.033,0.01-0.071,0.012-0.109
					c0.008-0.098,0.014-0.17,0.014-0.218c0-0.167-0.076-0.251-0.264-0.288c-0.354-0.055-0.621-0.11-0.814-0.171
					c-0.211-0.067-0.373-0.148-0.488-0.247c-0.129-0.109-0.213-0.237-0.246-0.38c-0.027-0.122-0.041-0.271-0.041-0.458V63.625h2.418
					c0.471,0,0.889,0.049,1.238,0.147c0.354,0.1,0.664,0.257,0.928,0.464c0.262,0.208,0.498,0.481,0.705,0.812
					c0.197,0.315,0.402,0.705,0.613,1.161c0.086,0.156,0.279,0.182,0.572,0.088c0.064-0.022,0.125-0.043,0.178-0.062
					c-0.117-0.362-0.211-0.687-0.279-0.968c-0.076-0.307-0.141-0.629-0.195-0.95c-0.086-0.395-0.143-0.757-0.168-1.068
					c-0.025-0.293-0.062-0.506-0.107-0.626c-0.049-0.086-0.135-0.133-0.268-0.133c-0.193,0-0.564,0.025-1.133,0.076
					c-0.557,0.053-1.215,0.078-2.008,0.078h-7.926c-0.811,0-1.477-0.025-2.035-0.078c-0.564-0.051-0.928-0.076-1.105-0.076
					c-0.186,0-0.242,0.076-0.271,0.141c-0.043,0.116-0.084,0.328-0.115,0.623c-0.037,0.31-0.09,0.669-0.156,1.064
					c-0.053,0.317-0.123,0.638-0.209,0.954c-0.078,0.284-0.17,0.605-0.273,0.966c0.049,0.018,0.105,0.038,0.17,0.059
					c0.123,0.038,0.229,0.057,0.314,0.057c0.162,0,0.217-0.072,0.248-0.141c0.211-0.459,0.418-0.849,0.613-1.164
					c0.207-0.331,0.443-0.604,0.703-0.812c0.266-0.208,0.576-0.365,0.93-0.465C274.875,63.674,275.299,63.625,275.787,63.625z"/>
			</g>
			<g>
				<path fill="#8D2339" d="M299.645,73.559h-5.404l-1.338,3.576c-0.053,0.086-0.086,0.182-0.104,0.284
					c-0.016,0.104-0.025,0.181-0.025,0.229c0,0.19,0.09,0.345,0.27,0.466c0.18,0.119,0.545,0.222,1.094,0.308
					c0.24,0.034,0.359,0.196,0.359,0.489c0,0.119-0.016,0.265-0.051,0.437c-0.463-0.032-0.951-0.063-1.467-0.09
					c-0.514-0.023-1.02-0.039-1.518-0.039c-0.344,0-0.703,0.01-1.08,0.026c-0.379,0.017-0.799,0.054-1.264,0.103
					c-0.033-0.068-0.051-0.146-0.051-0.231s0-0.153,0-0.205c0-0.326,0.113-0.498,0.336-0.515c0.531-0.104,0.914-0.214,1.145-0.336
					c0.23-0.119,0.416-0.325,0.553-0.617l6.203-14.824c0.139-0.29,0.344-0.437,0.617-0.437c0.086,0,0.172,0.003,0.258,0.014
					c0.086,0.008,0.18,0.021,0.283,0.038l6.201,15.288c0.104,0.257,0.301,0.449,0.594,0.58c0.291,0.127,0.609,0.217,0.951,0.268
					c0.258,0.052,0.387,0.226,0.387,0.514c0,0.14-0.018,0.292-0.053,0.464c-0.549-0.032-1.088-0.063-1.621-0.09
					c-0.531-0.023-1.029-0.039-1.492-0.039c-0.24,0-0.531,0.006-0.875,0.016c-0.344,0.007-0.693,0.021-1.057,0.037
					c-0.359,0.017-0.715,0.029-1.066,0.038c-0.352,0.008-0.648,0.021-0.889,0.038c-0.033-0.068-0.051-0.146-0.051-0.231
					s0-0.153,0-0.205c0-0.153,0.029-0.271,0.09-0.348c0.059-0.076,0.123-0.124,0.193-0.142c0.445-0.086,0.777-0.184,0.99-0.297
					c0.215-0.11,0.322-0.277,0.322-0.499c0-0.104-0.025-0.233-0.076-0.389L299.645,73.559z M299.156,72.271l-2.188-5.791
					l-2.24,5.791H299.156z"/>
				<path fill="#8D2339" d="M289.027,79.513l-0.045-0.097c-0.045-0.088-0.068-0.189-0.068-0.3v-0.205
					c0-0.55,0.299-0.655,0.477-0.668c0.502-0.098,0.871-0.207,1.084-0.317c0.205-0.106,0.363-0.283,0.486-0.548l6.199-14.816
					c0.209-0.441,0.527-0.531,0.76-0.531c0.092,0,0.186,0.002,0.275,0.014c0.086,0.008,0.184,0.021,0.291,0.039l0.084,0.015
					l0.033,0.078l6.201,15.289c0.09,0.222,0.256,0.383,0.512,0.497c0.283,0.123,0.592,0.209,0.914,0.256
					c0.334,0.069,0.516,0.306,0.516,0.666c0,0.151-0.018,0.313-0.055,0.494l-0.025,0.132l-0.133-0.009
					c-0.549-0.032-1.09-0.063-1.621-0.09c-0.568-0.026-1.055-0.039-1.484-0.039c-0.24,0-0.529,0.005-0.871,0.016
					c-0.344,0.007-0.693,0.021-1.053,0.037c-0.361,0.017-0.719,0.029-1.07,0.038c-0.35,0.008-0.645,0.021-0.883,0.038l-0.1,0.008
					l-0.047-0.093c-0.045-0.088-0.066-0.189-0.066-0.3v-0.205c0-0.189,0.041-0.339,0.121-0.442c0.082-0.105,0.176-0.171,0.279-0.195
					c0.438-0.085,0.758-0.18,0.957-0.282c0.162-0.084,0.238-0.2,0.238-0.365c0-0.089-0.023-0.201-0.07-0.341l-1.326-3.573h-5.191
					l-1.301,3.477c-0.053,0.094-0.082,0.173-0.096,0.256c-0.014,0.092-0.021,0.159-0.021,0.204c0,0.14,0.061,0.246,0.199,0.337
					c0.111,0.075,0.381,0.183,1.033,0.287c0.182,0.023,0.49,0.142,0.49,0.639c0,0.132-0.018,0.289-0.057,0.467l-0.025,0.134
					l-0.133-0.011c-0.463-0.032-0.949-0.063-1.465-0.09c-0.953-0.047-1.699-0.053-2.584-0.013c-0.354,0.016-0.762,0.05-1.25,0.102
					L289.027,79.513z M294.133,73.405h5.617l1.402,3.778c0.059,0.178,0.086,0.319,0.086,0.442c0,0.28-0.139,0.499-0.402,0.636
					c-0.229,0.118-0.566,0.221-1.033,0.311c-0.027,0.007-0.064,0.037-0.102,0.085s-0.059,0.137-0.059,0.254v0.205
					c0,0.025,0.002,0.049,0.006,0.072c0.221-0.013,0.479-0.025,0.777-0.03c0.352-0.011,0.705-0.023,1.062-0.04
					c0.365-0.016,0.717-0.03,1.061-0.037c0.344-0.01,0.637-0.015,0.879-0.015c0.436,0,0.926,0.013,1.5,0.038
					c0.49,0.024,0.984,0.054,1.488,0.083c0.016-0.109,0.023-0.21,0.023-0.304c0-0.273-0.133-0.337-0.264-0.364
					c-0.34-0.05-0.674-0.144-0.982-0.277c-0.328-0.145-0.555-0.368-0.674-0.663l-6.168-15.208c-0.066-0.009-0.129-0.018-0.189-0.022
					c-0.082-0.01-0.162-0.013-0.242-0.013c-0.215,0-0.367,0.111-0.479,0.35l-6.199,14.816c-0.154,0.329-0.363,0.56-0.625,0.695
					c-0.24,0.127-0.629,0.242-1.186,0.35c-0.076,0.007-0.211,0.017-0.211,0.364v0.205c0,0.024,0.002,0.046,0.004,0.067
					c0.443-0.047,0.818-0.076,1.148-0.092c0.895-0.039,1.648-0.03,2.613,0.013c0.467,0.024,0.91,0.052,1.332,0.081
					c0.016-0.104,0.025-0.196,0.025-0.274c0-0.269-0.109-0.321-0.229-0.337c-0.578-0.091-0.955-0.199-1.158-0.332
					c-0.221-0.147-0.336-0.353-0.336-0.594c0-0.054,0.008-0.139,0.027-0.254c0.02-0.121,0.061-0.236,0.121-0.339L294.133,73.405z
					 M299.379,72.425h-4.875l0.084-0.21l2.381-6.163L299.379,72.425z M294.953,72.118h3.98l-1.967-5.21L294.953,72.118z"/>
			</g>
			<g>
				<path fill="#8D2339" d="M321.521,66.66c-0.154,0.052-0.318,0.077-0.49,0.077c-0.24,0-0.41-0.047-0.514-0.141
					c-0.104-0.095-0.172-0.192-0.207-0.296c-0.395-0.979-0.904-1.684-1.529-2.111c-0.629-0.429-1.465-0.644-2.512-0.644
					c-0.822,0-1.521,0.202-2.096,0.605s-0.863,1.018-0.863,1.841c0,0.635,0.221,1.145,0.656,1.531
					c0.438,0.386,0.986,0.724,1.648,1.016c0.658,0.292,1.371,0.575,2.137,0.851c0.762,0.275,1.475,0.617,2.135,1.029
					c0.66,0.41,1.209,0.935,1.646,1.569c0.438,0.634,0.656,1.45,0.656,2.444c0,0.652-0.111,1.287-0.334,1.904
					c-0.223,0.619-0.574,1.164-1.055,1.635c-0.48,0.473-1.09,0.851-1.828,1.133c-0.738,0.283-1.621,0.424-2.65,0.424
					c-1.131,0-2.145-0.122-3.037-0.366c-0.893-0.242-1.631-0.507-2.213-0.795c-0.053-0.735-0.133-1.46-0.244-2.171
					s-0.236-1.402-0.375-2.072c0.172-0.067,0.369-0.104,0.594-0.104c0.205,0,0.359,0.038,0.463,0.117
					c0.102,0.076,0.188,0.21,0.258,0.397c0.223,0.653,0.473,1.216,0.746,1.688c0.273,0.471,0.592,0.856,0.953,1.155
					c0.359,0.302,0.775,0.52,1.248,0.657c0.471,0.138,1.016,0.207,1.635,0.207c0.529,0,0.984-0.075,1.363-0.221
					c0.375-0.146,0.686-0.34,0.926-0.579c0.24-0.242,0.42-0.524,0.539-0.853c0.121-0.324,0.182-0.66,0.182-1.005
					c0-0.737-0.211-1.319-0.631-1.74c-0.42-0.419-0.943-0.772-1.57-1.055c-0.625-0.283-1.303-0.551-2.033-0.8
					c-0.729-0.25-1.406-0.566-2.033-0.953c-0.625-0.388-1.148-0.886-1.568-1.496c-0.422-0.609-0.631-1.431-0.631-2.461
					c0-0.688,0.125-1.328,0.373-1.923c0.248-0.59,0.613-1.107,1.094-1.546c0.48-0.437,1.059-0.784,1.736-1.044
					c0.678-0.258,1.455-0.386,2.328-0.386c0.723,0,1.447,0.078,2.176,0.231c0.729,0.154,1.557,0.412,2.482,0.772
					c0.037,0.515,0.092,1.094,0.17,1.736C321.328,65.566,321.418,66.146,321.521,66.66z"/>
				<path fill="#8D2339" d="M316.322,79.682c-1.141,0-2.176-0.125-3.076-0.372c-0.896-0.243-1.65-0.513-2.244-0.805l-0.078-0.04
					l-0.006-0.088c-0.049-0.729-0.133-1.455-0.24-2.157c-0.111-0.709-0.238-1.403-0.373-2.065l-0.027-0.127l0.121-0.047
					c0.193-0.075,0.41-0.113,0.648-0.113c0.244,0,0.426,0.049,0.557,0.148c0.123,0.094,0.227,0.246,0.307,0.465
					c0.221,0.645,0.467,1.202,0.736,1.665c0.264,0.454,0.572,0.829,0.918,1.115c0.338,0.284,0.74,0.496,1.193,0.629
					c0.457,0.133,0.992,0.2,1.592,0.2c0.508,0,0.947-0.071,1.307-0.209c0.355-0.139,0.648-0.32,0.875-0.546
					c0.227-0.229,0.391-0.489,0.504-0.796c0.113-0.311,0.172-0.63,0.172-0.953c0-0.693-0.199-1.242-0.586-1.632
					c-0.41-0.406-0.924-0.752-1.525-1.024c-0.625-0.281-1.305-0.549-2.02-0.794c-0.74-0.252-1.436-0.578-2.064-0.967
					c-0.643-0.399-1.188-0.916-1.613-1.54c-0.438-0.632-0.66-1.49-0.66-2.548c0-0.705,0.131-1.371,0.387-1.982
					c0.256-0.61,0.635-1.147,1.131-1.6c0.492-0.447,1.092-0.809,1.785-1.073c0.691-0.263,1.492-0.396,2.383-0.396
					c0.727,0,1.469,0.078,2.207,0.234c0.744,0.157,1.59,0.421,2.51,0.779l0.09,0.035l0.006,0.098
					c0.033,0.503,0.09,1.085,0.166,1.729c0.078,0.643,0.17,1.222,0.27,1.725l0.027,0.132l-0.129,0.043
					c-0.166,0.057-0.348,0.086-0.539,0.086c-0.281,0-0.484-0.06-0.619-0.183c-0.119-0.11-0.203-0.231-0.246-0.358
					c-0.379-0.938-0.875-1.624-1.473-2.033c-0.598-0.408-1.414-0.617-2.424-0.617c-0.785,0-1.461,0.193-2.01,0.577
					c-0.535,0.377-0.795,0.938-0.795,1.716c0,0.593,0.195,1.057,0.604,1.416c0.422,0.372,0.963,0.705,1.609,0.99
					c0.656,0.292,1.373,0.577,2.125,0.847c0.771,0.278,1.502,0.63,2.164,1.043c0.676,0.421,1.244,0.963,1.693,1.613
					c0.453,0.657,0.684,1.51,0.684,2.531c0,0.669-0.117,1.327-0.346,1.958c-0.227,0.636-0.596,1.205-1.09,1.69
					c-0.496,0.486-1.129,0.879-1.881,1.167C318.275,79.535,317.365,79.682,316.322,79.682z M311.219,78.268
					c0.562,0.27,1.27,0.52,2.107,0.746c0.873,0.24,1.883,0.361,2.996,0.361c1.004,0,1.879-0.139,2.596-0.413
					c0.713-0.274,1.311-0.645,1.775-1.098c0.461-0.455,0.803-0.986,1.018-1.579c0.215-0.597,0.326-1.22,0.326-1.853
					c0-0.959-0.211-1.751-0.629-2.356c-0.424-0.616-0.965-1.131-1.604-1.528c-0.645-0.401-1.354-0.744-2.105-1.015
					c-0.758-0.272-1.482-0.56-2.146-0.854c-0.674-0.298-1.242-0.648-1.688-1.04c-0.469-0.416-0.707-0.97-0.707-1.646
					c0-0.873,0.312-1.534,0.926-1.967c0.602-0.42,1.336-0.633,2.186-0.633c1.072,0,1.945,0.227,2.598,0.67
					c0.648,0.445,1.182,1.179,1.586,2.181c0.029,0.086,0.084,0.165,0.168,0.241c0.072,0.065,0.213,0.101,0.41,0.101
					c0.109,0,0.213-0.011,0.312-0.034c-0.092-0.478-0.174-1.017-0.244-1.61c-0.074-0.606-0.127-1.16-0.162-1.646
					c-0.869-0.336-1.666-0.58-2.369-0.731c-0.719-0.15-1.439-0.228-2.145-0.228c-0.854,0-1.617,0.126-2.271,0.377
					c-0.658,0.25-1.227,0.592-1.691,1.014c-0.459,0.42-0.816,0.923-1.055,1.491c-0.238,0.572-0.361,1.199-0.361,1.863
					c0,0.994,0.203,1.793,0.604,2.373c0.406,0.589,0.918,1.078,1.523,1.453c0.611,0.378,1.287,0.693,2.002,0.939
					c0.727,0.248,1.414,0.519,2.049,0.804c0.637,0.29,1.18,0.654,1.615,1.087c0.447,0.449,0.676,1.072,0.676,1.849
					c0,0.358-0.064,0.715-0.191,1.058c-0.125,0.345-0.318,0.65-0.576,0.907c-0.256,0.255-0.586,0.462-0.979,0.613
					c-0.396,0.153-0.873,0.232-1.418,0.232c-0.629,0-1.193-0.072-1.678-0.213c-0.494-0.146-0.934-0.376-1.305-0.688
					c-0.371-0.307-0.703-0.709-0.986-1.194c-0.279-0.481-0.535-1.059-0.758-1.716c-0.061-0.157-0.129-0.268-0.205-0.323
					c-0.143-0.11-0.514-0.11-0.787-0.035c0.127,0.626,0.244,1.28,0.348,1.946C311.086,76.854,311.166,77.561,311.219,78.268z"/>
			</g>
		</g>
		<g>
			<path fill="#C06169" d="M228.082,52.797c0,0.189-0.031,0.392-0.098,0.604c-0.168-0.023-0.486-0.038-0.953-0.049
				s-0.977-0.02-1.529-0.031c-0.555-0.011-1.09-0.017-1.609-0.017c-0.521,0-0.91,0-1.164,0c-0.508,0-1.053-0.212-1.625-0.636
				c-0.574-0.426-1.35-1.105-2.326-2.041c-0.893,0.894-1.875,1.604-2.947,2.136c-1.074,0.529-2.342,0.796-3.809,0.796
				c-0.891,0-1.721-0.096-2.482-0.285c-0.768-0.192-1.43-0.494-1.992-0.909c-0.566-0.415-1.002-0.939-1.307-1.577
				c-0.309-0.637-0.463-1.391-0.463-2.263c0-0.721,0.127-1.38,0.383-1.975c0.254-0.593,0.598-1.136,1.033-1.625
				c0.438-0.489,0.93-0.934,1.484-1.339c0.551-0.403,1.125-0.764,1.721-1.083c-0.576-0.574-1.047-1.095-1.418-1.562
				c-0.373-0.466-0.672-0.907-0.893-1.322c-0.223-0.415-0.383-0.807-0.479-1.18c-0.096-0.371-0.145-0.737-0.145-1.099
				c0-0.616,0.135-1.19,0.4-1.721c0.266-0.53,0.631-0.992,1.098-1.386c0.467-0.393,1.025-0.701,1.674-0.924
				c0.646-0.223,1.355-0.336,2.119-0.336c1.594,0,2.809,0.373,3.648,1.117c0.838,0.744,1.258,1.657,1.258,2.741
				c0,0.891-0.293,1.763-0.875,2.613c-0.584,0.849-1.357,1.561-2.311,2.134c1.084,1.105,2.076,2.092,2.979,2.964
				c0.904,0.872,1.715,1.647,2.438,2.325c0.361-0.53,0.697-1.066,1.004-1.608c0.309-0.542,0.572-1.062,0.797-1.562
				c0.223-0.497,0.393-0.954,0.51-1.369c0.117-0.416,0.174-0.75,0.174-1.005c0-0.191-0.09-0.354-0.27-0.494
				c-0.18-0.137-0.525-0.27-1.035-0.398c-0.172-0.042-0.281-0.09-0.334-0.143s-0.082-0.165-0.082-0.334s0.035-0.351,0.096-0.542
				c0.426,0.043,0.924,0.07,1.498,0.08c0.576,0.011,1.104,0.017,1.594,0.017c0.447,0,0.891-0.005,1.338-0.017
				c0.447-0.01,0.859-0.037,1.244-0.08c0.021,0.106,0.043,0.225,0.064,0.351c0.02,0.128,0.029,0.213,0.029,0.255
				c0,0.254-0.137,0.404-0.412,0.446c-0.258,0.063-0.475,0.118-0.654,0.16c-0.182,0.043-0.344,0.117-0.492,0.225
				c-0.15,0.106-0.287,0.248-0.414,0.429c-0.129,0.18-0.27,0.43-0.414,0.749c-0.447,0.956-0.932,1.939-1.451,2.946
				c-0.521,1.01-1.1,1.981-1.738,2.916c0.787,0.745,1.477,1.371,2.074,1.881c0.592,0.509,1.107,0.923,1.543,1.244
				c0.436,0.316,0.807,0.562,1.115,0.73c0.309,0.172,0.58,0.288,0.814,0.352c0.105,0.043,0.258,0.085,0.461,0.127
				c0.201,0.043,0.43,0.084,0.686,0.128C227.934,52.371,228.082,52.519,228.082,52.797z M211.225,43.459
				c-0.57,0.574-1.039,1.216-1.402,1.927c-0.361,0.712-0.539,1.546-0.539,2.501c0,0.617,0.111,1.148,0.334,1.594
				c0.223,0.445,0.51,0.812,0.859,1.099c0.352,0.288,0.754,0.494,1.211,0.621c0.457,0.128,0.93,0.192,1.42,0.192
				c0.424,0,0.82-0.026,1.193-0.081c0.371-0.052,0.738-0.142,1.1-0.27c0.361-0.127,0.723-0.308,1.084-0.541
				c0.359-0.235,0.742-0.532,1.146-0.892c-0.828-0.723-1.768-1.583-2.82-2.582C213.758,46.029,212.564,44.841,211.225,43.459z
				 M213.457,40.623c0.443-0.551,0.779-1.131,1.002-1.737c0.223-0.605,0.336-1.163,0.336-1.672c0-0.892-0.197-1.571-0.59-2.039
				c-0.395-0.467-0.91-0.701-1.545-0.701c-0.572,0-1.021,0.197-1.34,0.589c-0.316,0.394-0.479,0.866-0.479,1.418
				c0,0.637,0.219,1.285,0.654,1.944C211.932,39.083,212.584,39.816,213.457,40.623z"/>
		</g>
		<rect x="109.133" y="41.38" fill-rule="evenodd" clip-rule="evenodd" fill="#FBC817" width="89.261" height="2.154"/>
		<rect x="232.506" y="41.38" fill-rule="evenodd" clip-rule="evenodd" fill="#FBC817" width="89.262" height="2.154"/>
	</g>
</g>
</svg>
