<svg version="1" xmlns="http://www.w3.org/2000/svg" width="330" height="100"><g fill-rule="evenodd" clip-rule="evenodd"><path fill="#C1626A" d="M96.28 1h.063v6.234h-.063V1z"/><path fill="#E3E3E5" d="M4.864 7.234a27.762 27.762 0 0 1 0 4.199V7.234zm91.416 0h.063v4.263h-.063V7.234z"/><path fill="#C1626A" d="M96.28 11.497h.063v62.979h-.063V11.497z"/><path fill="#E3E3E5" d="M6.772 19.003c-.227.645-.126 1.94-.126 2.99v46.056c-.15-16.2-.021-32.676-.065-48.983-.098-.155.216-.187.191-.063z"/><path fill="#C1626A" d="M89.028 21.421c.191-.147.655-.022.953-.064-.193.148-.657.022-.953.064z"/><path fill="#DDD" d="M89.981 21.356h1.21c.213.148.697.023 1.018.064.915.06 1.859.091 2.671.253v7.125c-1.559-.306-3.167-.564-5.025-.572-.616-.106-1.675-.106-2.291 0-7.448.333-12.378 3.186-16.54 6.807a32.72 32.72 0 0 0-1.909 1.908c-3.293 3.831-6.258 7.989-6.744 14.631-.145.088-.022.443-.062.636-.073 8.704 4.161 13.101 12.022 13.868.489.106 1.419.106 1.909 0 8.518-.559 13.635-4.855 18.639-8.715v3.498c0 1.047.269 2.405 0 3.437-.145.556-1.339 1.249-1.973 1.718-4.865 3.599-10.963 6.637-18.64 7.123h-1.59c-5.3-.232-8.863-2.203-11.831-4.771a6.155 6.155 0 0 0-.828-.826c-2.491-2.789-4.165-6.396-4.389-11.451v-2.416c.637-9.626 4.966-15.562 9.733-21.057a32.41 32.41 0 0 0 1.908-1.909c5.469-4.879 12.002-8.695 21.758-9.288.297-.04.761.086.954-.063z"/><path fill="#C1626A" d="M91.191 21.356c.318.042.803-.083 1.018.064-.321-.041-.805.085-1.018-.064z"/><path fill="#E3E3E5" d="M31.265 26.065c-.15 16.221-.022 32.719-.065 49.047-.148-8.058-.02-16.392-.063-24.557.083-8.164-.169-16.635.128-24.555v.065z"/><path fill="#C1626A" d="M87.563 28.228c.616-.106 1.675-.106 2.291 0h-2.291z"/><path fill="#DDD" d="M50.604 31.599c2.477-.639 4.834-1.4 7.251-2.098.148 1.76.022 3.795.063 5.661-2.377.761-4.836 1.441-7.251 2.163h-.063c-.043-1.888.083-3.943-.065-5.726h.065z"/><path fill="#C1626A" d="M62.371 51.574c-.038.193.083.548-.062.636.04-.192-.082-.548.062-.636zm-6.742 2.101v2.416c-.107-.657-.107-1.759 0-2.416zm18.703 12.403h1.909c-.49.107-1.42.107-1.909 0z"/><path fill="#E3E3E5" d="M28.02 68.56c.024 1.201.178 3.527.064 5.153-.018.233.092.62-.191.445.293-1.43.045-3.836.127-5.598z"/><path fill="#C1626A" d="M72.677 73.139h1.59c-.381.106-1.207.106-1.59 0z"/><path fill="#E3E3E5" d="M96.28 74.539v-.063h.063v4.518h-.063v-4.455zm-91.416 0a31.232 31.232 0 0 1 0 4.454v-4.454z"/><path fill="#C1626A" d="M96.215 79.057c.004-.039.009-.075.065-.063h.063c-.043 2.057.083 4.283-.063 6.234-.043-2.037.083-4.242-.065-6.171z"/><path fill="#C06169" d="M4.864 79.057c15.32 4.296 30.425 8.804 45.74 13.104v6.234c-15.255-4.382-30.476-8.797-45.74-13.168v-6.17zM4.864 1h.127c15.165 4.429 30.411 8.779 45.613 13.168.042 2.036-.085 4.241.063 6.172-15.145-4.258-30.586-8.772-45.803-13.169V1z"/><path fill="#FBC817" d="M4.864 7.234v-.063c15.217 4.397 30.658 8.911 45.803 13.169 15.249-4.324 30.378-8.766 45.613-13.106v4.263c-15.24 4.332-30.37 8.775-45.613 13.104-15.197-4.185-30.521-8.793-45.803-13.104v-.063a27.776 27.776 0 0 0 0-4.2z"/><path fill="#C06169" d="M4.864 11.497c15.283 4.311 30.606 8.919 45.803 13.104-.148 2.206-.022 4.686-.063 6.997h-.065c-6.433-1.835-12.8-3.738-19.274-5.534V26c-.297 7.919-.044 16.39-.128 24.555.043 8.165-.084 16.499.063 24.557 1.856.583 3.769 1.109 5.663 1.653V48.139c4.562 1.332 9.112 2.678 13.741 3.944h.063c-.148 11.727-.022 23.729-.063 35.562-15.286-4.353-30.507-8.767-45.74-13.17V11.497zM6.646 68.05c7.084 2.035 14.116 4.122 21.247 6.108.284.175.174-.212.191-.445.114-1.626-.041-3.952-.064-5.153-5.246-1.539-10.586-2.985-15.777-4.579v-43.45c-1.844-.488-3.603-1.063-5.47-1.527.025-.124-.289-.092-.191.063.042 16.307-.086 32.783.064 48.983z"/><path fill="#FBC817" d="M4.864 74.539v-.063c15.232 4.403 30.454 8.817 45.74 13.17 15.291-4.303 30.41-8.779 45.676-13.106v4.454c-.056-.012-.061.024-.065.063-15.245 4.327-30.374 8.769-45.611 13.104-15.314-4.301-30.42-8.809-45.74-13.104v-.063a31.246 31.246 0 0 0 0-4.455z"/><path fill="#C1626A" d="M50.539 46.358c-4.577-1.318-9.128-2.661-13.741-3.945V33.38c4.622 1.295 9.156 2.676 13.806 3.944h.063c-.106 2.864-.106 6.17 0 9.034-.028.093-.056-.006-.128 0zM57.855 29.5c.218.188.128 1.872.128 2.862 0 1.021.05 2.011-.065 2.799-.041-1.866.085-3.901-.063-5.661zm7.507 3.118a33.354 33.354 0 0 1 1.908-1.909 32.72 32.72 0 0 1-1.908 1.909zm-5.344 34.924c.303.25.578.524.828.826a5.985 5.985 0 0 1-.828-.826zm9.097-30.599a32.41 32.41 0 0 1 1.909-1.908 31.811 31.811 0 0 1-1.909 1.908z"/><path fill="#DDD" d="M50.539 46.358c.072-.006.1.092.128 0 1.259-.268 2.348-.706 3.625-.954v5.662c-1.195.352-2.41.684-3.625 1.018h-.063c-.043-1.889.083-3.944-.065-5.726z"/><path fill="#FFF" d="M6.772 19.003c1.868.464 3.626 1.039 5.47 1.527v43.45c5.191 1.594 10.531 3.04 15.777 4.579-.082 1.763.166 4.168-.127 5.599-7.131-1.986-14.163-4.073-21.247-6.108V21.994c.001-1.051-.1-2.346.127-2.991zm24.493 7.062c6.474 1.796 12.841 3.699 19.274 5.534.148 1.783.022 3.838.065 5.726-4.649-1.268-9.184-2.649-13.806-3.944v9.033c4.612 1.284 9.164 2.627 13.741 3.945.148 1.781.022 3.837.065 5.726-4.629-1.267-9.179-2.612-13.741-3.944v28.626c-1.895-.544-3.807-1.07-5.663-1.653.043-16.33-.085-32.828.065-49.049z"/><path fill="#8D2339" d="M96.152 1h.128v6.234c-15.235 4.34-30.364 8.782-45.613 13.106-.148-1.931-.022-4.136-.063-6.172C65.761 9.752 81.017 5.439 96.152 1zM50.667 24.602C65.91 20.272 81.04 15.83 96.28 11.498V74.54c-15.267 4.327-30.386 8.804-45.676 13.106.042-11.833-.085-23.835.063-35.562 1.215-.334 2.43-.666 3.625-1.018v-5.662c-1.277.248-2.366.687-3.625.954-.106-2.864-.106-6.17 0-9.034 2.415-.722 4.875-1.402 7.251-2.163.115-.788.065-1.777.065-2.799 0-.991.09-2.674-.128-2.862-2.417.698-4.774 1.459-7.251 2.098.041-2.31-.085-4.79.063-6.996zm38.361-3.181c-9.755.593-16.289 4.409-21.758 9.288a33.034 33.034 0 0 0-1.908 1.909c-4.767 5.495-9.096 11.431-9.733 21.057-.106.657-.106 1.759 0 2.416.224 5.056 1.898 8.662 4.389 11.451.249.302.525.578.828.826 2.968 2.567 6.531 4.538 11.831 4.771.383.106 1.209.106 1.59 0 7.676-.486 13.775-3.524 18.64-7.123.633-.469 1.828-1.162 1.973-1.718.269-1.031 0-2.39 0-3.437v-3.498c-5.004 3.859-10.122 8.156-18.639 8.715h-1.909c-7.861-.768-12.096-5.164-12.022-13.868.145-.088.024-.442.062-.636.485-6.642 3.451-10.8 6.744-14.631a32.108 32.108 0 0 0 1.909-1.908c4.161-3.622 9.091-6.474 16.54-6.807h2.291c1.858.008 3.467.266 5.025.572v-7.125c-.812-.162-1.756-.194-2.671-.253-.214-.147-.7-.022-1.018-.064h-1.21c-.299.04-.763-.084-.954.063zm-38.424 70.74c15.237-4.336 30.367-8.777 45.611-13.104.148 1.93.022 4.135.065 6.171a19149.112 19149.112 0 0 1-45.676 13.168v-6.235z"/></g><path d="M126.426 22.919a3.472 3.472 0 0 1-.873-.247c-.22-.098-.361-.232-.433-.415L118.853 6.81l-.17-.028c-.109-.016-.209-.03-.303-.041a2.776 2.776 0 0 0-.288-.014c-.276 0-.655.106-.9.626l-6.197 14.812c-.109.23-.246.388-.418.475-.203.107-.56.21-1.025.303-.187.013-.619.121-.619.819v.207a.81.81 0 0 0 .084.369l.096.191.211-.024c.455-.051.868-.083 1.242-.1.914-.044 1.713-.03 2.57.012.512.026.999.056 1.458.09l.27.02.054-.263c.038-.197.057-.364.057-.5 0-.634-.436-.766-.62-.792-.658-.102-.891-.207-.972-.261-.117-.077-.132-.146-.132-.208 0-.041.008-.1.02-.182a.682.682 0 0 1 .088-.225l1.264-3.378h4.979l1.286 3.471c.05.151.062.239.062.289 0 .09-.027.164-.156.231-.13.067-.395.168-.926.27a.678.678 0 0 0-.36.25c-.103.132-.153.313-.153.536v.207a.81.81 0 0 0 .084.369l.091.184.205-.015c.237-.017.526-.03.872-.038a50.33 50.33 0 0 0 1.076-.038 49.63 49.63 0 0 1 1.916-.052c.459 0 .952.013 1.477.038.532.026 1.071.057 1.618.09l.267.018.053-.261a2.71 2.71 0 0 0 .057-.526c.001-.443-.228-.74-.645-.822zm-7.541-6.103h-3.538l1.79-4.627 1.748 4.627zm32.185-.642a5.796 5.796 0 0 0-1.67-.897 8.02 8.02 0 0 0-.995-.279 5.79 5.79 0 0 0 1.575-1.009c.716-.647 1.079-1.525 1.079-2.605 0-.569-.098-1.12-.29-1.639a3.522 3.522 0 0 0-.998-1.424c-.461-.404-1.08-.723-1.84-.95-.745-.222-1.691-.334-2.815-.334h-3.552c-.408 0-.933-.014-1.57-.039a67.98 67.98 0 0 1-1.73-.089l-.238-.018-.072.228a.739.739 0 0 0-.04.21.579.579 0 0 0-.028.18v.117c0 .177.021.326.07.452.049.134.169.311.497.392.754.118 1.065.242 1.194.326.083.056.195.165.195.477v12.896c0 .303-.122.418-.228.484-.146.091-.465.221-1.175.321a.75.75 0 0 0-.376.203c-.121.123-.176.309-.176.587v.116c0 .079.014.16.028.183l.062.446h.268a15.608 15.608 0 0 0 1.24-.054c.335-.034.692-.054 1.071-.063.383-.009.729-.013 1.035-.013h4.452c.967 0 1.857-.108 2.652-.319.809-.215 1.505-.54 2.073-.963a4.52 4.52 0 0 0 1.352-1.615c.321-.639.483-1.386.483-2.221a3.74 3.74 0 0 0-.407-1.737 4.14 4.14 0 0 0-1.126-1.35zm-4.255-3.591a2.33 2.33 0 0 1-.5.899c-.232.261-.55.472-.948.626-.408.157-.934.236-1.564.236h-.105v-5.41h.105c.579 0 1.085.07 1.5.206.402.13.728.312.967.536.242.225.415.486.526.795.117.317.175.658.175 1.015 0 .38-.053.748-.156 1.097zm1.623 7.036c0 1.034-.258 1.783-.769 2.225-.524.455-1.348.686-2.449.686-.449 0-.847-.052-1.186-.155-.238-.072-.336-.207-.336-.466v-5.664h1.083c.499 0 .978.072 1.425.218.44.141.83.351 1.158.625.323.269.587.62.781 1.038.195.421.293.923.293 1.493zM179.342 9.26a8.732 8.732 0 0 0-2.865-1.869c-2.168-.87-4.861-.907-7.07.043a9.12 9.12 0 0 0-2.861 1.93 9.14 9.14 0 0 0-1.931 2.849 8.711 8.711 0 0 0-.708 3.494c0 1.305.233 2.519.693 3.606a8.829 8.829 0 0 0 1.893 2.838 8.488 8.488 0 0 0 2.855 1.869c1.094.442 2.295.667 3.564.667 1.236 0 2.42-.238 3.518-.707a9.16 9.16 0 0 0 2.873-1.917 9.015 9.015 0 0 0 1.934-2.85 8.81 8.81 0 0 0 .707-3.506c0-1.285-.234-2.494-.693-3.593a8.785 8.785 0 0 0-1.909-2.854zm-6.92-.556c.881 0 1.664.206 2.324.612.668.409 1.23.98 1.674 1.698.451.734.795 1.616 1.018 2.623.225 1.016.34 2.136.34 3.331 0 .807-.113 1.574-.332 2.274a5.919 5.919 0 0 1-.93 1.836 4.444 4.444 0 0 1-1.408 1.216 3.739 3.739 0 0 1-1.809.439c-.814 0-1.547-.204-2.178-.609-.643-.408-1.195-.99-1.641-1.725-.453-.749-.803-1.659-1.045-2.705-.242-1.05-.365-2.214-.365-3.457 0-.868.124-1.655.369-2.34.244-.686.57-1.272.975-1.746a4.1 4.1 0 0 1 1.389-1.08 3.816 3.816 0 0 1 1.619-.367zm38.238 7.706l-.227.02a29.276 29.276 0 0 1-1.668.09l-.934.025c-.598.018-.963.018-1.576 0l-.971-.025a43.057 43.057 0 0 1-1.828-.09l-.234-.015-.076.222a1.229 1.229 0 0 0-.057.307 3.932 3.932 0 0 0-.012.257c0 .147.035.299.104.449.064.137.199.314.521.395.748.098 1.08.242 1.229.346.17.118.256.358.256.713v3.469c-.213.051-.42.09-.619.113a7.674 7.674 0 0 1-.928.049c-.959 0-1.82-.184-2.551-.546a5.282 5.282 0 0 1-1.865-1.535c-.506-.661-.895-1.461-1.158-2.381-.264-.926-.398-1.964-.398-3.082 0-1.011.121-1.931.359-2.729.236-.792.58-1.475 1.027-2.034a4.363 4.363 0 0 1 1.66-1.275c.67-.3 1.455-.45 2.334-.45 1.162 0 2.143.209 2.918.621.748.395 1.293 1.152 1.623 2.235.072.289.236.418.363.477.199.09.371.136.82.046l.629-.132-.088-.314c-.184-.67-.328-1.367-.43-2.072s-.168-1.295-.205-1.756l-.014-.219-.213-.054a27.192 27.192 0 0 0-2.98-.587 22.377 22.377 0 0 0-3.092-.22c-1.484 0-2.799.273-3.904.814-1.105.54-2.041 1.25-2.777 2.111a8.666 8.666 0 0 0-1.641 2.894 10.035 10.035 0 0 0-.529 3.159c0 1.33.184 2.56.543 3.648a7.573 7.573 0 0 0 1.682 2.855c.75.795 1.723 1.415 2.887 1.84 1.154.423 2.539.637 4.115.637.605 0 1.137-.009 1.598-.025.463-.018.893-.049 1.283-.094.391-.043.768-.09 1.131-.142a42.69 42.69 0 0 0 1.17-.182c.494-.085.764-.193.904-.363a.868.868 0 0 0 .201-.582V18.82c0-.382.146-.489.195-.523.117-.085.387-.203 1.004-.279l.076-.021a.825.825 0 0 0 .346-.265c.104-.132.154-.311.154-.534v-.207a.962.962 0 0 0-.074-.373l-.083-.208zm27.152 6.509a3.484 3.484 0 0 1-.873-.247c-.219-.098-.361-.232-.434-.415L230.24 6.81l-.17-.028c-.109-.016-.209-.03-.303-.041a2.769 2.769 0 0 0-.289-.014c-.275 0-.652.106-.898.626l-6.197 14.812c-.109.23-.246.388-.418.475-.203.107-.561.21-1.025.303-.188.013-.619.121-.619.819v.207c0 .134.029.258.084.369l.096.191.211-.024c.457-.051.869-.083 1.242-.1.916-.044 1.713-.03 2.57.012.512.026.998.056 1.459.09l.27.02.053-.263c.039-.197.059-.364.059-.5 0-.634-.436-.766-.621-.792-.656-.102-.889-.207-.971-.261-.115-.077-.133-.146-.133-.208 0-.041.01-.1.023-.182a.609.609 0 0 1 .086-.225l1.264-3.378h4.979l1.287 3.471a.93.93 0 0 1 .061.289c0 .09-.025.164-.154.231-.131.067-.396.168-.926.27a.673.673 0 0 0-.361.25c-.102.132-.152.313-.152.536v.207c0 .134.027.258.084.369l.09.184.205-.015c.238-.017.527-.03.873-.038a50.33 50.33 0 0 0 1.076-.038 49.383 49.383 0 0 1 1.916-.052c.457 0 .951.013 1.477.038.531.026 1.07.057 1.617.09l.268.018.053-.261a2.79 2.79 0 0 0 .057-.526c-.004-.443-.234-.74-.651-.822zm-7.539-6.103h-3.539l1.791-4.627 1.748 4.627zm34.645-7.218c-.77-.781-1.74-1.409-2.883-1.871-1.137-.458-2.471-.69-3.961-.69h-5.971c-.234 0-.467-.01-.701-.025a19.07 19.07 0 0 0-.793-.039 14.994 14.994 0 0 1-.949-.063l-.227-.021-.086.211a.996.996 0 0 0-.074.373v.206c0 .184.025.329.08.448.076.167.229.28.484.343.699.119 1.023.249 1.17.336.104.06.223.168.223.468V22.17c0 .243-.084.388-.279.483-.273.133-.648.241-1.125.322a.747.747 0 0 0-.375.203c-.121.123-.178.309-.178.587v.207c0 .134.029.258.084.369l.09.182.205-.014c.527-.033 1.088-.063 1.678-.09a36.975 36.975 0 0 1 1.545-.038h5.275c1.562 0 2.939-.255 4.086-.76 1.148-.502 2.111-1.177 2.859-2.005a8.062 8.062 0 0 0 1.658-2.795 9.502 9.502 0 0 0 .529-3.11 9.376 9.376 0 0 0-.598-3.353 7.866 7.866 0 0 0-1.766-2.76zm-1.797 6.597c0 1.939-.508 3.487-1.506 4.609-.99 1.111-2.57 1.674-4.699 1.674-.453 0-.812-.017-1.068-.05a2.092 2.092 0 0 1-.559-.129c-.08-.037-.131-.079-.152-.125a.843.843 0 0 1-.051-.315V8.935h1.289c1.092 0 2.08.138 2.932.412.83.265 1.531.689 2.086 1.261.555.569.984 1.32 1.279 2.232.297.926.449 2.056.449 3.355zm31.186-6.935a8.753 8.753 0 0 0-2.865-1.869c-2.168-.87-4.863-.907-7.072.043a9.089 9.089 0 0 0-2.859 1.93 9.182 9.182 0 0 0-1.934 2.849 8.743 8.743 0 0 0-.705 3.494c0 1.305.234 2.519.693 3.606a8.845 8.845 0 0 0 1.893 2.838c.799.8 1.76 1.428 2.855 1.869 1.094.442 2.295.667 3.564.667a8.918 8.918 0 0 0 3.518-.707 9.216 9.216 0 0 0 2.875-1.917 9.004 9.004 0 0 0 1.93-2.85 8.81 8.81 0 0 0 .707-3.506c0-1.285-.232-2.494-.691-3.593a8.785 8.785 0 0 0-1.909-2.854zm-6.92-.556c.881 0 1.664.206 2.324.612.666.409 1.23.98 1.674 1.698.451.734.793 1.616 1.018 2.623.227 1.016.34 2.136.34 3.331 0 .807-.111 1.574-.332 2.274a5.919 5.919 0 0 1-.93 1.836 4.444 4.444 0 0 1-1.408 1.216 3.742 3.742 0 0 1-1.809.439c-.812 0-1.545-.204-2.18-.609-.643-.408-1.195-.99-1.639-1.725-.453-.749-.805-1.659-1.045-2.705-.242-1.05-.365-2.214-.365-3.457 0-.868.125-1.655.367-2.34.246-.686.574-1.272.975-1.746.4-.47.867-.833 1.391-1.08a3.81 3.81 0 0 1 1.619-.367zm32.513 7.962a5.822 5.822 0 0 0-1.738-1.657 11.502 11.502 0 0 0-2.195-1.057 30.762 30.762 0 0 1-2.115-.841c-.627-.277-1.156-.603-1.568-.965-.371-.328-.553-.755-.553-1.303 0-.722.24-1.243.732-1.589.52-.365 1.168-.549 1.922-.549.977 0 1.764.198 2.336.588.572.393 1.049 1.057 1.414 1.958.051.15.148.292.291.426.268.243.824.288 1.307.126l.256-.086-.053-.265c-.1-.499-.189-1.076-.268-1.712a37.61 37.61 0 0 1-.166-1.722l-.012-.195-.184-.071c-.936-.364-1.787-.629-2.529-.786-1.658-.351-3.391-.319-4.676.168-.713.27-1.33.643-1.836 1.104a4.672 4.672 0 0 0-1.168 1.654 5.23 5.23 0 0 0-.398 2.04c0 1.091.232 1.977.686 2.636.443.642 1 1.176 1.66 1.581.635.393 1.34.724 2.096.983a23.81 23.81 0 0 1 2.006.787c.59.269 1.086.604 1.48.996.363.365.541.862.541 1.523 0 .307-.055.602-.162.899a2.036 2.036 0 0 1-.471.74 2.34 2.34 0 0 1-.82.51c-.34.132-.762.199-1.252.199-.59 0-1.109-.064-1.549-.194a3.105 3.105 0 0 1-1.139-.6 3.993 3.993 0 0 1-.885-1.076 9.085 9.085 0 0 1-.723-1.637c-.092-.247-.209-.423-.359-.537-.307-.232-.924-.223-1.354-.053l-.238.095.051.25c.137.666.26 1.352.371 2.058.109.701.191 1.422.242 2.146l.012.176.158.077c.6.294 1.363.569 2.268.815.914.25 1.963.377 3.117.377 1.062 0 1.992-.149 2.762-.446.773-.296 1.424-.699 1.932-1.198a4.655 4.655 0 0 0 1.129-1.749 5.902 5.902 0 0 0 .354-2.01c-.001-1.048-.241-1.93-.712-2.614z" fill="#8D2339"/><g fill="#8D2339"><path d="M114.677 63.778v6.202h3.63c.326 0 .548-.132.669-.398.119-.266.223-.698.309-1.299.017-.14.068-.228.155-.271a.726.726 0 0 1 .333-.065c.052 0 .133.006.246.013.111.009.192.021.243.04-.034.393-.063.853-.089 1.376a27.73 27.73 0 0 0-.041 1.325 26.056 26.056 0 0 0 .13 2.523.506.506 0 0 1-.243.063 3.385 3.385 0 0 1-.246.013c-.308 0-.471-.119-.488-.358-.103-.652-.219-1.095-.349-1.327-.128-.231-.338-.347-.629-.347h-3.63v5.764c0 .361.224.601.67.722.446.121 1.201.181 2.266.181h1.08c.514 0 .948-.068 1.3-.205.353-.14.664-.331.939-.579.275-.25.516-.541.721-.877.205-.334.412-.708.618-1.12.051-.119.171-.179.36-.179.086 0 .189.025.308.076.12.054.241.103.361.156a4.767 4.767 0 0 1-.115.385 6.309 6.309 0 0 0-.117.361 3.308 3.308 0 0 0-.205.617 4.515 4.515 0 0 1-.155.541c-.034.17-.072.365-.116.579-.042.213-.086.419-.129.618-.043.196-.085.371-.128.527-.043.152-.072.256-.089.308-.069.137-.207.205-.413.205-.137 0-.334-.009-.592-.025-.257-.018-.536-.028-.836-.038s-.604-.022-.914-.039a14.878 14.878 0 0 0-.798-.026h-5.842c-.498 0-1.068.016-1.712.039-.644.026-1.223.058-1.737.09a.605.605 0 0 1-.05-.27v-.243c0-.26.086-.396.256-.413.652-.119 1.122-.248 1.403-.386.284-.138.426-.377.426-.72V64.421c0-.172-.027-.312-.079-.424a.636.636 0 0 0-.295-.284 2.633 2.633 0 0 0-.566-.205c-.23-.06-.527-.124-.888-.192-.17-.053-.256-.206-.256-.463v-.244c0-.079.016-.159.05-.245a49.67 49.67 0 0 0 3.423.128h5.277c.772 0 1.436-.025 1.993-.077.558-.051.94-.077 1.146-.077.19 0 .326.077.412.231.052.137.095.391.129.76.033.368.094.751.18 1.144.051.293.111.577.18.851.069.274.172.609.31 1.003-.086.036-.18.069-.284.104a.95.95 0 0 1-.309.052.435.435 0 0 1-.411-.232 11.211 11.211 0 0 0-.604-1.144 3.047 3.047 0 0 0-.669-.773 2.328 2.328 0 0 0-.876-.423 4.83 4.83 0 0 0-1.195-.13h-3.428z"/><path d="M109.311 79.508l-.046-.092a.72.72 0 0 1-.067-.338v-.243c0-.458.247-.55.395-.564.62-.115 1.08-.24 1.35-.371.232-.114.34-.298.34-.583V64.421a.885.885 0 0 0-.063-.359.5.5 0 0 0-.228-.213 2.52 2.52 0 0 0-.534-.192c-.229-.06-.526-.123-.878-.19-.184-.055-.381-.201-.381-.613v-.244c0-.1.019-.197.062-.302l.042-.104.11.008a47.513 47.513 0 0 0 3.412.128h5.277c.782 0 1.43-.025 1.979-.076a15.44 15.44 0 0 1 1.159-.078c.245 0 .434.108.546.312.066.17.111.432.147.818.033.361.094.74.177 1.127.052.299.112.581.179.845.067.271.171.604.306.991l.048.137-.136.056c-.088.035-.186.068-.291.105-.117.039-.237.06-.359.06a.586.586 0 0 1-.545-.312 10.813 10.813 0 0 0-.602-1.139 2.844 2.844 0 0 0-.634-.733 2.196 2.196 0 0 0-.818-.396 4.733 4.733 0 0 0-1.157-.124h-3.271v5.896h3.477c.266 0 .435-.098.529-.309.113-.252.214-.675.297-1.257.022-.188.103-.319.238-.385a.849.849 0 0 1 .401-.083c.055 0 .138.006.255.013.139.012.223.027.285.047l.113.041-.009.118c-.036.389-.066.851-.09 1.37-.026.519-.041.961-.041 1.318 0 .306.009.67.027 1.087.015.409.051.887.101 1.421l.01.091-.075.051a.66.66 0 0 1-.319.09 3.701 3.701 0 0 1-.257.013c-.527 0-.628-.314-.641-.502-.098-.617-.209-1.046-.33-1.263-.1-.183-.258-.268-.495-.268h-3.477v5.61c0 .182.058.44.558.572.428.117 1.176.177 2.225.177h1.08c.492 0 .91-.065 1.244-.195a2.84 2.84 0 0 0 .892-.55c.264-.238.496-.521.693-.843.203-.329.408-.703.612-1.107.048-.116.18-.265.497-.265.105 0 .227.028.369.088l.48.209-.032.127a5.505 5.505 0 0 1-.119.396 4.27 4.27 0 0 0-.113.354 3.311 3.311 0 0 0-.204.61 4.47 4.47 0 0 1-.161.559l-.109.557c-.043.214-.086.421-.129.621-.044.199-.086.376-.13.534-.043.156-.075.26-.091.314-.078.154-.227.312-.559.312-.139 0-.341-.009-.601-.026a26 26 0 0 0-.833-.037c-.301-.01-.607-.022-.916-.039a14.58 14.58 0 0 0-.791-.026h-5.842c-.463 0-1.006.013-1.706.039-.642.026-1.22.058-1.733.09l-.099.005zm3.54-.442h5.842c.226 0 .494.009.807.025.308.017.611.029.91.039.302.01.582.021.841.038.253.017.447.025.582.025.193 0 .25-.068.276-.121.006-.028.036-.131.079-.281a8.48 8.48 0 0 0 .126-.518c.043-.197.086-.402.129-.614l.115-.58c.055-.156.105-.332.155-.545.053-.233.126-.451.217-.646.025-.1.067-.226.11-.35.027-.077.053-.161.078-.246l-.241-.104a.67.67 0 0 0-.246-.063c-.183 0-.211.065-.219.087-.21.423-.42.803-.628 1.14a4.13 4.13 0 0 1-.748.91 3.224 3.224 0 0 1-.987.607c-.37.144-.826.217-1.355.217h-1.08c-1.092 0-1.846-.061-2.306-.188-.646-.172-.782-.567-.782-.868v-5.917h3.783c.346 0 .611.146.764.427.139.25.258.699.365 1.376.006.088.017.229.337.229a3.064 3.064 0 0 0 .325-.024 27.16 27.16 0 0 1-.119-2.422c0-.362.014-.81.041-1.333.023-.465.049-.883.079-1.246-.028-.003-.058-.007-.094-.009-.104-.007-.183-.013-.232-.013a.591.591 0 0 0-.264.049c-.015.007-.057.027-.072.151-.089.622-.194 1.062-.321 1.345-.147.318-.426.488-.81.488h-3.783v-6.509h3.577c.474 0 .89.045 1.233.134.355.091.669.243.933.451.265.214.502.486.706.814.2.324.407.713.612 1.159.089.16.319.174.534.101.047-.017.094-.032.138-.049a11.328 11.328 0 0 1-.264-.877c-.068-.27-.13-.559-.183-.86a9.212 9.212 0 0 1-.181-1.156c-.042-.441-.089-.634-.12-.719-.05-.086-.136-.133-.269-.133a15.5 15.5 0 0 0-1.131.076c-.558.053-1.215.078-2.007.078h-5.277c-.412 0-.902-.009-1.471-.025a52.707 52.707 0 0 1-1.841-.095.393.393 0 0 0-.009.084v.244c0 .271.108.303.148.315.345.064.645.131.883.191.237.061.438.134.598.219a.791.791 0 0 1 .364.354c.061.134.093.298.093.489v12.896c0 .397-.178.694-.512.858-.296.143-.78.277-1.442.397-.047.005-.132.015-.132.263v.243c0 .04.002.078.009.11a74.42 74.42 0 0 1 1.622-.084 55.915 55.915 0 0 1 1.715-.034zm23.78.462c-1.442 0-2.701-.224-3.784-.668-1.081-.447-1.973-1.061-2.676-1.842a7.664 7.664 0 0 1-1.583-2.754c-.352-1.054-.527-2.19-.527-3.409a9.65 9.65 0 0 1 .514-3.063 7.937 7.937 0 0 1 1.621-2.79c.739-.834 1.682-1.511 2.831-2.035 1.149-.522 2.523-.784 4.119-.784.875 0 1.693.061 2.457.181.764.119 1.592.299 2.484.54.034.462.103 1.054.205 1.775.103.721.249 1.424.438 2.11l-.336.065a1.763 1.763 0 0 1-.308.037.83.83 0 0 1-.347-.064c-.095-.043-.16-.132-.193-.27a6.855 6.855 0 0 0-.644-1.428 3.084 3.084 0 0 0-.863-.927 3.372 3.372 0 0 0-1.171-.502 7.033 7.033 0 0 0-1.569-.155c-.928 0-1.748.16-2.458.477a4.805 4.805 0 0 0-1.791 1.364c-.479.591-.844 1.304-1.092 2.137-.25.831-.373 1.772-.373 2.817 0 1.115.148 2.153.45 3.115.3.959.711 1.793 1.234 2.496a5.77 5.77 0 0 0 1.866 1.647 4.8 4.8 0 0 0 2.342.59c.687 0 1.275-.064 1.764-.191a3.598 3.598 0 0 0 1.261-.593 3.59 3.59 0 0 0 .901-1.015c.248-.414.475-.894.682-1.443a.527.527 0 0 1 .245-.295.724.724 0 0 1 .347-.092 2.193 2.193 0 0 1 .644.13c-.103.292-.21.623-.322.992-.113.367-.227.746-.349 1.131a19 19 0 0 0-.32 1.158 23.45 23.45 0 0 0-.245 1.119c-.84.154-1.699.268-2.574.334-.872.072-1.833.105-2.88.105z"/><path d="M136.631 79.682c-1.453 0-2.746-.229-3.842-.68-1.097-.455-2.017-1.087-2.73-1.879a7.886 7.886 0 0 1-1.616-2.811c-.355-1.061-.535-2.224-.535-3.457 0-1.023.176-2.071.523-3.112a8.133 8.133 0 0 1 1.65-2.843c.75-.847 1.72-1.542 2.884-2.072 1.166-.53 2.571-.798 4.181-.798.873 0 1.708.061 2.481.183.769.119 1.61.303 2.499.542l.105.029.009.106c.034.464.103 1.058.204 1.767.102.712.248 1.415.434 2.092l.044.158-.498.098a2.162 2.162 0 0 1-.337.041.957.957 0 0 1-.411-.079c-.141-.064-.234-.19-.277-.374a6.7 6.7 0 0 0-.627-1.382 2.935 2.935 0 0 0-.817-.882 3.24 3.24 0 0 0-1.12-.479 6.953 6.953 0 0 0-1.533-.151c-.898 0-1.703.155-2.396.464a4.669 4.669 0 0 0-1.733 1.32c-.465.573-.824 1.274-1.064 2.084-.243.813-.366 1.747-.366 2.773 0 1.095.148 2.128.442 3.069.294.939.702 1.764 1.212 2.45a5.594 5.594 0 0 0 1.816 1.604 4.672 4.672 0 0 0 2.268.571c.669 0 1.248-.062 1.725-.186a3.436 3.436 0 0 0 1.208-.568c.336-.253.625-.58.86-.972.246-.408.473-.885.67-1.418a.671.671 0 0 1 .317-.375.883.883 0 0 1 .419-.11c.088 0 .2.014.35.042.136.026.252.061.35.099l.138.055-.049.14c-.103.29-.208.617-.318.983l-.042.138c-.1.326-.202.659-.308.996-.125.399-.229.775-.319 1.149a23 23 0 0 0-.242 1.109l-.021.104-.104.02c-.848.156-1.719.271-2.587.337-.865.07-1.841.105-2.897.105zm.516-17.346c-1.566 0-2.929.26-4.055.771-1.125.512-2.062 1.184-2.78 1.995a7.817 7.817 0 0 0-1.59 2.737 9.516 9.516 0 0 0-.507 3.016c0 1.2.175 2.33.518 3.36a7.574 7.574 0 0 0 1.552 2.7c.684.76 1.565 1.366 2.621 1.804 1.058.436 2.311.655 3.725.655 1.048 0 2.014-.034 2.872-.104a24.485 24.485 0 0 0 2.454-.312c.062-.32.138-.665.227-1.023.091-.378.196-.761.323-1.167.106-.338.208-.671.307-.995l.042-.136c.094-.311.184-.594.271-.851a1.714 1.714 0 0 0-.156-.037c-.3-.057-.407-.049-.565.037a.375.375 0 0 0-.175.213 8.852 8.852 0 0 1-.694 1.469 3.76 3.76 0 0 1-.939 1.059 3.794 3.794 0 0 1-1.314.619c-.503.131-1.109.196-1.803.196a4.978 4.978 0 0 1-2.417-.61 5.947 5.947 0 0 1-1.915-1.689c-.53-.713-.954-1.568-1.257-2.542a10.558 10.558 0 0 1-.458-3.16c0-1.057.128-2.02.379-2.862.252-.848.63-1.584 1.121-2.189a4.962 4.962 0 0 1 1.845-1.406c.733-.324 1.58-.49 2.521-.49.604 0 1.143.054 1.603.159.462.106.874.284 1.224.526.351.24.654.567.906.971.243.393.465.883.658 1.459.036.146.094.172.111.181.074.034.17.05.284.05.043 0 .126-.006.28-.035l.172-.033c-.17-.64-.303-1.301-.399-1.97a28.666 28.666 0 0 1-.198-1.677 24.035 24.035 0 0 0-2.363-.51 15.718 15.718 0 0 0-2.431-.179zm10.963 8.519c0-1.201.226-2.323.681-3.372a8.866 8.866 0 0 1 1.866-2.753 8.804 8.804 0 0 1 2.766-1.866 8.478 8.478 0 0 1 3.385-.682c1.235 0 2.385.214 3.449.644a8.298 8.298 0 0 1 2.766 1.802 8.397 8.397 0 0 1 1.841 2.752c.444 1.065.669 2.224.669 3.476a8.488 8.488 0 0 1-.682 3.385 8.65 8.65 0 0 1-1.866 2.753 8.862 8.862 0 0 1-2.779 1.854 8.576 8.576 0 0 1-3.398.682c-1.234 0-2.385-.213-3.449-.645a8.156 8.156 0 0 1-2.752-1.799 8.517 8.517 0 0 1-1.828-2.741c-.447-1.058-.669-2.218-.669-3.49zm9.084 7.334c.721 0 1.373-.157 1.956-.476a4.693 4.693 0 0 0 1.506-1.301c.421-.547.745-1.19.978-1.929a7.839 7.839 0 0 0 .346-2.366c0-1.22-.114-2.351-.346-3.398-.233-1.047-.584-1.952-1.057-2.716-.471-.763-1.063-1.365-1.774-1.801-.713-.438-1.541-.657-2.485-.657-.601 0-1.184.134-1.75.4a4.359 4.359 0 0 0-1.491 1.158c-.431.505-.773 1.118-1.03 1.84-.257.72-.386 1.535-.386 2.445 0 1.269.124 2.444.373 3.525.25 1.079.609 2.012 1.081 2.793.473.78 1.052 1.389 1.739 1.827.685.439 1.465.656 2.34.656z"/><path d="M156.808 79.682c-1.253 0-2.433-.221-3.506-.655a8.39 8.39 0 0 1-2.803-1.832 8.69 8.69 0 0 1-1.861-2.791c-.453-1.069-.682-2.262-.682-3.548 0-1.216.234-2.372.694-3.434.46-1.057 1.099-2 1.898-2.801a9.023 9.023 0 0 1 2.814-1.899 8.712 8.712 0 0 1 3.445-.691c1.248 0 2.428.219 3.507.652a8.53 8.53 0 0 1 2.815 1.836 8.6 8.6 0 0 1 1.874 2.802c.452 1.082.681 2.271.681 3.535a8.66 8.66 0 0 1-.693 3.447 8.843 8.843 0 0 1-1.899 2.8 9.043 9.043 0 0 1-2.827 1.885 8.76 8.76 0 0 1-3.457.694zm0-17.346a8.382 8.382 0 0 0-3.324.669 8.662 8.662 0 0 0-2.718 1.833 8.761 8.761 0 0 0-1.836 2.707 8.286 8.286 0 0 0-.667 3.311c0 1.244.222 2.397.657 3.428a8.36 8.36 0 0 0 1.796 2.691 8.01 8.01 0 0 0 2.701 1.768c1.037.42 2.177.633 3.391.633a8.449 8.449 0 0 0 3.339-.67 8.737 8.737 0 0 0 2.73-1.82 8.548 8.548 0 0 0 1.833-2.705 8.348 8.348 0 0 0 .671-3.324c0-1.223-.223-2.373-.658-3.417a8.307 8.307 0 0 0-1.807-2.702 8.2 8.2 0 0 0-2.715-1.769c-1.042-.42-2.184-.633-3.393-.633zm.386 16.007c-.902 0-1.718-.228-2.424-.679-.706-.45-1.307-1.081-1.787-1.877-.477-.789-.847-1.744-1.1-2.838-.25-1.086-.376-2.285-.376-3.56 0-.923.133-1.763.395-2.498.265-.737.62-1.372 1.058-1.887.44-.521.959-.925 1.543-1.198a4.237 4.237 0 0 1 1.814-.414c.966 0 1.829.229 2.565.68a5.588 5.588 0 0 1 1.826 1.852c.478.774.84 1.704 1.075 2.763a15.97 15.97 0 0 1 .35 3.432 8.02 8.02 0 0 1-.354 2.412 6.399 6.399 0 0 1-1.002 1.977 4.911 4.911 0 0 1-1.555 1.342 4.194 4.194 0 0 1-2.028.493zm-.875-14.644a3.94 3.94 0 0 0-1.685.385 4.257 4.257 0 0 0-1.439 1.119c-.415.486-.751 1.09-1.002 1.792-.251.701-.377 1.506-.377 2.395 0 1.251.124 2.427.37 3.489.244 1.063.602 1.988 1.063 2.75.455.755 1.023 1.353 1.688 1.776.657.418 1.417.631 2.259.631.692 0 1.326-.153 1.883-.457a4.568 4.568 0 0 0 1.456-1.258 6.02 6.02 0 0 0 .954-1.882 7.72 7.72 0 0 0 .34-2.321c0-1.205-.115-2.337-.342-3.364-.228-1.026-.576-1.924-1.037-2.669-.457-.739-1.036-1.329-1.726-1.751-.688-.422-1.496-.635-2.405-.635zm27.976 9.91v-9.138c0-.375-.129-.643-.385-.797-.258-.154-.713-.273-1.365-.359-.223-.053-.334-.215-.334-.489v-.207c0-.085.018-.17.051-.256.43.051.85.086 1.262.103s.891.025 1.439.025c.551 0 1.021-.009 1.416-.025s.789-.052 1.186-.103a2.87 2.87 0 0 1 .051.463c0 .291-.104.453-.311.489-.564.086-.949.205-1.156.359s-.311.404-.311.746v15.058a2.225 2.225 0 0 1-.348.038c-.162.008-.27.012-.322.012a.971.971 0 0 1-.385-.089c-.137-.062-.281-.184-.438-.373l-10.139-12.869v11.119c0 .17.012.311.037.424a.461.461 0 0 0 .207.282c.111.08.273.146.49.207.213.06.502.124.861.192a.443.443 0 0 1 .219.115c.061.062.088.185.088.374 0 .119-.016.265-.051.437-.428-.032-.832-.063-1.209-.09a21.556 21.556 0 0 0-1.312-.039c-.498 0-.973.016-1.428.039-.455.026-.873.058-1.248.09a.5.5 0 0 1-.053-.231v-.205c0-.17.031-.293.09-.359a.392.392 0 0 1 .219-.13c.617-.103 1.029-.232 1.236-.386.205-.154.309-.394.309-.72V64.292c0-.273-.092-.482-.27-.629-.182-.146-.59-.262-1.225-.348-.205-.053-.307-.215-.307-.489v-.115c0-.044.008-.092.025-.143l.025-.205c.24.017.471.029.695.038.223.009.443.021.668.038a47.47 47.47 0 0 0 2.085.052c.496 0 .822.021.977.063a.92.92 0 0 1 .412.246l8.549 10.809z"/><path d="M185.168 79.682c-.143 0-.291-.034-.445-.102-.166-.075-.328-.211-.496-.417L174.36 66.64v10.677c0 .16.012.292.035.39.016.073.062.134.143.191.096.066.244.128.443.184.209.058.496.123.852.191a.574.574 0 0 1 .297.155c.094.098.135.25.135.483 0 .132-.018.289-.055.467l-.027.134-.135-.011-1.207-.09a25.18 25.18 0 0 0-2.723 0c-.453.026-.867.058-1.244.09l-.104.009-.045-.094a.63.63 0 0 1-.07-.3v-.205c0-.213.045-.364.131-.462a.522.522 0 0 1 .303-.177c.738-.123 1.045-.263 1.174-.358.164-.125.246-.321.246-.598V64.292c0-.227-.068-.393-.211-.511-.109-.087-.396-.213-1.148-.314-.211-.052-.441-.202-.441-.641v-.115c0-.062.012-.127.035-.193l.035-.316.145.009c.24.017.469.029.691.038.225.009.449.021.676.038.369.018.75.03 1.137.039.383.011.697.013.936.013.514 0 .848.022 1.018.068.178.051.34.146.479.285l8.283 10.477v-8.696c0-.321-.102-.54-.311-.665-.236-.144-.676-.257-1.305-.34-.184-.042-.469-.177-.469-.641v-.207c0-.102.02-.205.062-.311l.043-.111.117.014c.451.054.859.087 1.248.102.408.017.891.025 1.436.025s1.02-.009 1.41-.025c.375-.015.758-.048 1.17-.102l.143-.018.027.143a2.964 2.964 0 0 1 .055.491c0 .492-.273.611-.438.64-.541.082-.906.193-1.09.332-.166.125-.248.329-.248.623V79.6l-.115.029a2.394 2.394 0 0 1-.377.043c-.174.004-.281.01-.334.01zm-11.115-13.925l10.414 13.215c.133.163.262.275.381.328a.774.774 0 0 0 .32.075 7.67 7.67 0 0 0 .518-.029V64.421c0-.392.125-.684.371-.868.227-.171.629-.299 1.227-.39.051-.009.178-.029.178-.337 0-.047-.004-.111-.01-.193-.006-.031-.01-.066-.014-.1-.367.043-.713.072-1.053.086-.393.017-.873.025-1.422.025s-1.035-.009-1.445-.025a15.682 15.682 0 0 1-1.146-.09.477.477 0 0 0-.008.09v.207c0 .256.109.315.215.339.668.088 1.133.212 1.41.378.305.184.459.495.459.929v9.577l-8.816-11.153a.779.779 0 0 0-.332-.193c-.098-.025-.34-.058-.938-.058a52.34 52.34 0 0 1-2.091-.052 19.344 19.344 0 0 0-.67-.038c-.18-.008-.363-.017-.555-.029l-.006.063a.397.397 0 0 0-.025.122v.115c0 .292.135.325.193.341.65.087 1.076.211 1.281.376.217.178.326.429.326.749v13.024c0 .373-.125.657-.369.843-.23.171-.656.306-1.303.413a.225.225 0 0 0-.127.08c-.027.029-.055.111-.055.259v.205c0 .024.002.048.006.069.348-.029.725-.057 1.135-.081a25.03 25.03 0 0 1 2.756 0c.34.024.697.052 1.076.08a1.8 1.8 0 0 0 .023-.273c0-.212-.041-.263-.045-.268a.273.273 0 0 0-.139-.071 11.123 11.123 0 0 1-.873-.196 1.7 1.7 0 0 1-.537-.229.606.606 0 0 1-.268-.372 2.111 2.111 0 0 1-.043-.458v-11.56zm18.529 5.098c0-1.201.227-2.323.682-3.372a8.78 8.78 0 0 1 4.633-4.619 8.482 8.482 0 0 1 3.385-.682c1.234 0 2.385.214 3.449.644a8.298 8.298 0 0 1 2.766 1.802 8.431 8.431 0 0 1 1.842 2.752c.445 1.065.668 2.224.668 3.476a8.488 8.488 0 0 1-.682 3.385 8.588 8.588 0 0 1-1.867 2.753 8.853 8.853 0 0 1-2.777 1.854 8.576 8.576 0 0 1-3.398.682c-1.234 0-2.385-.213-3.449-.645a8.146 8.146 0 0 1-2.752-1.799 8.517 8.517 0 0 1-1.828-2.741c-.449-1.058-.672-2.218-.672-3.49zm9.084 7.334c.723 0 1.373-.157 1.957-.476a4.672 4.672 0 0 0 1.506-1.301c.42-.547.746-1.19.979-1.929a7.839 7.839 0 0 0 .348-2.366c0-1.22-.115-2.351-.348-3.398-.232-1.047-.584-1.952-1.057-2.716-.471-.763-1.064-1.365-1.775-1.801-.713-.438-1.539-.657-2.484-.657-.6 0-1.184.134-1.75.4a4.374 4.374 0 0 0-1.49 1.158c-.432.505-.773 1.118-1.031 1.84-.258.72-.387 1.535-.387 2.445 0 1.269.127 2.444.375 3.525.248 1.079.609 2.012 1.08 2.793.471.78 1.051 1.389 1.738 1.827.685.439 1.464.656 2.339.656z"/><path d="M201.281 79.682c-1.254 0-2.434-.221-3.508-.655a8.4 8.4 0 0 1-2.803-1.832 8.739 8.739 0 0 1-1.861-2.791c-.451-1.069-.68-2.262-.68-3.548a8.57 8.57 0 0 1 .693-3.434c.459-1.057 1.1-2 1.898-2.801a9.035 9.035 0 0 1 2.814-1.899 8.705 8.705 0 0 1 3.445-.691c1.248 0 2.428.219 3.506.652a8.523 8.523 0 0 1 2.816 1.836 8.587 8.587 0 0 1 1.875 2.802c.451 1.082.682 2.271.682 3.535a8.662 8.662 0 0 1-.695 3.447 8.84 8.84 0 0 1-1.898 2.8 9.071 9.071 0 0 1-2.828 1.885 8.758 8.758 0 0 1-3.456.694zm0-17.346a8.385 8.385 0 0 0-3.324.669 8.657 8.657 0 0 0-2.717 1.833 8.761 8.761 0 0 0-1.836 2.707 8.27 8.27 0 0 0-.67 3.311c0 1.244.223 2.397.658 3.428a8.373 8.373 0 0 0 1.795 2.691 8.01 8.01 0 0 0 2.703 1.768c1.035.42 2.178.633 3.391.633a8.44 8.44 0 0 0 3.338-.67 8.714 8.714 0 0 0 2.73-1.82 8.545 8.545 0 0 0 1.832-2.705 8.332 8.332 0 0 0 .672-3.324c0-1.223-.223-2.373-.658-3.417a8.292 8.292 0 0 0-1.807-2.702 8.21 8.21 0 0 0-2.717-1.769c-1.04-.42-2.181-.633-3.39-.633zm.385 16.007c-.9 0-1.717-.228-2.424-.679-.703-.45-1.305-1.081-1.785-1.877-.477-.789-.848-1.744-1.1-2.838-.25-1.086-.377-2.285-.377-3.56 0-.923.133-1.763.395-2.498.266-.737.619-1.372 1.059-1.887a4.538 4.538 0 0 1 1.543-1.198 4.247 4.247 0 0 1 1.814-.414c.967 0 1.828.229 2.566.68a5.573 5.573 0 0 1 1.824 1.852c.479.774.84 1.704 1.074 2.763a15.97 15.97 0 0 1 .35 3.432 8.02 8.02 0 0 1-.354 2.412 6.313 6.313 0 0 1-1.002 1.977 4.894 4.894 0 0 1-1.553 1.342 4.205 4.205 0 0 1-2.03.493zm-.875-14.644c-.572 0-1.141.129-1.686.385a4.296 4.296 0 0 0-1.439 1.119c-.414.486-.75 1.09-1.002 1.792-.25.701-.377 1.506-.377 2.395 0 1.251.123 2.427.369 3.489.244 1.063.602 1.988 1.064 2.75.453.755 1.023 1.353 1.688 1.776.656.418 1.418.631 2.258.631.693 0 1.326-.153 1.885-.457a4.603 4.603 0 0 0 1.457-1.258c.406-.53.727-1.164.953-1.882.225-.718.34-1.498.34-2.321 0-1.205-.117-2.337-.344-3.364-.229-1.026-.576-1.924-1.035-2.669a5.274 5.274 0 0 0-1.725-1.751c-.689-.422-1.498-.635-2.406-.635zm30.68-.718a.756.756 0 0 1 .334-.362c.154-.085.531-.128 1.133-.128.137 0 .338-.004.604-.013l.863-.026a38.462 38.462 0 0 0 1.723-.089.675.675 0 0 1 .053.256v.207c0 .274-.096.437-.283.489-.344.05-.613.103-.811.154a1.276 1.276 0 0 0-.451.193.56.56 0 0 0-.205.269 1.134 1.134 0 0 0-.051.36c0 .035.014.361.039.979s.062 1.381.115 2.29c.051.909.102 1.896.154 2.96.051 1.062.102 2.071.154 3.023s.094 1.78.129 2.484c.033.703.061 1.132.076 1.287 0 .17.021.311.064.424a.69.69 0 0 0 .232.296c.111.087.27.159.477.219.205.061.471.115.797.167.189.034.283.196.283.489 0 .119-.018.265-.051.437-.604-.032-1.145-.063-1.635-.09a35.27 35.27 0 0 0-1.66-.039 51.325 51.325 0 0 0-3.423.129 2.396 2.396 0 0 1-.051-.437c0-.189.029-.315.09-.386.059-.069.117-.104.168-.104.703-.119 1.158-.26 1.363-.424s.311-.415.311-.761c0-.05-.016-.325-.039-.824a111.58 111.58 0 0 1-.078-1.853c-.027-.736-.061-1.533-.104-2.393-.043-.857-.086-1.663-.129-2.419s-.076-1.406-.102-1.957a15.637 15.637 0 0 0-.064-1.003l-5.277 12.277a2.979 2.979 0 0 1-.217.348.3.3 0 0 1-.246.114h-.154a.367.367 0 0 1-.154-.024l-5.971-14.31c-.016.223-.037.673-.062 1.351-.027.678-.062 1.455-.105 2.329-.041.875-.086 1.798-.127 2.768-.045.969-.082 1.863-.117 2.688-.033.823-.064 1.516-.09 2.073a35.07 35.07 0 0 0-.037.914c0 .153.016.287.051.397a.626.626 0 0 0 .205.297c.104.087.258.157.465.219.205.06.488.124.848.192.188.034.283.196.283.489 0 .052-.004.117-.012.193-.01.077-.021.157-.039.243l-1.287-.09a20.354 20.354 0 0 0-1.184-.039c-.344 0-.773.016-1.289.039-.514.026-.977.058-1.389.09a.526.526 0 0 1-.051-.231v-.205c0-.189.025-.312.078-.374a.347.347 0 0 1 .205-.115c.531-.119.918-.258 1.156-.411.242-.155.379-.385.414-.694 0-.139.018-.555.051-1.249.035-.694.078-1.518.129-2.471a1134.757 1134.757 0 0 0 .297-6.022 472.989 472.989 0 0 0 .141-3.282c0-.291-.094-.501-.283-.629-.189-.129-.6-.245-1.236-.348-.188-.017-.281-.182-.281-.489v-.207c0-.085.016-.17.051-.256a46.474 46.474 0 0 0 2.137.089l1.158.026c.359.009.617.013.771.013.309 0 .549.014.721.038.17.025.309.057.412.09a.403.403 0 0 1 .219.156c.041.068.08.137.117.206l4.785 11.554 4.889-11.551z"/><path d="M225.756 79.682h-.154a.482.482 0 0 1-.221-.04l-.051-.025-.023-.053-5.713-13.691c-.008.193-.018.419-.027.679a291.32 291.32 0 0 1-.104 2.331 642.23 642.23 0 0 0-.244 5.454c-.035.825-.064 1.517-.09 2.074-.027.553-.039.854-.039.907 0 .14.014.258.045.353a.474.474 0 0 0 .156.225c.086.07.223.134.408.188.201.058.482.124.836.191.184.032.408.171.408.639a3.489 3.489 0 0 1-.055.466l-.025.135-.137-.011c-.473-.034-.895-.064-1.285-.09a18.967 18.967 0 0 0-1.174-.039c-.314 0-.723.013-1.281.039-.512.026-.973.058-1.385.09l-.104.009-.045-.094a.652.652 0 0 1-.066-.3v-.205c0-.229.035-.379.111-.472a.496.496 0 0 1 .297-.167c.502-.113.873-.245 1.104-.391a.757.757 0 0 0 .342-.583c-.002-.115.014-.48.049-1.239.035-.695.078-1.518.129-2.471.053-.953.104-1.964.156-3.037l.141-2.976a580.3 580.3 0 0 0 .104-2.31c.025-.615.039-.938.039-.975 0-.238-.07-.404-.217-.502-.117-.08-.416-.201-1.174-.324-.146-.013-.412-.114-.412-.64v-.207c0-.105.021-.21.062-.312l.041-.105.113.009a42.508 42.508 0 0 0 2.127.089l1.16.026c.359.011.615.013.768.013.312 0 .562.014.742.039.174.027.32.059.438.097.143.051.24.122.303.221.043.072.086.145.121.219l4.652 11.226 4.746-11.218a.927.927 0 0 1 .402-.436c.115-.063.365-.147 1.207-.147.135 0 .334-.002.598-.013l.865-.026c.309-.007.615-.021.922-.038.309-.018.572-.034.793-.051l.113-.009.043.105a.879.879 0 0 1 .061.312v.207c0 .436-.215.588-.395.636a8.635 8.635 0 0 0-.812.156 1.1 1.1 0 0 0-.396.167.407.407 0 0 0-.154.196.977.977 0 0 0-.043.311c0 .037.014.359.037.975.027.615.066 1.378.117 2.287.051.908.104 1.896.154 2.96.051 1.064.104 2.07.154 3.022l.131 2.485c.029.663.057 1.118.074 1.277.002.169.02.292.055.387a.543.543 0 0 0 .182.23c.098.072.238.139.426.191.195.057.451.11.779.165.191.032.412.171.412.639 0 .132-.018.289-.055.467l-.025.131-1.766-.098a34.382 34.382 0 0 0-1.652-.039 48.502 48.502 0 0 0-3.413.129l-.133.011-.027-.134a2.34 2.34 0 0 1-.055-.467c0-.23.039-.386.125-.485.09-.104.186-.157.285-.157.814-.141 1.143-.29 1.27-.39.168-.135.25-.346.25-.642 0-.05-.012-.322-.039-.815-.025-.499-.053-1.117-.078-1.856-.025-.735-.059-1.531-.102-2.391-.043-.855-.086-1.662-.129-2.418-.043-.755-.076-1.407-.104-1.957a25.029 25.029 0 0 0-.018-.372l-5.027 11.7a3.376 3.376 0 0 1-.238.38.455.455 0 0 1-.366.173zm-.197-.309a.282.282 0 0 0 .043.002h.154a.146.146 0 0 0 .127-.058c.047-.063.113-.167.203-.327l5.484-12.765.078.542c.018.128.039.471.064 1.018.025.55.061 1.2.104 1.955.043.756.086 1.562.129 2.421s.076 1.657.102 2.395c.025.736.053 1.354.078 1.852.025.502.039.78.039.83 0 .39-.123.687-.365.882-.23.18-.699.329-1.436.453-.02.002-.041.009-.076.054-.014.014-.055.076-.055.285 0 .078.01.171.025.274a49.71 49.71 0 0 1 3.297-.119c.584 0 1.145.013 1.668.038l1.5.084a1.87 1.87 0 0 0 .023-.277c0-.311-.113-.331-.156-.339a6.944 6.944 0 0 1-.814-.171 1.608 1.608 0 0 1-.525-.242.839.839 0 0 1-.281-.363 1.37 1.37 0 0 1-.074-.479 27.27 27.27 0 0 1-.076-1.28c-.035-.704-.08-1.531-.131-2.484-.051-.951-.102-1.96-.154-3.023-.051-1.062-.104-2.049-.154-2.958s-.09-1.674-.117-2.293c-.023-.622-.037-.95-.037-.985 0-.153.02-.291.061-.408a.703.703 0 0 1 .26-.343c.119-.091.283-.163.502-.22.201-.053.48-.106.828-.158.029-.009.152-.042.152-.337v-.207a.399.399 0 0 0-.012-.095c-.195.015-.422.027-.678.042a26.28 26.28 0 0 1-.93.039l-.861.026c-.268.009-.471.013-.609.013-.748 0-.984.068-1.059.109a.604.604 0 0 0-.27.289l-5.031 11.889-4.926-11.892c-.027-.056-.066-.12-.105-.185-.023-.036-.068-.067-.139-.092a2.476 2.476 0 0 0-.385-.082 5.116 5.116 0 0 0-.697-.037c-.154 0-.414-.004-.775-.013l-1.158-.026a46.573 46.573 0 0 1-1.213-.039c-.33-.015-.6-.027-.809-.042a.502.502 0 0 0-.01.095v.207c0 .324.107.333.145.337.674.108 1.098.229 1.307.372.232.159.352.413.352.757 0 .035-.014.363-.039.985-.025.617-.061 1.387-.104 2.304l-.141 2.985a604.479 604.479 0 0 1-.156 3.039c-.051.953-.094 1.776-.129 2.468a46.435 46.435 0 0 0-.051 1.243c-.041.37-.201.642-.48.822-.26.165-.666.311-1.209.434-.057.011-.094.03-.121.064-.004.003-.043.057-.043.274v.205a.37.37 0 0 0 .006.069c.383-.029.809-.057 1.273-.081.566-.026.979-.038 1.297-.038.375 0 .766.013 1.193.038.355.024.738.052 1.15.081l.014-.098c.006-.069.012-.129.012-.177 0-.311-.115-.331-.158-.339a10.216 10.216 0 0 1-.865-.196c-.229-.067-.398-.148-.518-.248a.779.779 0 0 1-.256-.37 1.524 1.524 0 0 1-.057-.441c0-.053.014-.359.039-.921l.09-2.073c.035-.823.072-1.719.115-2.688s.086-1.892.129-2.768c.043-.874.076-1.649.104-2.328.023-.653.047-1.123.062-1.355l.295-.048 5.941 14.237zm22.048-2.057c0 .17.012.311.037.424a.54.54 0 0 0 .205.296c.111.087.275.159.49.219.215.061.502.115.863.167.17.034.256.18.256.438 0 .051-.004.127-.012.23-.01.103-.023.188-.039.257-.549-.032-1.137-.063-1.764-.09a46.72 46.72 0 0 0-1.66-.039c-.498 0-1.055.016-1.672.039-.619.026-1.201.058-1.75.09a.56.56 0 0 1-.053-.257v-.23c0-.275.086-.421.258-.438.359-.052.648-.106.863-.167.213-.06.373-.132.475-.219a.621.621 0 0 0 .207-.296 1.53 1.53 0 0 0 .051-.424V64.421c0-.172-.018-.312-.051-.424a.633.633 0 0 0-.207-.296c-.102-.086-.262-.159-.475-.219a6.662 6.662 0 0 0-.863-.167c-.172-.053-.258-.198-.258-.438v-.232c0-.103.018-.196.053-.282.549.033 1.131.063 1.75.089.617.026 1.174.039 1.672.039.48 0 1.035-.013 1.66-.039a87.144 87.144 0 0 0 1.764-.089 3.317 3.317 0 0 1 .051.514c0 .239-.086.385-.256.438-.361.05-.648.106-.863.167-.215.06-.379.133-.49.219a.543.543 0 0 0-.205.296 1.983 1.983 0 0 0-.037.424v12.895z"/><path d="M249.527 79.509l-.129-.008a116.53 116.53 0 0 0-1.76-.09 44.012 44.012 0 0 0-1.654-.039c-.463 0-.992.013-1.668.039-.615.026-1.197.058-1.746.09l-.1.007-.045-.092a.69.69 0 0 1-.068-.325v-.23c0-.48.248-.575.396-.59.354-.053.631-.106.836-.163.193-.053.334-.116.418-.188a.443.443 0 0 0 .156-.225c.031-.096.045-.223.045-.379V64.421c0-.155-.014-.283-.043-.379a.472.472 0 0 0-.158-.224 1.18 1.18 0 0 0-.418-.189 6.897 6.897 0 0 0-.844-.162c-.158-.047-.389-.177-.389-.589v-.232c0-.124.02-.234.062-.339l.041-.103.109.006c.549.033 1.131.063 1.746.089.615.026 1.178.039 1.668.039.477 0 1.033-.013 1.654-.039a87.43 87.43 0 0 0 1.76-.089l.135-.009.025.135c.018.09.031.188.041.297s.014.189.014.245c0 .412-.23.542-.367.584-.385.056-.66.11-.863.167a1.338 1.338 0 0 0-.439.194.367.367 0 0 0-.148.209c-.023.1-.035.231-.035.389v12.896c0 .156.012.287.035.391a.382.382 0 0 0 .148.209c.096.071.242.137.438.191.205.057.48.11.844.163.15.029.389.143.389.59a2.83 2.83 0 0 1-.057.524l-.029.124zm-6.853-16.985a.77.77 0 0 0-.01.121v.232c0 .246.104.276.148.29.354.05.643.105.859.167.236.066.41.147.533.25a.758.758 0 0 1 .254.367c.039.126.057.279.057.469v12.896c0 .188-.018.343-.057.469a.763.763 0 0 1-.254.369c-.121.101-.295.182-.533.247a7.28 7.28 0 0 1-.881.173c-.037.003-.127.013-.127.286v.23c0 .035.002.068.008.098.514-.03 1.061-.059 1.635-.084a43.87 43.87 0 0 1 1.678-.038c.451 0 .98.012 1.666.038a106.4 106.4 0 0 1 1.631.083c.004-.033.01-.071.012-.109.01-.099.014-.171.014-.218 0-.263-.098-.28-.135-.288a6.895 6.895 0 0 1-.871-.171 1.577 1.577 0 0 1-.543-.243.658.658 0 0 1-.262-.384 2.084 2.084 0 0 1-.043-.458V64.421c0-.18.014-.334.043-.457a.68.68 0 0 1 .262-.384c.127-.099.305-.179.543-.245a7 7 0 0 1 .879-.172c.023-.009.127-.039.127-.285 0-.05-.004-.12-.012-.218-.006-.049-.01-.093-.018-.136-.508.03-1.051.059-1.627.081a40.63 40.63 0 0 1-1.666.039c-.496 0-1.061-.013-1.678-.039a99.734 99.734 0 0 1-1.632-.081zm23.412 4.136a1.524 1.524 0 0 1-.49.077c-.24 0-.412-.047-.514-.141a.713.713 0 0 1-.207-.296c-.395-.979-.904-1.684-1.531-2.111-.627-.429-1.463-.644-2.51-.644-.822 0-1.521.202-2.096.605-.576.403-.863 1.018-.863 1.841 0 .635.221 1.145.656 1.531.438.386.988.724 1.648 1.016.658.292 1.371.575 2.137.851.762.275 1.473.617 2.135 1.029.66.41 1.209.935 1.648 1.569.436.634.654 1.45.654 2.444 0 .652-.111 1.287-.336 1.904a4.3 4.3 0 0 1-1.053 1.635c-.48.473-1.09.851-1.828 1.133-.738.283-1.621.424-2.65.424-1.133 0-2.146-.122-3.037-.366-.893-.242-1.631-.507-2.213-.795a27.284 27.284 0 0 0-.244-2.171 42.403 42.403 0 0 0-.375-2.072c.172-.067.369-.104.594-.104.205 0 .359.038.463.117.102.076.188.21.256.397.225.653.473 1.216.748 1.688.273.471.592.856.951 1.155.361.302.777.52 1.25.657.471.138 1.016.207 1.633.207.531 0 .986-.075 1.365-.221.375-.146.686-.34.926-.579.238-.242.42-.524.541-.853.119-.324.18-.66.18-1.005 0-.737-.211-1.319-.631-1.74a5.31 5.31 0 0 0-1.57-1.055 23.18 23.18 0 0 0-2.033-.8 10.072 10.072 0 0 1-2.033-.953 5.238 5.238 0 0 1-1.568-1.496c-.422-.609-.631-1.431-.631-2.461 0-.688.123-1.328.373-1.923a4.382 4.382 0 0 1 1.092-1.546 5.465 5.465 0 0 1 1.74-1.044c.676-.258 1.453-.386 2.328-.386.721 0 1.445.078 2.174.231.729.154 1.559.412 2.484.772.033.515.09 1.094.168 1.736.076.649.165 1.229.269 1.743z"/><path d="M260.887 79.682c-1.141 0-2.176-.125-3.076-.372-.896-.243-1.65-.513-2.242-.805l-.078-.04-.008-.088a25.906 25.906 0 0 0-.24-2.157 48.914 48.914 0 0 0-.373-2.065l-.025-.127.119-.047c.191-.075.41-.113.648-.113.244 0 .426.049.557.148.123.094.225.246.307.465a9.39 9.39 0 0 0 .736 1.665c.264.454.572.829.916 1.115.34.284.74.496 1.195.629s.992.2 1.59.2c.51 0 .949-.071 1.309-.209.355-.139.646-.32.875-.546.227-.229.393-.489.504-.796a2.78 2.78 0 0 0 .172-.953c0-.693-.197-1.242-.586-1.632a5.174 5.174 0 0 0-1.525-1.024 23.532 23.532 0 0 0-2.021-.794 10.156 10.156 0 0 1-2.062-.967 5.404 5.404 0 0 1-1.615-1.54c-.436-.632-.658-1.49-.658-2.548 0-.705.131-1.371.387-1.982a4.544 4.544 0 0 1 1.131-1.6 5.597 5.597 0 0 1 1.785-1.073c.691-.263 1.492-.396 2.385-.396.723 0 1.465.078 2.205.234.744.157 1.588.421 2.508.779l.092.035.006.098c.033.503.09 1.085.166 1.729.078.643.17 1.222.27 1.725l.027.132-.129.043a1.668 1.668 0 0 1-.539.086c-.281 0-.484-.06-.617-.183a.85.85 0 0 1-.248-.358c-.379-.938-.875-1.624-1.473-2.033-.6-.408-1.414-.617-2.424-.617-.785 0-1.461.193-2.01.577-.535.377-.797.938-.797 1.716 0 .593.197 1.057.605 1.416.422.372.963.705 1.609.99a30.74 30.74 0 0 0 2.125.847c.773.278 1.502.63 2.164 1.043a5.738 5.738 0 0 1 1.693 1.613c.453.657.684 1.51.684 2.531a5.72 5.72 0 0 1-.346 1.958 4.483 4.483 0 0 1-1.09 1.69c-.494.486-1.129.879-1.879 1.167-.756.287-1.666.434-2.709.434zm-5.104-1.414c.561.27 1.27.52 2.105.746.875.24 1.885.361 2.998.361 1.006 0 1.879-.139 2.596-.413.713-.274 1.311-.645 1.775-1.098a4.232 4.232 0 0 0 1.018-1.579c.215-.597.326-1.22.326-1.853 0-.959-.213-1.751-.629-2.356a5.388 5.388 0 0 0-1.604-1.528 11.217 11.217 0 0 0-2.105-1.015c-.76-.272-1.482-.56-2.146-.854-.674-.298-1.242-.648-1.688-1.04-.469-.416-.707-.97-.707-1.646 0-.873.311-1.534.926-1.967.602-.42 1.336-.633 2.186-.633 1.072 0 1.945.227 2.598.67.648.445 1.182 1.179 1.586 2.181a.573.573 0 0 0 .168.241c.072.065.213.101.41.101.109 0 .213-.011.312-.034a23.83 23.83 0 0 1-.244-1.61 33.599 33.599 0 0 1-.162-1.646 16.004 16.004 0 0 0-2.371-.731 10.49 10.49 0 0 0-2.141-.228c-.855 0-1.621.126-2.275.377a5.294 5.294 0 0 0-1.689 1.014 4.22 4.22 0 0 0-1.055 1.491 4.825 4.825 0 0 0-.361 1.863c0 .994.203 1.793.604 2.373a5.11 5.11 0 0 0 1.523 1.453 9.936 9.936 0 0 0 2.002.939 23.43 23.43 0 0 1 2.047.804c.639.29 1.18.654 1.617 1.087.447.449.674 1.072.674 1.849 0 .358-.062.715-.189 1.058-.125.345-.318.65-.574.907a2.814 2.814 0 0 1-.982.613c-.395.153-.871.232-1.418.232a6.067 6.067 0 0 1-1.678-.213 3.581 3.581 0 0 1-1.303-.688 4.481 4.481 0 0 1-.988-1.194 9.73 9.73 0 0 1-.756-1.716c-.059-.157-.129-.268-.203-.323-.145-.11-.518-.11-.789-.035.127.626.244 1.28.348 1.946.105.68.185 1.387.238 2.094zm25.514-14.49v13.538c0 .17.01.311.037.424.025.112.09.21.193.296.104.087.248.159.438.219.188.061.453.115.797.167.258.051.387.196.387.438 0 .051-.006.127-.012.23-.01.103-.023.188-.039.257-.549-.032-1.137-.063-1.764-.09a46.826 46.826 0 0 0-1.66-.039c-.498 0-1.051.016-1.66.039-.609.026-1.188.058-1.736.09a.66.66 0 0 1-.064-.257 2.56 2.56 0 0 1-.014-.23c0-.119.021-.221.064-.297s.158-.132.348-.167c.635-.086 1.033-.201 1.197-.348.162-.146.244-.39.244-.732V63.778h-2.266c-.48 0-.887.047-1.223.141a2.525 2.525 0 0 0-.873.438c-.25.197-.473.454-.67.772a10.49 10.49 0 0 0-.604 1.146c-.07.153-.199.231-.389.231-.102 0-.221-.021-.359-.064a2.032 2.032 0 0 1-.309-.117c.119-.411.223-.776.309-1.093.086-.317.154-.631.207-.94.066-.395.119-.746.152-1.055.035-.309.078-.532.131-.669.068-.154.205-.231.41-.231.188 0 .562.026 1.121.077.557.052 1.23.077 2.02.077h7.926c.773 0 1.438-.025 1.996-.077.557-.051.938-.077 1.145-.077.189 0 .326.077.412.231.051.137.09.36.115.669s.082.66.168 1.055a12.262 12.262 0 0 0 .515 2.033 5.23 5.23 0 0 1-.322.117 1.107 1.107 0 0 1-.348.064.44.44 0 0 1-.412-.231 10.853 10.853 0 0 0-.605-1.146 2.967 2.967 0 0 0-.668-.772 2.518 2.518 0 0 0-.875-.438 4.472 4.472 0 0 0-1.197-.141h-2.263z"/><path d="M283.215 79.509l-.127-.008a116.53 116.53 0 0 0-1.76-.09 44.105 44.105 0 0 0-1.654-.039c-.459 0-1 .013-1.652.039-.609.026-1.188.058-1.736.09l-.102.007-.043-.092a.84.84 0 0 1-.08-.313 2.753 2.753 0 0 1-.014-.242c0-.147.029-.272.084-.373.066-.117.209-.195.451-.242.756-.104 1.029-.225 1.125-.312.127-.114.191-.321.191-.617V63.931h-2.111c-.459 0-.859.046-1.182.136-.312.09-.59.229-.82.412a2.88 2.88 0 0 0-.635.732c-.189.304-.389.683-.596 1.129-.064.145-.209.32-.525.32-.119 0-.252-.024-.404-.072a2.147 2.147 0 0 1-.332-.125l-.113-.058.033-.123a49.6 49.6 0 0 0 .309-1.091c.084-.307.152-.617.203-.924.068-.392.119-.743.154-1.048.035-.324.08-.555.137-.704.068-.156.217-.332.555-.332.188 0 .549.025 1.133.078.543.05 1.219.076 2.008.076h7.926c.783 0 1.432-.025 1.982-.076.584-.053.951-.078 1.158-.078.244 0 .434.108.547.312.064.17.105.401.135.729.023.298.078.646.164 1.037a12.381 12.381 0 0 0 .509 2.017l.047.137-.135.055a9.848 9.848 0 0 1-.33.118c-.447.149-.773.064-.943-.238-.211-.455-.41-.834-.602-1.138a2.796 2.796 0 0 0-.635-.734 2.366 2.366 0 0 0-.818-.41 4.37 4.37 0 0 0-1.156-.136h-2.111v13.386c0 .16.012.292.035.39a.39.39 0 0 0 .141.214c.086.072.217.135.387.188.178.056.43.109.773.162.336.065.518.275.518.59 0 .053-.006.134-.014.242-.01.112-.023.207-.043.282l-.032.123zm-7.428-15.884h2.418v13.691c0 .387-.098.671-.295.847-.189.17-.598.292-1.279.386-.197.038-.23.088-.232.088a.483.483 0 0 0-.045.224c0 .047.004.119.012.215.004.042.01.081.018.113.516-.03 1.057-.059 1.623-.084.66-.026 1.205-.038 1.668-.038.451 0 .98.012 1.666.038a106.4 106.4 0 0 1 1.631.083c.004-.033.01-.071.012-.109.008-.098.014-.17.014-.218 0-.167-.076-.251-.264-.288a5.808 5.808 0 0 1-.814-.171 1.387 1.387 0 0 1-.488-.247.707.707 0 0 1-.246-.38 2.14 2.14 0 0 1-.041-.458V63.625h2.418c.471 0 .889.049 1.238.147.354.1.664.257.928.464.262.208.498.481.705.812.197.315.402.705.613 1.161.086.156.279.182.572.088l.178-.062a12.87 12.87 0 0 1-.474-1.918 8.228 8.228 0 0 1-.168-1.068c-.025-.293-.062-.506-.107-.626-.049-.086-.135-.133-.268-.133-.193 0-.564.025-1.133.076-.557.053-1.215.078-2.008.078h-7.926a21.89 21.89 0 0 1-2.035-.078 15.646 15.646 0 0 0-1.105-.076c-.186 0-.242.076-.271.141-.043.116-.084.328-.115.623-.037.31-.09.669-.156 1.064a9.804 9.804 0 0 1-.209.954c-.078.284-.17.605-.273.966.049.018.105.038.17.059.123.038.229.057.314.057.162 0 .217-.072.248-.141.211-.459.418-.849.613-1.164.207-.331.443-.604.703-.812.266-.208.576-.365.93-.465.348-.098.772-.147 1.26-.147zm23.858 9.934h-5.404l-1.338 3.576a.802.802 0 0 0-.104.284 1.739 1.739 0 0 0-.025.229c0 .19.09.345.27.466.18.119.545.222 1.094.308.24.034.359.196.359.489 0 .119-.016.265-.051.437a87.367 87.367 0 0 0-1.467-.09 25.58 25.58 0 0 0-2.598-.013c-.379.017-.799.054-1.264.103a.526.526 0 0 1-.051-.231v-.205c0-.326.113-.498.336-.515.531-.104.914-.214 1.145-.336.23-.119.416-.325.553-.617l6.203-14.824c.139-.29.344-.437.617-.437.086 0 .172.003.258.014.086.008.18.021.283.038l6.201 15.288c.104.257.301.449.594.58.291.127.609.217.951.268.258.052.387.226.387.514 0 .14-.018.292-.053.464-.549-.032-1.088-.063-1.621-.09a34.962 34.962 0 0 0-1.492-.039c-.24 0-.531.006-.875.016-.344.007-.693.021-1.057.037-.359.017-.715.029-1.066.038-.352.008-.648.021-.889.038a.526.526 0 0 1-.051-.231v-.205c0-.153.029-.271.09-.348a.367.367 0 0 1 .193-.142c.445-.086.777-.184.99-.297.215-.11.322-.277.322-.499 0-.104-.025-.233-.076-.389l-1.364-3.679zm-.489-1.288l-2.188-5.791-2.24 5.791h4.428z"/><path d="M289.027 79.513l-.045-.097a.653.653 0 0 1-.068-.3v-.205c0-.55.299-.655.477-.668.502-.098.871-.207 1.084-.317.205-.106.363-.283.486-.548l6.199-14.816c.209-.441.527-.531.76-.531.092 0 .186.002.275.014.086.008.184.021.291.039l.084.015.033.078 6.201 15.289c.09.222.256.383.512.497.283.123.592.209.914.256.334.069.516.306.516.666 0 .151-.018.313-.055.494l-.025.132-.133-.009c-.549-.032-1.09-.063-1.621-.09a32.724 32.724 0 0 0-1.484-.039c-.24 0-.529.005-.871.016a43.88 43.88 0 0 0-1.053.037c-.361.017-.719.029-1.07.038-.35.008-.645.021-.883.038l-.1.008-.047-.093a.652.652 0 0 1-.066-.3v-.205c0-.189.041-.339.121-.442a.505.505 0 0 1 .279-.195c.438-.085.758-.18.957-.282.162-.084.238-.2.238-.365 0-.089-.023-.201-.07-.341l-1.326-3.573h-5.191l-1.301 3.477a.766.766 0 0 0-.096.256 1.492 1.492 0 0 0-.021.204c0 .14.061.246.199.337.111.075.381.183 1.033.287.182.023.49.142.49.639 0 .132-.018.289-.057.467l-.025.134-.133-.011a87.083 87.083 0 0 0-1.465-.09 25.69 25.69 0 0 0-2.584-.013c-.354.016-.762.05-1.25.102l-.109.01zm5.106-6.108h5.617l1.402 3.778c.059.178.086.319.086.442 0 .28-.139.499-.402.636-.229.118-.566.221-1.033.311-.027.007-.064.037-.102.085s-.059.137-.059.254v.205a.42.42 0 0 0 .006.072c.221-.013.479-.025.777-.03.352-.011.705-.023 1.062-.04.365-.016.717-.03 1.061-.037.344-.01.637-.015.879-.015.436 0 .926.013 1.5.038.49.024.984.054 1.488.083a2.09 2.09 0 0 0 .023-.304c0-.273-.133-.337-.264-.364a3.934 3.934 0 0 1-.982-.277c-.328-.145-.555-.368-.674-.663l-6.168-15.208c-.066-.009-.129-.018-.189-.022a1.984 1.984 0 0 0-.242-.013c-.215 0-.367.111-.479.35l-6.199 14.816c-.154.329-.363.56-.625.695-.24.127-.629.242-1.186.35-.076.007-.211.017-.211.364v.205a.69.69 0 0 0 .004.067c.443-.047.818-.076 1.148-.092.895-.039 1.648-.03 2.613.013.467.024.91.052 1.332.081.016-.104.025-.196.025-.274 0-.269-.109-.321-.229-.337-.578-.091-.955-.199-1.158-.332-.221-.147-.336-.353-.336-.594 0-.054.008-.139.027-.254a.996.996 0 0 1 .121-.339l1.367-3.65zm5.246-.98h-4.875l.084-.21 2.381-6.163 2.41 6.373zm-4.426-.307h3.98l-1.967-5.21-2.013 5.21zm26.568-5.458a1.524 1.524 0 0 1-.49.077c-.24 0-.41-.047-.514-.141a.713.713 0 0 1-.207-.296c-.395-.979-.904-1.684-1.529-2.111-.629-.429-1.465-.644-2.512-.644-.822 0-1.521.202-2.096.605s-.863 1.018-.863 1.841c0 .635.221 1.145.656 1.531.438.386.986.724 1.648 1.016.658.292 1.371.575 2.137.851.762.275 1.475.617 2.135 1.029.66.41 1.209.935 1.646 1.569.438.634.656 1.45.656 2.444 0 .652-.111 1.287-.334 1.904a4.305 4.305 0 0 1-1.055 1.635c-.48.473-1.09.851-1.828 1.133-.738.283-1.621.424-2.65.424-1.131 0-2.145-.122-3.037-.366-.893-.242-1.631-.507-2.213-.795-.053-.735-.133-1.46-.244-2.171s-.236-1.402-.375-2.072c.172-.067.369-.104.594-.104.205 0 .359.038.463.117.102.076.188.21.258.397.223.653.473 1.216.746 1.688.273.471.592.856.953 1.155.359.302.775.52 1.248.657.471.138 1.016.207 1.635.207.529 0 .984-.075 1.363-.221.375-.146.686-.34.926-.579.24-.242.42-.524.539-.853.121-.324.182-.66.182-1.005 0-.737-.211-1.319-.631-1.74a5.259 5.259 0 0 0-1.57-1.055 22.694 22.694 0 0 0-2.033-.8 10.072 10.072 0 0 1-2.033-.953 5.238 5.238 0 0 1-1.568-1.496c-.422-.609-.631-1.431-.631-2.461 0-.688.125-1.328.373-1.923a4.362 4.362 0 0 1 1.094-1.546 5.445 5.445 0 0 1 1.736-1.044c.678-.258 1.455-.386 2.328-.386.723 0 1.447.078 2.176.231.729.154 1.557.412 2.482.772.037.515.092 1.094.17 1.736.076.649.166 1.229.269 1.743z"/><path d="M316.322 79.682c-1.141 0-2.176-.125-3.076-.372-.896-.243-1.65-.513-2.244-.805l-.078-.04-.006-.088a25.906 25.906 0 0 0-.24-2.157 45.904 45.904 0 0 0-.373-2.065l-.027-.127.121-.047a1.78 1.78 0 0 1 .648-.113c.244 0 .426.049.557.148.123.094.227.246.307.465a9.39 9.39 0 0 0 .736 1.665c.264.454.572.829.918 1.115.338.284.74.496 1.193.629.457.133.992.2 1.592.2.508 0 .947-.071 1.307-.209.355-.139.648-.32.875-.546a2.17 2.17 0 0 0 .504-.796 2.78 2.78 0 0 0 .172-.953c0-.693-.199-1.242-.586-1.632a5.2 5.2 0 0 0-1.525-1.024 23.637 23.637 0 0 0-2.02-.794 10.123 10.123 0 0 1-2.064-.967 5.35 5.35 0 0 1-1.613-1.54c-.438-.632-.66-1.49-.66-2.548 0-.705.131-1.371.387-1.982a4.519 4.519 0 0 1 1.131-1.6 5.597 5.597 0 0 1 1.785-1.073c.691-.263 1.492-.396 2.383-.396.727 0 1.469.078 2.207.234.744.157 1.59.421 2.51.779l.09.035.006.098c.033.503.09 1.085.166 1.729.078.643.17 1.222.27 1.725l.027.132-.129.043a1.66 1.66 0 0 1-.539.086c-.281 0-.484-.06-.619-.183a.882.882 0 0 1-.246-.358c-.379-.938-.875-1.624-1.473-2.033-.598-.408-1.414-.617-2.424-.617-.785 0-1.461.193-2.01.577-.535.377-.795.938-.795 1.716 0 .593.195 1.057.604 1.416.422.372.963.705 1.609.99.656.292 1.373.577 2.125.847.771.278 1.502.63 2.164 1.043a5.714 5.714 0 0 1 1.693 1.613c.453.657.684 1.51.684 2.531a5.72 5.72 0 0 1-.346 1.958 4.46 4.46 0 0 1-1.09 1.69c-.496.486-1.129.879-1.881 1.167-.754.287-1.664.434-2.707.434zm-5.103-1.414c.562.27 1.27.52 2.107.746.873.24 1.883.361 2.996.361 1.004 0 1.879-.139 2.596-.413.713-.274 1.311-.645 1.775-1.098a4.232 4.232 0 0 0 1.018-1.579c.215-.597.326-1.22.326-1.853 0-.959-.211-1.751-.629-2.356a5.388 5.388 0 0 0-1.604-1.528 11.188 11.188 0 0 0-2.105-1.015 32.205 32.205 0 0 1-2.146-.854c-.674-.298-1.242-.648-1.688-1.04-.469-.416-.707-.97-.707-1.646 0-.873.312-1.534.926-1.967.602-.42 1.336-.633 2.186-.633 1.072 0 1.945.227 2.598.67.648.445 1.182 1.179 1.586 2.181a.573.573 0 0 0 .168.241c.072.065.213.101.41.101.109 0 .213-.011.312-.034a22.622 22.622 0 0 1-.244-1.61 33.599 33.599 0 0 1-.162-1.646 15.985 15.985 0 0 0-2.369-.731 10.522 10.522 0 0 0-2.145-.228c-.854 0-1.617.126-2.271.377a5.282 5.282 0 0 0-1.691 1.014c-.459.42-.816.923-1.055 1.491a4.825 4.825 0 0 0-.361 1.863c0 .994.203 1.793.604 2.373a5.11 5.11 0 0 0 1.523 1.453 9.988 9.988 0 0 0 2.002.939 23.73 23.73 0 0 1 2.049.804c.637.29 1.18.654 1.615 1.087.447.449.676 1.072.676 1.849 0 .358-.064.715-.191 1.058-.125.345-.318.65-.576.907a2.79 2.79 0 0 1-.979.613c-.396.153-.873.232-1.418.232a6.047 6.047 0 0 1-1.678-.213 3.59 3.59 0 0 1-1.305-.688 4.438 4.438 0 0 1-.986-1.194 9.582 9.582 0 0 1-.758-1.716c-.061-.157-.129-.268-.205-.323-.143-.11-.514-.11-.787-.035.127.626.244 1.28.348 1.946.106.68.186 1.387.239 2.094z"/></g><path fill="#C06169" d="M228.082 52.797c0 .189-.031.392-.098.604-.168-.023-.486-.038-.953-.049s-.977-.02-1.529-.031a81.253 81.253 0 0 0-1.609-.017h-1.164c-.508 0-1.053-.212-1.625-.636-.574-.426-1.35-1.105-2.326-2.041a11.163 11.163 0 0 1-2.947 2.136c-1.074.529-2.342.796-3.809.796-.891 0-1.721-.096-2.482-.285-.768-.192-1.43-.494-1.992-.909a4.138 4.138 0 0 1-1.307-1.577c-.309-.637-.463-1.391-.463-2.263 0-.721.127-1.38.383-1.975a5.965 5.965 0 0 1 1.033-1.625c.438-.489.93-.934 1.484-1.339a14.516 14.516 0 0 1 1.721-1.083 18.48 18.48 0 0 1-1.418-1.562 8.697 8.697 0 0 1-.893-1.322 5.312 5.312 0 0 1-.479-1.18 4.374 4.374 0 0 1-.145-1.099c0-.616.135-1.19.4-1.721.266-.53.631-.992 1.098-1.386a5.187 5.187 0 0 1 1.674-.924 6.467 6.467 0 0 1 2.119-.336c1.594 0 2.809.373 3.648 1.117.838.744 1.258 1.657 1.258 2.741 0 .891-.293 1.763-.875 2.613-.584.849-1.357 1.561-2.311 2.134a156.52 156.52 0 0 0 2.979 2.964 243.56 243.56 0 0 0 2.438 2.325c.361-.53.697-1.066 1.004-1.608.309-.542.572-1.062.797-1.562.223-.497.393-.954.51-1.369.117-.416.174-.75.174-1.005 0-.191-.09-.354-.27-.494-.18-.137-.525-.27-1.035-.398-.172-.042-.281-.09-.334-.143s-.082-.165-.082-.334.035-.351.096-.542c.426.043.924.07 1.498.08.576.011 1.104.017 1.594.017.447 0 .891-.005 1.338-.017.447-.01.859-.037 1.244-.08.021.106.043.225.064.351.02.128.029.213.029.255 0 .254-.137.404-.412.446-.258.063-.475.118-.654.16a1.346 1.346 0 0 0-.492.225c-.15.106-.287.248-.414.429-.129.18-.27.43-.414.749a85.456 85.456 0 0 1-1.451 2.946 27.68 27.68 0 0 1-1.738 2.916 55.932 55.932 0 0 0 2.074 1.881c.592.509 1.107.923 1.543 1.244.436.316.807.562 1.115.73.309.172.58.288.814.352.105.043.258.085.461.127.201.043.43.084.686.128.297.02.445.168.445.446zm-16.857-9.338a7.68 7.68 0 0 0-1.402 1.927c-.361.712-.539 1.546-.539 2.501 0 .617.111 1.148.334 1.594.223.445.51.812.859 1.099.352.288.754.494 1.211.621.457.128.93.192 1.42.192.424 0 .82-.026 1.193-.081a5.644 5.644 0 0 0 1.1-.27 5.172 5.172 0 0 0 1.084-.541 9.881 9.881 0 0 0 1.146-.892 92.75 92.75 0 0 1-2.82-2.582 120.43 120.43 0 0 1-3.586-3.568zm2.232-2.836a6.185 6.185 0 0 0 1.002-1.737c.223-.605.336-1.163.336-1.672 0-.892-.197-1.571-.59-2.039-.395-.467-.91-.701-1.545-.701-.572 0-1.021.197-1.34.589-.316.394-.479.866-.479 1.418 0 .637.219 1.285.654 1.944.437.658 1.089 1.391 1.962 2.198z"/><path fill-rule="evenodd" clip-rule="evenodd" fill="#FBC817" d="M109.133 41.38h89.261v2.154h-89.261zm123.373 0h89.262v2.154h-89.262z"/></svg>